<svg id="Layer_1" data-name="Layer 1" xmlns="http://www.w3.org/2000/svg" xmlns:xlink="http://www.w3.org/1999/xlink" viewBox="0 0 799.3 160"><defs><style>.cls-1{fill:#dadada;}.cls-2{fill:url(#linear-gradient);}.cls-3{fill:#fff;}.cls-4,.cls-5{fill:#eb2227;}.cls-4{fill-rule:evenodd;}.cls-6{fill:#1e4384;}</style><linearGradient id="linear-gradient" y1="81.28" x2="787.23" y2="81.28" gradientTransform="matrix(1, 0, 0, -1, 0, 161.28)" gradientUnits="userSpaceOnUse"><stop offset="0" stop-color="#192251"/><stop offset="1" stop-color="#263a83"/></linearGradient></defs><title>UI Final Dark</title><path class="cls-1" d="M12.08,0V160H799.3L650.2,0Z" transform="translate(0 0)"/><path class="cls-2" d="M0,0V160H787.23L638.13,0Z" transform="translate(0 0)"/><path class="cls-3" d="M172.1,103.64V86.37h3.58V93h6.72V86.37H186v17.27h-3.58v-7.7H175.7v7.7Z" transform="translate(0 0)"/><path id="B" class="cls-3" d="M192.63,89.34h-3.4V86.26h3.4Zm-3.4,1.53h3.4v12.77h-3.4Z" transform="translate(0 0)"/><path class="cls-3" d="M206.16,91.6a4.2,4.2,0,0,1,1.25,3.4v8.6H204V95.87a3.58,3.58,0,0,0-.27-1.55,1.86,1.86,0,0,0-1.86-1,2.32,2.32,0,0,0-2.31,1.44,4.9,4.9,0,0,0-.33,2v6.9h-3.34V90.9h3.24v1.86a5.5,5.5,0,0,1,1.21-1.42,4.3,4.3,0,0,1,2.6-.77,4.88,4.88,0,0,1,3.22,1Zm11.14-.53a4.06,4.06,0,0,1,1.47,1.41v-6.1h3.38v17.25h-3.24v-1.77a4.68,4.68,0,0,1-1.63,1.65A4.45,4.45,0,0,1,215,104a4.77,4.77,0,0,1-3.77-1.81,7,7,0,0,1-1.53-4.65,8,8,0,0,1,1.5-5.14,4.93,4.93,0,0,1,4-1.88,4.06,4.06,0,0,1,2.09.55Zm.82,9.1a4.71,4.71,0,0,0,.74-2.73,4.2,4.2,0,0,0-1.18-3.35,2.55,2.55,0,0,0-1.69-.61,2.33,2.33,0,0,0-2.15,1.11,5.91,5.91,0,0,0,0,5.57,2.36,2.36,0,0,0,2.12,1.07,2.49,2.49,0,0,0,2.16-1.06Zm10.38-9.3v7.7a4.15,4.15,0,0,0,.25,1.64,1.81,1.81,0,0,0,1.79,1,2.34,2.34,0,0,0,2.33-1.38,4.9,4.9,0,0,0,.33-2v-7h3.38v12.77h-3.24v-1.8l-.24.36a2.38,2.38,0,0,1-.44.51,4.63,4.63,0,0,1-1.51,1,5.28,5.28,0,0,1-1.72.26,3.82,3.82,0,0,1-3.81-2,8,8,0,0,1-.54-3.31V91Zm13.93,8.7a2.24,2.24,0,0,0,.46,1.27,3.15,3.15,0,0,0,2.31.67,3.52,3.52,0,0,0,1.57-.3.91.91,0,0,0,.58-.88.94.94,0,0,0-.47-.85,19.31,19.31,0,0,0-3.49-1,7.25,7.25,0,0,1-3.07-1.35,2.93,2.93,0,0,1-.89-2.29,4,4,0,0,1,1.39-3,5.63,5.63,0,0,1,3.92-1.27,7.13,7.13,0,0,1,3.9,1,4,4,0,0,1,1.73,3.3H247a1.9,1.9,0,0,0-.36-1,2.31,2.31,0,0,0-1.88-.68,2.66,2.66,0,0,0-1.56.34,1,1,0,0,0-.46.79.88.88,0,0,0,.49.84,22.14,22.14,0,0,0,3.49.92,6.38,6.38,0,0,1,3,1.42,3.19,3.19,0,0,1,1,2.4,3.87,3.87,0,0,1-1.42,3.1,6.67,6.67,0,0,1-4.37,1.2,6.59,6.59,0,0,1-4.46-1.27A4.13,4.13,0,0,1,239,99.57Zm9.44-6.2V91h1.78V87.42H257V91h2v2.38h-2v6.75a1.52,1.52,0,0,0,.2,1,2.22,2.22,0,0,0,1.22.19h.65v2.5l-1.58.06c-1.58.05-2.66-.22-3.23-.82a2.43,2.43,0,0,1-.57-1.77V93.36Zm14.37,2.5a5.55,5.55,0,0,0,1.33-.29,1,1,0,0,0,.72-1,1.12,1.12,0,0,0-.55-1.09,3.59,3.59,0,0,0-1.62-.29,2.14,2.14,0,0,0-1.7.58,2.38,2.38,0,0,0-.48,1.17h-3.22a5,5,0,0,1,.94-2.75q1.33-1.7,4.57-1.7a8.21,8.21,0,0,1,3.74.83,3.21,3.21,0,0,1,1.64,3.14v7.34a1.82,1.82,0,0,0,.2.89,1.11,1.11,0,0,0,.49.39v.5h-3.63a4.68,4.68,0,0,1-.21-.73c0-.22-.07-.48-.1-.77a6.4,6.4,0,0,1-1.6,1.28,4.88,4.88,0,0,1-2.45.62,4.21,4.21,0,0,1-2.88-1,3.55,3.55,0,0,1-1.14-2.81,3.62,3.62,0,0,1,1.83-3.41,8,8,0,0,1,2.95-.82Zm2,1.56a3.27,3.27,0,0,1-.65.32,5.4,5.4,0,0,1-.9.23l-.76.14a5.11,5.11,0,0,0-1.53.46,1.5,1.5,0,0,0-.79,1.42,1.47,1.47,0,0,0,.48,1.23,1.77,1.77,0,0,0,1.17.38,3.49,3.49,0,0,0,2-.63,2.64,2.64,0,0,0,1-2.31Zm16.6-5.83a4.27,4.27,0,0,1,1.25,3.4v8.6h-3.42V95.87a3.58,3.58,0,0,0-.27-1.55,1.88,1.88,0,0,0-1.86-1,2.33,2.33,0,0,0-2.32,1.44,5.06,5.06,0,0,0-.32,2v6.9h-3.34V90.9h3.23v1.86A5.92,5.92,0,0,1,279,91.34a4.17,4.17,0,0,1,2.6-.77,4.89,4.89,0,0,1,3.23,1Zm22.9,4.56a6.58,6.58,0,0,1-4.33,1.27h-3.6v6.2h-3.58V86.37h7.4a6,6,0,0,1,4.09,1.33,5.2,5.2,0,0,1,1.53,4.14c0,2-.5,3.48-1.52,4.32ZM305,89.94a2.93,2.93,0,0,0-1.92-.57h-3.25v5.08H303a2.68,2.68,0,0,0,1.92-.62,2.53,2.53,0,0,0,.69-2,2.38,2.38,0,0,0-.61-1.89Zm15.18,1.2A5.15,5.15,0,0,1,322.39,93a6.34,6.34,0,0,1,1,2.65,16.48,16.48,0,0,1,.11,2.53h-9.3a3.08,3.08,0,0,0,1.33,2.7,3.4,3.4,0,0,0,1.84.48,2.84,2.84,0,0,0,1.86-.59,2.7,2.7,0,0,0,.69-.88h3.4a4.16,4.16,0,0,1-1.23,2.31,6.22,6.22,0,0,1-4.81,1.86,7,7,0,0,1-4.5-1.57q-1.95-1.57-1.95-5.1a7,7,0,0,1,1.76-5.09,6.18,6.18,0,0,1,4.57-1.77,7.13,7.13,0,0,1,3,.61Zm-5,2.88a3.55,3.55,0,0,0-.89,2H320a2.77,2.77,0,0,0-.89-2,2.92,2.92,0,0,0-2-.69,2.61,2.61,0,0,0-2,.68Zm8.72-.65V91h1.78V87.42H329V91h2.08v2.38H329v6.75a1.52,1.52,0,0,0,.2,1,2.22,2.22,0,0,0,1.22.19h.66v2.5l-1.6.06c-1.57.05-2.65-.22-3.23-.82a2.47,2.47,0,0,1-.56-1.77V93.36Zm16.4-2.8h.28V94a2,2,0,0,1-.56,0h-.4a2.79,2.79,0,0,0-2.71,1.31,5.33,5.33,0,0,0-.38,2.27v6.1h-3.37V90.87h3.2v2.22a7.13,7.13,0,0,1,1.35-1.74,3.65,3.65,0,0,1,2.44-.79Z" transform="translate(0 0)"/><path id="C" class="cls-3" d="M353.2,102.08a7.06,7.06,0,0,1-9.82,0,8,8,0,0,1,0-9.6,7,7,0,0,1,9.82,0A7.92,7.92,0,0,1,353.2,102.08Zm-2.67-1.85a5.94,5.94,0,0,0,0-5.91,2.65,2.65,0,0,0-2.25-1,2.7,2.7,0,0,0-2.26,1,5.94,5.94,0,0,0,0,5.91,2.66,2.66,0,0,0,2.26,1A2.62,2.62,0,0,0,350.53,100.23Z" transform="translate(0 0)"/><path class="cls-3" d="M360.6,103.64h-3.34V86.37h3.34Zm11.6-12.5A5.13,5.13,0,0,1,374.4,93a6.34,6.34,0,0,1,1,2.65,16.48,16.48,0,0,1,.11,2.53h-9.3a3.09,3.09,0,0,0,1.34,2.7,3.38,3.38,0,0,0,1.84.48,2.81,2.81,0,0,0,1.85-.59,2.7,2.7,0,0,0,.69-.88h3.4a4.17,4.17,0,0,1-1.24,2.31,6.17,6.17,0,0,1-4.8,1.86,7,7,0,0,1-4.5-1.57q-1.95-1.57-2-5.1a7,7,0,0,1,1.76-5.09,6.14,6.14,0,0,1,4.57-1.77,7.13,7.13,0,0,1,3,.61Zm-5,2.88a3.4,3.4,0,0,0-.89,2h5.75a2.77,2.77,0,0,0-.89-2,2.92,2.92,0,0,0-2-.69,2.61,2.61,0,0,0-2,.68Zm13.34-3.14v7.7a4,4,0,0,0,.26,1.64,1.79,1.79,0,0,0,1.78,1,2.34,2.34,0,0,0,2.34-1.38,5.06,5.06,0,0,0,.32-2v-7h3.4v12.77h-3.25v-1.8l-.23.36a2.38,2.38,0,0,1-.44.51,4.67,4.67,0,0,1-1.52,1,5.22,5.22,0,0,1-1.71.26c-1.89,0-3.16-.67-3.8-2a7.8,7.8,0,0,1-.55-3.31V91Zm27.26,0a3.66,3.66,0,0,1,1.49,1.15,3.76,3.76,0,0,1,.7,1.64,10.9,10.9,0,0,1,.11,1.89v8h-3.4V95.5a2.76,2.76,0,0,0-.23-1.2,1.68,1.68,0,0,0-1.65-.89,1.93,1.93,0,0,0-1.91,1.15,3.64,3.64,0,0,0-.27,1.46v7.6h-3.36V96a4.4,4.4,0,0,0-.23-1.65,1.63,1.63,0,0,0-1.66-.92,2,2,0,0,0-1.92.92A3.59,3.59,0,0,0,395.2,96v7.7h-3.38V90.9h3.24v1.86a5.91,5.91,0,0,1,1.17-1.42,4.06,4.06,0,0,1,2.52-.74,4,4,0,0,1,2.37.64,3.74,3.74,0,0,1,1.1,1.53,4.24,4.24,0,0,1,1.63-1.65,5.07,5.07,0,0,1,2.3-.52,4.5,4.5,0,0,1,1.66.32Zm14-2.73A7.11,7.11,0,0,1,427.11,86q4.32,0,6.3,2.86a6.17,6.17,0,0,1,1.18,3.22H431a5,5,0,0,0-.88-1.87,3.58,3.58,0,0,0-2.86-1.13,3.51,3.51,0,0,0-3,1.59,7.63,7.63,0,0,0-1.12,4.49,6.76,6.76,0,0,0,1.18,4.36,3.67,3.67,0,0,0,3,1.44,3.38,3.38,0,0,0,2.84-1.24,5.46,5.46,0,0,0,.89-2h3.6a7.69,7.69,0,0,1-2.38,4.59,6.89,6.89,0,0,1-4.88,1.77,7.37,7.37,0,0,1-5.8-2.39,9.6,9.6,0,0,1-2.11-6.59,9.2,9.2,0,0,1,2.33-6.93Z" transform="translate(0 0)"/><path id="D" class="cls-3" d="M447.87,102.08a7.06,7.06,0,0,1-9.82,0,7.92,7.92,0,0,1,0-9.6,7,7,0,0,1,9.82,0A8,8,0,0,1,447.87,102.08Zm-2.68-1.85a5.94,5.94,0,0,0,0-5.91,3,3,0,0,0-4.23-.27,3.44,3.44,0,0,0-.27.27,5.94,5.94,0,0,0,0,5.91,3,3,0,0,0,4.23.27A3.44,3.44,0,0,0,445.19,100.23Z" transform="translate(0 0)"/><path class="cls-3" d="M459,90.57h.3V94a2.09,2.09,0,0,1-.57,0h-.4a2.79,2.79,0,0,0-2.71,1.31,5,5,0,0,0-.39,2.27v6.1h-3.36V90.87H455v2.22a6.86,6.86,0,0,1,1.34-1.74,3.65,3.65,0,0,1,2.44-.79Zm13,1.67a6.78,6.78,0,0,1,1.56,4.85,7.65,7.65,0,0,1-1.53,5.14A5,5,0,0,1,468.1,104a4.14,4.14,0,0,1-2.55-.76,4.88,4.88,0,0,1-1.08-1.23v6.66h-3.3V90.87h3.2v1.88a5.18,5.18,0,0,1,1.16-1.31,4.17,4.17,0,0,1,2.66-.85A5.08,5.08,0,0,1,472,92.24Zm-2.57,2.4a2.36,2.36,0,0,0-2.21-1.14,2.51,2.51,0,0,0-2.52,1.73,6.77,6.77,0,0,0-.35,2.32,3.73,3.73,0,0,0,1.19,3.13,2.81,2.81,0,0,0,1.68.52,2.45,2.45,0,0,0,2.15-1.08A5.63,5.63,0,0,0,469.43,94.64Z" transform="translate(0 0)"/><path class="cls-3" d="M486.53,102.08a7.06,7.06,0,0,1-9.82,0,7.92,7.92,0,0,1,0-9.6,7,7,0,0,1,9.82,0A8,8,0,0,1,486.53,102.08Zm-2.68-1.85a5.94,5.94,0,0,0,0-5.91,3,3,0,0,0-4.23-.27,3.44,3.44,0,0,0-.27.27,5.94,5.94,0,0,0,0,5.91,3,3,0,0,0,4.23.27A3.44,3.44,0,0,0,483.85,100.23Z" transform="translate(0 0)"/><path class="cls-3" d="M497.63,90.57h.3V94a2.09,2.09,0,0,1-.57,0H497a2.79,2.79,0,0,0-2.71,1.31,5,5,0,0,0-.39,2.27v6.1h-3.4V90.87h3.2v2.22A6.74,6.74,0,0,1,495,91.35a3.65,3.65,0,0,1,2.44-.79Zm7.3,5.3a5.52,5.52,0,0,0,1.34-.29,1,1,0,0,0,.72-1,1.14,1.14,0,0,0-.56-1.09,3.46,3.46,0,0,0-1.62-.29,2.14,2.14,0,0,0-1.7.58,2.5,2.5,0,0,0-.47,1.17h-3.22a4.87,4.87,0,0,1,.94-2.75q1.32-1.7,4.56-1.7a8.25,8.25,0,0,1,3.75.83,3.18,3.18,0,0,1,1.63,3.14v7.34a2,2,0,0,0,.19.89,1.2,1.2,0,0,0,.5.39v.5h-3.64a4.68,4.68,0,0,1-.21-.73c0-.25-.07-.51-.09-.77a7,7,0,0,1-1.6,1.28A4.89,4.89,0,0,1,503,104a4.21,4.21,0,0,1-2.88-1,3.51,3.51,0,0,1-1.13-2.81,3.62,3.62,0,0,1,1.83-3.41,8.08,8.08,0,0,1,3-.82Zm2,1.56a3.82,3.82,0,0,1-.64.32,5.4,5.4,0,0,1-.9.23l-.76.14a5.26,5.26,0,0,0-1.54.46,1.53,1.53,0,0,0-.78,1.42,1.47,1.47,0,0,0,.48,1.23,1.77,1.77,0,0,0,1.17.38,3.49,3.49,0,0,0,2-.63,2.68,2.68,0,0,0,1-2.31Zm5-4.07V91h1.78V87.42H517V91h2.08v2.38H517v6.75a1.52,1.52,0,0,0,.2,1,2.22,2.22,0,0,0,1.22.19h.66v2.5l-1.58.06c-1.58.05-2.66-.22-3.24-.82a2.48,2.48,0,0,1-.56-1.77V93.36Z" transform="translate(0 0)"/><path class="cls-3" d="M524.65,89.34h-3.4V86.26h3.4Zm-3.4,1.53h3.4v12.77h-3.4Z" transform="translate(0 0)"/><path class="cls-3" d="M538.53,102.08a7.06,7.06,0,0,1-9.82,0,8,8,0,0,1,0-9.6,7,7,0,0,1,9.82,0A7.92,7.92,0,0,1,538.53,102.08Zm-2.67-1.85a5.94,5.94,0,0,0,0-5.91,2.65,2.65,0,0,0-2.25-1,2.7,2.7,0,0,0-2.26,1,5.94,5.94,0,0,0,0,5.91,2.66,2.66,0,0,0,2.26,1A2.62,2.62,0,0,0,535.86,100.23Z" transform="translate(0 0)"/><path class="cls-3" d="M552.84,91.6A4.23,4.23,0,0,1,554.1,95v8.6h-3.43V95.87a3.72,3.72,0,0,0-.26-1.55,1.9,1.9,0,0,0-1.87-1,2.32,2.32,0,0,0-2.31,1.44,4.9,4.9,0,0,0-.33,2v6.9h-3.34V90.9h3.24v1.86a6,6,0,0,1,1.2-1.42,4.3,4.3,0,0,1,2.6-.77,4.92,4.92,0,0,1,3.24,1Zm11.3-5.23h3.6v14.16h8.62v3.1H564.13Z" transform="translate(0 0)"/><path class="cls-3" d="M582,89.34h-3.4V86.26H582Zm-3.4,1.53H582v12.77h-3.4Z" transform="translate(0 0)"/><path class="cls-3" d="M601.13,90.9a3.66,3.66,0,0,1,1.49,1.15,3.81,3.81,0,0,1,.73,1.64,12,12,0,0,1,.12,1.89v8H600V95.5a2.76,2.76,0,0,0-.23-1.2,1.68,1.68,0,0,0-1.65-.89,1.93,1.93,0,0,0-1.91,1.15A3.53,3.53,0,0,0,596,96v7.6h-3.4V96a4.4,4.4,0,0,0-.23-1.65,1.63,1.63,0,0,0-1.66-.92,2,2,0,0,0-1.92.92,3.52,3.52,0,0,0-.27,1.57v7.7h-3.38V90.9h3.24v1.86a5.73,5.73,0,0,1,1.18-1.42,4,4,0,0,1,2.51-.74,4,4,0,0,1,2.37.64,3.74,3.74,0,0,1,1.1,1.53,4.24,4.24,0,0,1,1.63-1.65,5.07,5.07,0,0,1,2.3-.52,4.5,4.5,0,0,1,1.66.32Z" transform="translate(0 0)"/><path class="cls-3" d="M610,89.34h-3.4V86.26H610Zm-3.4,1.53H610v12.77h-3.4Z" transform="translate(0 0)"/><path class="cls-3" d="M611.9,93.36V91h1.78V87.42H617V91h2.07v2.38H617v6.75a1.58,1.58,0,0,0,.2,1,2.2,2.2,0,0,0,1.21.19h.66v2.5l-1.58.06c-1.58.05-2.66-.22-3.24-.82a2.48,2.48,0,0,1-.56-1.77V93.36Zm17.62-2.23A5.15,5.15,0,0,1,631.73,93a6.34,6.34,0,0,1,1,2.65,16.48,16.48,0,0,1,.11,2.53h-9.3a3.09,3.09,0,0,0,1.34,2.7,3.38,3.38,0,0,0,1.84.48,2.81,2.81,0,0,0,1.85-.59,2.7,2.7,0,0,0,.69-.88h3.4a4.17,4.17,0,0,1-1.24,2.31,6.19,6.19,0,0,1-4.81,1.86,6.91,6.91,0,0,1-4.49-1.57q-1.95-1.58-2-5.1A6.88,6.88,0,0,1,622,92.3a6.11,6.11,0,0,1,4.56-1.77A7.16,7.16,0,0,1,629.52,91.13Zm-5,2.88a3.55,3.55,0,0,0-.89,2h5.76a2.77,2.77,0,0,0-.89-2,3,3,0,0,0-2-.69,2.62,2.62,0,0,0-2,.68Zm16.8-2.94a4,4,0,0,1,1.46,1.41v-6.1h3.4v17.25h-3.25v-1.77A4,4,0,0,1,639,104a4.77,4.77,0,0,1-3.77-1.81,7,7,0,0,1-1.53-4.65,8,8,0,0,1,1.51-5.14,4.87,4.87,0,0,1,4-1.88,4.11,4.11,0,0,1,2.11.55Zm.82,9.1a4.63,4.63,0,0,0,.73-2.73,4.2,4.2,0,0,0-1.18-3.35,2.55,2.55,0,0,0-1.69-.61,2.34,2.34,0,0,0-2.15,1.11,5.2,5.2,0,0,0-.68,2.75,5.06,5.06,0,0,0,.69,2.82,2.36,2.36,0,0,0,2.12,1.07,2.5,2.5,0,0,0,2.16-1.06Zm-464.32-39h-2.34v13.6h-2.8V61.13H170.3V58.7h2.42a6,6,0,0,1-.6-2.47,4.25,4.25,0,0,1,.31-1.62,3.55,3.55,0,0,1,1-1.33,4.63,4.63,0,0,1,1.66-.9,7.71,7.71,0,0,1,2.43-.33,10.11,10.11,0,0,1,3.18.49,11.12,11.12,0,0,1,2.84,1.37A14.93,14.93,0,0,1,186.1,56a25.79,25.79,0,0,1,2.33,2.78h-2.58L185,58l-1.1-.95a13.7,13.7,0,0,0-1.32-.94,11.85,11.85,0,0,0-1.48-.82,9.34,9.34,0,0,0-1.61-.57,6.58,6.58,0,0,0-1.71-.22,4.51,4.51,0,0,0-1.32.17,2.63,2.63,0,0,0-.92.49,1.86,1.86,0,0,0-.54.73,2.74,2.74,0,0,0-.17.94,3.2,3.2,0,0,0,.13.92,4.61,4.61,0,0,0,.42,1h2.5Z" transform="translate(0 0)"/><path class="cls-3" d="M185.38,71.44a4,4,0,0,0,1.17-.63,1,1,0,0,0,.37-.83,1.13,1.13,0,0,0-.13-.54,1.1,1.1,0,0,0-.39-.44,1.86,1.86,0,0,0-.71-.3,4.19,4.19,0,0,0-1-.1,5.55,5.55,0,0,0-1,.09,2.65,2.65,0,0,0-.86.33,1.78,1.78,0,0,0-.6.65,2,2,0,0,0-.23,1,3.2,3.2,0,0,0,.24,1.22,4.44,4.44,0,0,0,.66,1,5.22,5.22,0,0,0,.94.88,10.07,10.07,0,0,0,1.1.74l1.13.6,1,.43L186,77.89l-1.67-.77a15.33,15.33,0,0,1-1.59-.88,11.49,11.49,0,0,1-1.4-1A7.5,7.5,0,0,1,180.25,74a5.49,5.49,0,0,1-.74-1.47,5.35,5.35,0,0,1-.27-1.73,4.81,4.81,0,0,1,.27-1.68,4.06,4.06,0,0,1,.76-1.28c-.15-.23-.29-.46-.42-.7a5,5,0,0,1-.33-.75,4.91,4.91,0,0,1-.21-.75,2.81,2.81,0,0,1-.08-.71,2.57,2.57,0,0,1,.15-.87,1.85,1.85,0,0,1,.49-.74,2.35,2.35,0,0,1,.87-.52,3.89,3.89,0,0,1,1.31-.19h4.38V61.14h-9.36V58.7h14.68v2.42h-2.5v3.72h-6.4a1.41,1.41,0,0,0-.29,0,.84.84,0,0,0-.27.13.63.63,0,0,0-.2.26.92.92,0,0,0-.08.4,1.43,1.43,0,0,0,.07.46,1.76,1.76,0,0,0,.19.39,8,8,0,0,1,4.31-.14,4.83,4.83,0,0,1,1.59.7,3.61,3.61,0,0,1,1.1,1.2,3.7,3.7,0,0,1,.4,1.73,3.59,3.59,0,0,1-.29,1.48,3.66,3.66,0,0,1-.76,1.07,4.23,4.23,0,0,1-1.06.77,10.81,10.81,0,0,1-1.2.55Z" transform="translate(0 0)"/><path class="cls-3" d="M201.07,61.13H191V58.7h10.07Zm1.37,6H197v1.25a2.86,2.86,0,0,1-.12.82.8.8,0,0,1-.3.46,1,1,0,0,1-.57.15,2.23,2.23,0,0,1-.88-.18,3.79,3.79,0,0,1-.82-.49,4.7,4.7,0,0,1-.7-.71,5.25,5.25,0,0,1-.9-1.73,3,3,0,0,1-.13-.84,1.36,1.36,0,0,1,.12-.63.72.72,0,0,1,.35-.34,1.48,1.48,0,0,1,.55-.13h8.88Z" transform="translate(0 0)"/><path class="cls-3" d="M213.6,61.13h-3.28v5h-3.94a3.24,3.24,0,0,0-2.16.65,2.46,2.46,0,0,0-.76,2,3.94,3.94,0,0,0,.24,1.36,3.57,3.57,0,0,0,.66,1.13,3.24,3.24,0,0,0,1,.76,3.12,3.12,0,0,0,1.31.28h.57a1.1,1.1,0,0,0,.44-.15,4.7,4.7,0,0,1-.09-.92,4.25,4.25,0,0,1,.16-1.18,3.28,3.28,0,0,1,.47-1,2.28,2.28,0,0,1,.78-.7,2.13,2.13,0,0,1,1.07-.27,2.08,2.08,0,0,1,.78.15,1.88,1.88,0,0,1,.64.44,2.26,2.26,0,0,1,.44.73,3.08,3.08,0,0,1,.16,1,3.36,3.36,0,0,1-.14,1,4.06,4.06,0,0,1-.35.87,4.83,4.83,0,0,1-.5.77c-.2.24-.4.46-.6.67a8.45,8.45,0,0,0,1.83,2.08l-1.84,1.87a9.09,9.09,0,0,1-1.33-1.44,8.84,8.84,0,0,1-.92-1.57,4.68,4.68,0,0,1-.84.2h-.85a5.36,5.36,0,0,1-1.54-.22A6.53,6.53,0,0,1,203.6,74a6.2,6.2,0,0,1-1.22-1,6.63,6.63,0,0,1-1-1.24,6.88,6.88,0,0,1-.62-1.45,5.93,5.93,0,0,1-.23-1.62,5.6,5.6,0,0,1,.39-2.14A4.27,4.27,0,0,1,202.05,65a4.45,4.45,0,0,1,1.64-.93,6.55,6.55,0,0,1,2.11-.32h1.7V61.13h-8.6V58.7h14.7Z" transform="translate(0 0)"/><path class="cls-3" d="M226.67,61.13h-5.4a9.71,9.71,0,0,1,.64,1.65,6.44,6.44,0,0,1,.23,1.69c0,.2,0,.41,0,.61a1.8,1.8,0,0,1-.1.6h4.9v2.4h-6.43a4.34,4.34,0,0,1-1.5.6,11.75,11.75,0,0,0,.7,1.25,13.17,13.17,0,0,0,1.92,2.33l1.27,1.15-1.77,2a20.94,20.94,0,0,1-1.49-1.49c-.48-.55-.95-1.12-1.4-1.7l-1.3-1.82-1.14-1.8-1-1.66a13,13,0,0,1-.7-1.4l2.38-1.2a4.67,4.67,0,0,0,.86,1.52,1.31,1.31,0,0,0,.94.48.84.84,0,0,0,.49-.15,1.15,1.15,0,0,0,.35-.41,2.72,2.72,0,0,0,.2-.63,5.52,5.52,0,0,0,.06-.81,5.41,5.41,0,0,0-.25-1.65,5.73,5.73,0,0,0-.76-1.55h-5.5v-2.4H226.7Zm12.05,0h-2.35v13.6h-2.8V66.11h-3a6.35,6.35,0,0,0-1.07.09,2,2,0,0,0-.76.27,1.29,1.29,0,0,0-.43.55,2.11,2.11,0,0,0-.15.86,3.83,3.83,0,0,0,.24,1.34,6.18,6.18,0,0,0,.66,1.34,10.55,10.55,0,0,0,1,1.31,16.21,16.21,0,0,0,1.34,1.28l-1.7,1.9a6.11,6.11,0,0,1-.67-.46,11.81,11.81,0,0,1-.91-.82l-1-1.13a8.32,8.32,0,0,1-.91-1.44,8.76,8.76,0,0,1-.67-1.72,7.47,7.47,0,0,1-.26-2,4.82,4.82,0,0,1,.34-1.91,2.74,2.74,0,0,1,1-1.16,3.86,3.86,0,0,1,1.46-.58,11.57,11.57,0,0,1,1.86-.15h3.6V61.12h-10V58.7h15.14Z" transform="translate(0 0)"/><path class="cls-3" d="M245.48,61.13h-2.34v13.6h-2.8V61.13H238V58.7h7.52Z" transform="translate(0 0)"/><path class="cls-3" d="M260.72,61.13h-2.35v13.6h-3v-7.6h-4.65v1.25a3.24,3.24,0,0,1-.11.82.88.88,0,0,1-.3.46,1,1,0,0,1-.57.15,2.25,2.25,0,0,1-.89-.18,3.79,3.79,0,0,1-.82-.49,4.7,4.7,0,0,1-.7-.71,5.25,5.25,0,0,1-.9-1.73,3,3,0,0,1-.13-.84,1.36,1.36,0,0,1,.12-.63.72.72,0,0,1,.35-.34,1.48,1.48,0,0,1,.55-.13h8.08v-3.6H244.73V58.7h16Zm20.08,0h-2.34v13.6h-2.8V70.6a4.91,4.91,0,0,1-2.65.81h-.66a4.29,4.29,0,0,1-.94-.22,5.31,5.31,0,0,1-1-.53,3.4,3.4,0,0,1-1-1,5.38,5.38,0,0,1-.7-1.52,7.83,7.83,0,0,1-.27-2.21v-4.8H266V58.7h14.78Zm-5.14,0h-4.44v4.95a4.68,4.68,0,0,0,.16,1.34,2,2,0,0,0,.42.82,1.35,1.35,0,0,0,.61.41,2.64,2.64,0,0,0,2.2-.29,4,4,0,0,0,1.05-1.15Z" transform="translate(0 0)"/><path class="cls-3" d="M276,59l-.3-.58-1-1.8-.78-1.23a4.23,4.23,0,0,0-.64-.76,1.95,1.95,0,0,0-1.21-.58h-2.92V51.62h2l1.45.06a2.88,2.88,0,0,1,2,1,7.4,7.4,0,0,1,.94,1.28L276.7,56l1.58,3Zm16.42,14.68a7.67,7.67,0,0,1-2,.9,8.22,8.22,0,0,1-2.2.3,6.82,6.82,0,0,1-2.68-.49,6,6,0,0,1-2-1.35,5.83,5.83,0,0,1-1.27-2,7,7,0,0,1-.44-2.44,5.79,5.79,0,0,1,.38-2.14,4.2,4.2,0,0,1,1.07-1.53,4.92,4.92,0,0,1,1.64-.92A6.83,6.83,0,0,1,287,63.7h1.6V61.13h-8.5V58.7h14.7v2.42h-3.4v5H287.6a4.58,4.58,0,0,0-1.22.15,2.32,2.32,0,0,0-.92.48,2,2,0,0,0-.58.83,3.21,3.21,0,0,0-.2,1.23,3.93,3.93,0,0,0,.24,1.44,3.26,3.26,0,0,0,.69,1.09,2.92,2.92,0,0,0,1,.7,3.51,3.51,0,0,0,1.32.24,5,5,0,0,0,1.15-.14,7,7,0,0,0,1.18-.37,11.82,11.82,0,0,0,1.15-.51,8.79,8.79,0,0,0,1-.6Z" transform="translate(0 0)"/><path class="cls-3" d="M291,80.37l-2.9-2.54-2.87,2.54-1.58-1.92,4.45-3.74,4.53,3.93ZM296.66,59l-.3-.58-1-1.8-.77-1.23a5.15,5.15,0,0,0-.64-.76,1.95,1.95,0,0,0-1.21-.58h-2.92V51.62h2l1.46.06a2.88,2.88,0,0,1,2,1,7.4,7.4,0,0,1,.94,1.28L297.4,56,299,59Zm4.86,2.12h-2.34v13.6h-2.8V61.12H294V58.7h7.5Z" transform="translate(0 0)"/><path class="cls-3" d="M308.3,61.13H306v13.6h-2.8V61.13h-2.38V58.7h2.42a6,6,0,0,1-.6-2.47,4.25,4.25,0,0,1,.31-1.62,3.55,3.55,0,0,1,1-1.33,4.67,4.67,0,0,1,1.67-.9,7.61,7.61,0,0,1,2.42-.33,10.11,10.11,0,0,1,3.18.49A11.6,11.6,0,0,1,314,53.91,15.75,15.75,0,0,1,316.55,56a25.79,25.79,0,0,1,2.33,2.78H316.3l-.87-.85-1.1-.95a13.7,13.7,0,0,0-1.32-.94,11.85,11.85,0,0,0-1.48-.82,9.34,9.34,0,0,0-1.61-.57,6.5,6.5,0,0,0-1.7-.22,4.58,4.58,0,0,0-1.33.17,2.63,2.63,0,0,0-.92.49,1.93,1.93,0,0,0-.54.73,2.74,2.74,0,0,0-.17.94,3.21,3.21,0,0,0,.14.92,5.13,5.13,0,0,0,.41,1h2.5Z" transform="translate(0 0)"/><path class="cls-3" d="M320,74.73V65.3h-.52a1.64,1.64,0,0,0-1.33.63,2.31,2.31,0,0,0-.32.65,2.51,2.51,0,0,0-.11.72v.63h-2.5l-.17-1a4.41,4.41,0,0,0-.28-.87,1.79,1.79,0,0,0-.45-.61,1,1,0,0,0-.67-.24,1,1,0,0,0-.56.15,1.33,1.33,0,0,0-.38.44,2.25,2.25,0,0,0-.23.66,4.54,4.54,0,0,0-.07.82,4.75,4.75,0,0,0,.41,2,6.08,6.08,0,0,0,1.1,1.6,8.61,8.61,0,0,0,1.56,1.26,18,18,0,0,0,1.83,1l-1.25,2.1a8.53,8.53,0,0,1-1.06-.5,13.14,13.14,0,0,1-2.81-2,9.54,9.54,0,0,1-1.32-1.52,8.14,8.14,0,0,1-.88-1.89,6.31,6.31,0,0,1-.37-2.15,6,6,0,0,1,.28-1.83,5,5,0,0,1,.8-1.5,3.73,3.73,0,0,1,1.26-1,3.62,3.62,0,0,1,1.65-.37,3.35,3.35,0,0,1,1.09.16,3.43,3.43,0,0,1,.81.41,3.23,3.23,0,0,1,.57.54c.14.17.28.35.4.53a2.86,2.86,0,0,1,.52-.68,2.55,2.55,0,0,1,.65-.48,2.76,2.76,0,0,1,.72-.28,3.82,3.82,0,0,1,.75-.08h.4l.42.06v-1.5h-12.4V58.7h17.6v2.42h-2.35v13.6Z" transform="translate(0 0)"/><path class="cls-3" d="M324.38,61.13V58.7h15.43v2.42h-2.34v13.6h-2.8v-4a5.07,5.07,0,0,1-.54.36,4.9,4.9,0,0,1-.65.32,5.48,5.48,0,0,1-.79.23,6,6,0,0,1-.95.08,5.11,5.11,0,0,1-2.4-.54,5.47,5.47,0,0,1-1.74-1.43,7,7,0,0,1-1.12-2,10.6,10.6,0,0,1-.58-2.28,4.15,4.15,0,0,0,1.15-.3,2.3,2.3,0,0,0,.75-.52,2,2,0,0,0,.41-.68,2.53,2.53,0,0,0,.12-.77,2.84,2.84,0,0,0-.17-1,4.85,4.85,0,0,0-.55-1.09Zm6.76,2.5a3.25,3.25,0,0,1-.54,1.84,3.58,3.58,0,0,1-1.6,1.25,3.87,3.87,0,0,0,.43,1.08,2.79,2.79,0,0,0,.63.74,2.32,2.32,0,0,0,.77.42,2.82,2.82,0,0,0,.87.13,3,3,0,0,0,1.74-.5,3.85,3.85,0,0,0,1.21-1.39V61.12h-4.3a5.57,5.57,0,0,1,.59,1.29,4.21,4.21,0,0,1,.2,1.22Z" transform="translate(0 0)"/><path class="cls-3" d="M355.6,61.13h-2.34v13.6h-2.8V69.16h-4.82v2a1.5,1.5,0,0,1-.09.42.93.93,0,0,1-.24.32.72.72,0,0,1-.45.13,1.73,1.73,0,0,1-.86-.23,4.89,4.89,0,0,1-.94-.61,7.41,7.41,0,0,1-.91-.86,9.08,9.08,0,0,1-.76-1,4.83,4.83,0,0,1-.54-1,2.18,2.18,0,0,1-.21-.87.57.57,0,0,1,0-.26.43.43,0,0,1,.14-.23,1.3,1.3,0,0,1,.31-.16,1.69,1.69,0,0,1,.55-.06h1.18v-5.6h-3.76V58.7h16.53Zm-10,0v5.62h4.82V61.13Zm28.4,9.2a6.7,6.7,0,0,0,1.18-.78,5.76,5.76,0,0,0,.85-.86,3.7,3.7,0,0,0,.5-.89,2.22,2.22,0,0,0,.09-1.44,1.71,1.71,0,0,0-.25-.57,1.57,1.57,0,0,0-.46-.43,1.25,1.25,0,0,0-.68-.17,1.67,1.67,0,0,0-.82.21,3.35,3.35,0,0,0-.74.56,4.75,4.75,0,0,0-.63.79,6.89,6.89,0,0,0-.49.93v7h-2.8V71.2l-.34.2a3.33,3.33,0,0,1-.5.25c-.22.08-.44.14-.67.2a3.84,3.84,0,0,1-.83.09,4.25,4.25,0,0,1-1.82-.41A4.72,4.72,0,0,1,363,68.79a4.9,4.9,0,0,1-.4-2,4.74,4.74,0,0,1,.3-1.67,4.24,4.24,0,0,1,2.19-2.4,4.49,4.49,0,0,1,1.81-.35,4.14,4.14,0,0,1,1.39.23,5.67,5.67,0,0,1,1.49.81v-2.3h-8.84v-2.4h20.67v2.42h-9v2.54a3.59,3.59,0,0,1,.78-.56,3.84,3.84,0,0,1,.78-.34,5.93,5.93,0,0,1,.73-.16h.62a3.67,3.67,0,0,1,1.69.38,3.93,3.93,0,0,1,1.26,1,4.63,4.63,0,0,1,.79,1.38,4.73,4.73,0,0,1,.27,1.58,4.9,4.9,0,0,1-.29,1.65,6.09,6.09,0,0,1-.83,1.55,7.45,7.45,0,0,1-1.3,1.39,11,11,0,0,1-1.7,1.18Zm-4.2-4.24-.46-.44a3.43,3.43,0,0,0-.54-.4,3,3,0,0,0-.63-.29,2.13,2.13,0,0,0-.75-.11,1.86,1.86,0,0,0-1.89,1.31,2.45,2.45,0,0,0-.13.81,2.68,2.68,0,0,0,.16.93,2.44,2.44,0,0,0,.47.75,2,2,0,0,0,.73.5,2.29,2.29,0,0,0,1,.19,2,2,0,0,0,1-.23,1.79,1.79,0,0,0,.64-.58,2.58,2.58,0,0,0,.34-.8,4.28,4.28,0,0,0,.09-.87Z" transform="translate(0 0)"/><path class="cls-3" d="M381.4,51.74a2.19,2.19,0,0,0,.13.48c.07.23.15.45.24.67a5.22,5.22,0,0,0,.39.74,3,3,0,0,0,.56.68,2.63,2.63,0,0,0,1.78.7,2.47,2.47,0,0,0,1-.19,2.66,2.66,0,0,0,.77-.47,3.21,3.21,0,0,0,.57-.65,5.24,5.24,0,0,0,.41-.73,7.07,7.07,0,0,0,.27-.69l.16-.55,2.3.8-.3,1a6.34,6.34,0,0,1-1.18,2.07,5,5,0,0,1-1,.89,4.53,4.53,0,0,1-1.31.63,5.21,5.21,0,0,1-1.66.24,5.93,5.93,0,0,1-2-.35,4.69,4.69,0,0,1-1.6-1,5.42,5.42,0,0,1-1.17-1.52,8.29,8.29,0,0,1-.74-2Zm7,9.4H386v13.6h-2.8V61.14h-2.38V58.7h7.52Z" transform="translate(0 0)"/><path class="cls-3" d="M402.38,61.13H400v13.6h-2.8V70.6h-.05a4.86,4.86,0,0,1-2.64.81h-.67a4.84,4.84,0,0,1-.93-.22,4.79,4.79,0,0,1-1-.53,3.62,3.62,0,0,1-1-1,5,5,0,0,1-.7-1.52,7.84,7.84,0,0,1-.28-2.21v-4.8H387.6V58.7h14.78Zm-5.14,0H392.8v4.95a5.06,5.06,0,0,0,.15,1.34,2.28,2.28,0,0,0,.42.82,1.44,1.44,0,0,0,.62.41,2.4,2.4,0,0,0,.75.12,2.44,2.44,0,0,0,1.44-.41,3.88,3.88,0,0,0,1.06-1.15Z" transform="translate(0 0)"/><path class="cls-3" d="M403.66,53.6a3,3,0,0,1,1.15-1.7,3.43,3.43,0,0,1,2.06-.58,4.37,4.37,0,0,1,1.85.4A4.24,4.24,0,0,1,410.24,53l-1.8,1.6a2.26,2.26,0,0,0-.74-.67,1.78,1.78,0,0,0-.85-.21,1.55,1.55,0,0,0-.64.12,1.1,1.1,0,0,0-.42.35,1.5,1.5,0,0,0-.24.53,2.82,2.82,0,0,0-.08.65,4.79,4.79,0,0,0,.11,1,7,7,0,0,0,.26,1q.17.48.36.93l.4.77h-2.3l-.3-.58-1-1.78q-.36-.63-.78-1.23a4.76,4.76,0,0,0-.64-.77,2.11,2.11,0,0,0-.58-.41,1.85,1.85,0,0,0-.61-.17h-2.93v-2.5h3.37a3.48,3.48,0,0,1,1,.24,2.76,2.76,0,0,1,.87.6,6.25,6.25,0,0,1,.88,1.1Zm5.5,7.52h-2.34v13.6H404V61.12h-2.37V58.7h7.52Z" transform="translate(0 0)"/><path class="cls-3" d="M420.85,61.13h-3.6a10.67,10.67,0,0,1,.65,1.65,6.05,6.05,0,0,1,.24,1.69,5.22,5.22,0,0,1-.21,1.47,3.7,3.7,0,0,1-1.77,2.18,5,5,0,0,1-1.63.56l.92,1.25,1,1.18,1.1,1.15,1.26,1.15-1.77,2A17.29,17.29,0,0,1,415.37,74c-.53-.53-1-1.1-1.5-1.67s-.9-1.17-1.33-1.76l-1.14-1.74-.94-1.62-.7-1.38,2.37-1.2a3.66,3.66,0,0,0,.79,1.36,1.23,1.23,0,0,0,.88.4,1.26,1.26,0,0,0,.57-.14,1.33,1.33,0,0,0,.47-.41,2.1,2.1,0,0,0,.33-.67,2.81,2.81,0,0,0,.12-.91,5.39,5.39,0,0,0-.25-1.54,5.47,5.47,0,0,0-.76-1.53H408.4V58.7h12.45Z" transform="translate(0 0)"/><path class="cls-3" d="M413.93,59l-.3-.58-1-1.8-.77-1.23a4.23,4.23,0,0,0-.64-.76,1.95,1.95,0,0,0-1.21-.58h-2.92V51.62h2l1.46.06a2.88,2.88,0,0,1,2,1,7.4,7.4,0,0,1,.94,1.28L414.67,56l1.58,3Zm9.17,2.13h-3V58.7h19.43v2.42h-2.34v13.6h-2.8V61.12h-3.14a3.67,3.67,0,0,1,.67,1.32,4.82,4.82,0,0,1,0,3,5.86,5.86,0,0,1-.7,1.42,6.9,6.9,0,0,1-1.09,1.26,8.11,8.11,0,0,1-1.4,1,10.57,10.57,0,0,1,1.07.83l1.13,1.1L432,72.32l.94,1.2-2,1.58L430,73.94l-1.13-1.28-1.28-1.25a15.83,15.83,0,0,0-1.36-1.09,5,5,0,0,1-1.74.32,3.44,3.44,0,0,1-1.19-.18,2.87,2.87,0,0,1-.87-.49,2.19,2.19,0,0,1-.53-.68,1.79,1.79,0,0,1-.17-.75,1.42,1.42,0,0,1,.14-.64,1.68,1.68,0,0,1,.41-.54A2,2,0,0,1,423,67a2.82,2.82,0,0,1,1-.15,5.33,5.33,0,0,1,1.32.19,5.59,5.59,0,0,1,1.25.55l.37-.14a4,4,0,0,0,.57-.32,5.34,5.34,0,0,0,.65-.5,4.43,4.43,0,0,0,.61-.69,3.82,3.82,0,0,0,.46-.9,3.65,3.65,0,0,0,.17-1.13,3.37,3.37,0,0,0-.15-1,2.79,2.79,0,0,0-.44-.9,2.38,2.38,0,0,0-.73-.61,2,2,0,0,0-1-.24,1.62,1.62,0,0,0-.69.12,1.25,1.25,0,0,0-.44.31,1,1,0,0,0-.23.43,1.59,1.59,0,0,0-.07.48,1.22,1.22,0,0,0,.47,1,2.27,2.27,0,0,0,1.39.36v2.43h-.22a5.61,5.61,0,0,1-1.86-.29,4.22,4.22,0,0,1-1.4-.79,3.6,3.6,0,0,1-.89-1.16,3.54,3.54,0,0,1-.31-1.43,4.34,4.34,0,0,1,.32-1.55Z" transform="translate(0 0)"/><path class="cls-3" d="M454.75,61.13h-2.34v13.6h-3v-7.6h-4.65v1.25a3.78,3.78,0,0,1-.12.82.88.88,0,0,1-.3.46,1,1,0,0,1-.57.15,2.25,2.25,0,0,1-.89-.18,3.37,3.37,0,0,1-.81-.49,4.27,4.27,0,0,1-.7-.71,5.28,5.28,0,0,1-.55-.84,4.61,4.61,0,0,1-.36-.89,3,3,0,0,1-.13-.84,1.36,1.36,0,0,1,.12-.63.77.77,0,0,1,.35-.34,1.48,1.48,0,0,1,.55-.13h8.08v-3.6H438.76V58.7h16Zm12.85,0h-2.35v13.6h-2.8V61.13h-2.37V58.7h2.4a6,6,0,0,1-.6-2.47,4.25,4.25,0,0,1,.31-1.62,3.55,3.55,0,0,1,1-1.33,4.67,4.67,0,0,1,1.67-.9,7.61,7.61,0,0,1,2.42-.33,10.17,10.17,0,0,1,3.19.49,12,12,0,0,1,2.84,1.37A15.33,15.33,0,0,1,475.86,56a27.09,27.09,0,0,1,2.34,2.78h-2.58L474.7,58l-1.1-1a13.7,13.7,0,0,0-1.32-.94,11.73,11.73,0,0,0-1.47-.82,9.34,9.34,0,0,0-1.61-.57,6.58,6.58,0,0,0-1.71-.22,4.51,4.51,0,0,0-1.32.17,2.68,2.68,0,0,0-.93.49,1.75,1.75,0,0,0-.53.73,2.53,2.53,0,0,0-.18.94,3.21,3.21,0,0,0,.14.92,5.13,5.13,0,0,0,.41,1h2.52Z" transform="translate(0 0)"/><path class="cls-3" d="M479.28,74.73V65.3h-.5a1.67,1.67,0,0,0-.79.18,1.47,1.47,0,0,0-.54.45,2.1,2.1,0,0,0-.33.65,2.5,2.5,0,0,0-.1.72,1.61,1.61,0,0,0,0,.31v.32h-2.5a5.1,5.1,0,0,0-.17-1,4.41,4.41,0,0,0-.28-.87,1.93,1.93,0,0,0-.45-.61,1.07,1.07,0,0,0-1.22-.09,1.18,1.18,0,0,0-.39.44,2.25,2.25,0,0,0-.23.66,5.67,5.67,0,0,0-.07.82,4.61,4.61,0,0,0,.42,2,5.82,5.82,0,0,0,1.09,1.6,8.68,8.68,0,0,0,1.57,1.26,17.85,17.85,0,0,0,1.82,1l-1.24,2.1a8,8,0,0,1-1.07-.5,11.91,11.91,0,0,1-1.36-.85,15.13,15.13,0,0,1-1.45-1.2,9.54,9.54,0,0,1-1.32-1.52,8.47,8.47,0,0,1-1-1.85,6.3,6.3,0,0,1-.36-2.15,5.69,5.69,0,0,1,.28-1.83,4.43,4.43,0,0,1,.8-1.5,3.79,3.79,0,0,1,1.25-1,3.62,3.62,0,0,1,1.65-.37,3.35,3.35,0,0,1,1.09.16,3.43,3.43,0,0,1,.81.41,2.44,2.44,0,0,1,.57.54c.14.17.28.35.4.53h0a2.86,2.86,0,0,1,.52-.68,2.81,2.81,0,0,1,.65-.48,2.69,2.69,0,0,1,.73-.28,3.82,3.82,0,0,1,.75-.08,2.54,2.54,0,0,1,.39,0,1,1,0,0,1,.42.06v-1.5H466.83V58.7h17.6v2.42h-2.34v13.6Z" transform="translate(0 0)"/><path class="cls-3" d="M491.2,61.13h-2.35v13.6h-2.8V61.13h-2.37V58.7h2.4a6,6,0,0,1-.6-2.47,4.53,4.53,0,0,1,.31-1.62,3.55,3.55,0,0,1,1-1.33,4.67,4.67,0,0,1,1.67-.9,7.61,7.61,0,0,1,2.42-.33,10.17,10.17,0,0,1,3.19.49,12,12,0,0,1,2.84,1.37A15.33,15.33,0,0,1,499.46,56a27.09,27.09,0,0,1,2.34,2.78h-2.58l-.88-.85-1.1-.95a13.7,13.7,0,0,0-1.32-.94,11.73,11.73,0,0,0-1.47-.82,9.34,9.34,0,0,0-1.61-.57,6.58,6.58,0,0,0-1.71-.22,4.51,4.51,0,0,0-1.32.17,2.68,2.68,0,0,0-.93.49,1.75,1.75,0,0,0-.53.73,2.53,2.53,0,0,0-.18.94,3.21,3.21,0,0,0,.14.92,5.13,5.13,0,0,0,.41,1h2.52Z" transform="translate(0 0)"/><path class="cls-3" d="M507,61.13h-2.35v13.6h-2.8V69.16H497v2a1.23,1.23,0,0,1-.1.42.7.7,0,0,1-.24.32.66.66,0,0,1-.45.13,2,2,0,0,1-.86-.23,4.39,4.39,0,0,1-.93-.61,7.41,7.41,0,0,1-.91-.86,9.18,9.18,0,0,1-.77-1,6.43,6.43,0,0,1-.54-1,2.35,2.35,0,0,1-.2-.87,1.13,1.13,0,0,1,0-.26.44.44,0,0,1,.15-.23,1.14,1.14,0,0,1,.31-.16,1.66,1.66,0,0,1,.54-.06h1.18v-5.6h-3.76V58.7H507Zm-10,0v5.62h4.82V61.13Z" transform="translate(0 0)"/><path class="cls-3" d="M518.58,73.68a7.67,7.67,0,0,1-2,.9,8.22,8.22,0,0,1-2.2.3,7,7,0,0,1-2.68-.49,5.9,5.9,0,0,1-3.29-3.34,7,7,0,0,1-.44-2.44,5.79,5.79,0,0,1,.38-2.14,4.2,4.2,0,0,1,1.07-1.53A4.87,4.87,0,0,1,511,64a6.52,6.52,0,0,1,2.1-.31h1.6V61.13h-8.5V58.7h14.7v2.42h-3.38v5h-3.8a4.58,4.58,0,0,0-1.22.15,2.32,2.32,0,0,0-.92.48,2,2,0,0,0-.58.83,3.21,3.21,0,0,0-.2,1.23,3.94,3.94,0,0,0,.25,1.44,3.09,3.09,0,0,0,.68,1.09,2.92,2.92,0,0,0,1,.7,3.77,3.77,0,0,0,1.33.24,4.87,4.87,0,0,0,1.14-.14,7.13,7.13,0,0,0,1.19-.37l1.15-.5a7.72,7.72,0,0,0,1-.59Z" transform="translate(0 0)"/><path class="cls-3" d="M515,59l-.3-.58-1-1.8-.77-1.23a5.15,5.15,0,0,0-.64-.76,2,2,0,0,0-.59-.41,2,2,0,0,0-.62-.17h-2.93V51.62h2l1.45.06a3.13,3.13,0,0,1,1.09.28,3,3,0,0,1,.92.7,7.73,7.73,0,0,1,1,1.28L515.77,56l1.58,3Zm22.24,2.13h-3.38v3.64h-5.4a1.31,1.31,0,0,0-.75.16.64.64,0,0,0-.2.52,1.34,1.34,0,0,0,.06.4,1.16,1.16,0,0,0,.22.39,1.25,1.25,0,0,0,.44.31,1.62,1.62,0,0,0,.72.13h3a3.51,3.51,0,0,1,1.5.28,2.62,2.62,0,0,1,1,.74,3.12,3.12,0,0,1,.53,1.12,5.6,5.6,0,0,1,.16,1.35,5.36,5.36,0,0,1-.34,1.94,4.37,4.37,0,0,1-1,1.6,4.82,4.82,0,0,1-1.7,1.11,6.44,6.44,0,0,1-2.38.4,7.67,7.67,0,0,1-2.76-.51,8.71,8.71,0,0,1-2.41-1.41,9.63,9.63,0,0,1-1.93-2.15,10.26,10.26,0,0,1-1.29-2.74l2.4-1a9.39,9.39,0,0,0,.95,2A8.72,8.72,0,0,0,526,71.06a6.82,6.82,0,0,0,1.7,1.16,4.77,4.77,0,0,0,2,.43,3.06,3.06,0,0,0,1.12-.18,2.15,2.15,0,0,0,.81-.48,2.1,2.1,0,0,0,.5-.75,2.63,2.63,0,0,0,.17-1,1.91,1.91,0,0,0-.08-.63.78.78,0,0,0-.25-.39,1.06,1.06,0,0,0-.45-.19,3.31,3.31,0,0,0-.63,0h-3a2.59,2.59,0,0,1-1.43-.39,3.66,3.66,0,0,1-1-1,4.58,4.58,0,0,1-.58-1.32,5.33,5.33,0,0,1-.18-1.38,3.18,3.18,0,0,1,.19-1.18,1.85,1.85,0,0,1,.55-.75,2.18,2.18,0,0,1,.84-.4,4.81,4.81,0,0,1,1.07-.12h3.75V61.13H520.16V58.7h17.07ZM208,76.55a7.1,7.1,0,0,1,1.66-.69,6.34,6.34,0,0,1,1.73-.24,5.24,5.24,0,0,1,1.42.2,3.63,3.63,0,0,1,1.2.59,2.83,2.83,0,0,1,.82,1,3,3,0,0,1,.31,1.41,3,3,0,0,1-.43,1.66,3.54,3.54,0,0,1-1.17,1.14,5.4,5.4,0,0,1-1.68.66,9.64,9.64,0,0,1-2,.21,10.41,10.41,0,0,1-2.61-.3,11.78,11.78,0,0,1-2.16-.76,10,10,0,0,1-1.7-1,13.22,13.22,0,0,1-1.24-1L204,77.2a13.6,13.6,0,0,0,1.29,1.23,9.23,9.23,0,0,0,1.34.9,6.5,6.5,0,0,0,1.49.55,7.53,7.53,0,0,0,1.71.19,6.36,6.36,0,0,0,.87-.06,2.45,2.45,0,0,0,.75-.2,1.42,1.42,0,0,0,.51-.4,1,1,0,0,0,.2-.66,1,1,0,0,0-.1-.48.93.93,0,0,0-.26-.33,1,1,0,0,0-.39-.19,2,2,0,0,0-.49-.06,2.86,2.86,0,0,0-.58.06,3.7,3.7,0,0,0-.57.16l-.5.2a2.77,2.77,0,0,0-.37.22ZM57.63,19.8H154.7V140.2H57.63Z" transform="translate(0 0)"/><path class="cls-4" d="M101.07,67.17H99.5V71h1.57v3.83H95.65V71h1.57V67.18H88.67V71h1.57V82.48H88.67v3.83h8.55V82.48H95.65V78.66h5.42v3.82H99.5v3.83h8.55V82.48h-1.57V71h1.57V67.18h-7Zm19,0h-10.4V71h1.4V82.48h-1.4V86.3h8.56V82.47h-1.75V78.65h3.6a5.73,5.73,0,0,0,0-11.46h0Zm-1,7.65h-2.63V71h2.63a1.92,1.92,0,0,1,0,3.83Z" transform="translate(0 0)"/><path class="cls-5" d="M65.33,29.25H147V45H65.33Z" transform="translate(0 0)"/><path class="cls-3" d="M72.66,35.17h-.92v5.36h-1.1V35.17h-.93v-1h1a2.45,2.45,0,0,1-.24-1,1.73,1.73,0,0,1,.12-.64A1.66,1.66,0,0,1,71,32a1.83,1.83,0,0,1,.66-.35,3.06,3.06,0,0,1,1-.13,4.14,4.14,0,0,1,1.26.19,4.56,4.56,0,0,1,1.11.54,5.71,5.71,0,0,1,1,.84,10.61,10.61,0,0,1,.92,1.09h-1l-.34-.33-.57-.3-.52-.37a4.71,4.71,0,0,0-.58-.32,3.35,3.35,0,0,0-.63-.22,2.59,2.59,0,0,0-.68-.09,1.81,1.81,0,0,0-.52.07,1,1,0,0,0-.36.19.86.86,0,0,0-.21.29.94.94,0,0,0-.07.37,2.16,2.16,0,0,0,0,.36,1.71,1.71,0,0,0,.17.39h1Z" transform="translate(0 0)"/><path class="cls-3" d="M75.63,39.23a1.58,1.58,0,0,0,.46-.25.41.41,0,0,0,.15-.33.74.74,0,0,0,0-.21.44.44,0,0,0-.16-.17.66.66,0,0,0-.27-.12,1.41,1.41,0,0,0-.41,0H75a1.4,1.4,0,0,0-.34.13.74.74,0,0,0-.33.67,1.33,1.33,0,0,0,.1.48,2.19,2.19,0,0,0,.26.41,3.06,3.06,0,0,0,.37.35l.43.3.45.23.4.17-.42.9q-.33-.13-.66-.3l-.62-.35a3.74,3.74,0,0,1-.55-.41,3,3,0,0,1-.45-.49,2.35,2.35,0,0,1-.29-.57,2.24,2.24,0,0,1-.1-.68,1.86,1.86,0,0,1,.1-.66,1.46,1.46,0,0,1,.3-.51,2.54,2.54,0,0,1-.16-.28,1.51,1.51,0,0,1-.13-.29,1,1,0,0,1-.09-.58,1,1,0,0,1,.06-.34.7.7,0,0,1,.19-.29.94.94,0,0,1,.35-.2,1.47,1.47,0,0,1,.51-.08h1.73V35.2H72.35v-1h5.78v1h-1v1.46H74.51l-.1.05a.2.2,0,0,0-.08.1.43.43,0,0,0,0,.16.48.48,0,0,0,.1.33,3,3,0,0,1,.94-.15,3.2,3.2,0,0,1,.75.09,2.09,2.09,0,0,1,.63.28,1.32,1.32,0,0,1,.59,1.16,1.62,1.62,0,0,1-.11.58,1.57,1.57,0,0,1-.72.72,4,4,0,0,1-.47.22Z" transform="translate(0 0)"/><path class="cls-3" d="M81.8,35.17h-4v-1h4Zm.54,2.36H80.2V38a.91.91,0,0,1,0,.33.34.34,0,0,1-.11.18.46.46,0,0,1-.23.06.85.85,0,0,1-.35-.08,1.29,1.29,0,0,1-.32-.19,1.44,1.44,0,0,1-.27-.28,1.46,1.46,0,0,1-.22-.33,1.51,1.51,0,0,1-.14-.35,1.82,1.82,0,0,1,0-.33.53.53,0,0,1,0-.25.29.29,0,0,1,.14-.13.37.37,0,0,1,.21,0h3.5Z" transform="translate(0 0)"/><path class="cls-3" d="M84.64,40.43a3.85,3.85,0,0,0,.36.62l.2.22a2,2,0,0,1,.49-.07h.23l.34-.34a3.54,3.54,0,0,1-.72-.82l.23-.27a1.21,1.21,0,0,0,.2-.3,2,2,0,0,0,.14-.34,1.58,1.58,0,0,0,0-.38,1.32,1.32,0,0,0-.06-.39,1.05,1.05,0,0,0-.17-.29.85.85,0,0,0-.25-.17.9.9,0,0,0-1,.32,1.47,1.47,0,0,0-.19.4,1.84,1.84,0,0,0-.06.47,2.16,2.16,0,0,0,0,.36l-.18.06H84a1.31,1.31,0,0,1-.52-.11,1.17,1.17,0,0,1-.4-.3,1.5,1.5,0,0,1-.26-.44,1.66,1.66,0,0,1-.1-.54.91.91,0,0,1,.31-.76,1.27,1.27,0,0,1,.84-.26h1.56v-2h1.3v-1H81v1h3.4v1h-.67a2.62,2.62,0,0,0-.83.13,1.69,1.69,0,0,0-.65.37,1.59,1.59,0,0,0-.42.61,2.31,2.31,0,0,0-.06,1.47,2.48,2.48,0,0,0,.25.58,2.19,2.19,0,0,0,.37.48,2.23,2.23,0,0,0,.48.38,3,3,0,0,0,.56.24,2.1,2.1,0,0,0,.61.09h.33a1.32,1.32,0,0,0,.28,0Z" transform="translate(0 0)"/><path class="cls-3" d="M84.66,40.86a3,3,0,0,1,.59-.24,2.1,2.1,0,0,1,.61-.09,2.24,2.24,0,0,1,.51.07,1.65,1.65,0,0,1,.42.21,1,1,0,0,1,.3.36,1.25,1.25,0,0,1,.11.5,1,1,0,0,1-.16.59,1.21,1.21,0,0,1-.41.4,1.84,1.84,0,0,1-.6.24,3.35,3.35,0,0,1-.71.07,4.05,4.05,0,0,1-.92-.1,5.41,5.41,0,0,1-.77-.27,3.76,3.76,0,0,1-.61-.36l-.44-.38.65-.77c.15.15.3.3.46.44a3.08,3.08,0,0,0,.48.32,2.58,2.58,0,0,0,.53.19,2.48,2.48,0,0,0,.61.07h.3a.77.77,0,0,0,.26-.07.52.52,0,0,0,.19-.14.43.43,0,0,0,0-.41.27.27,0,0,0-.09-.12.35.35,0,0,0-.14-.06.49.49,0,0,0-.17,0,.74.74,0,0,0-.21,0l-.2,0-.18.08L85,41.5Zm7.24-5.7H89.76a4,4,0,0,1,.26.65,2.44,2.44,0,0,1,.09.66,1,1,0,0,1,0,.24V37H92v.94H89.44a1.6,1.6,0,0,1-.59.24,4.67,4.67,0,0,0,.27.49,5,5,0,0,0,.34.46,6,6,0,0,0,.42.46c.15.15.32.3.5.45l-.7.77a5.29,5.29,0,0,1-.58-.58l-.56-.68-.5-.7-.45-.7-.37-.65-.28-.55.93-.48a2,2,0,0,0,.35.6.54.54,0,0,0,.37.19.33.33,0,0,0,.19-.06.44.44,0,0,0,.13-.14.75.75,0,0,0,.08-.24,1.71,1.71,0,0,0,0-.32,2.38,2.38,0,0,0-.1-.65,2.31,2.31,0,0,0-.3-.61H86.45v-1H91.9Zm4.74,0h-.93v5.36h-1.1v-3.4H93a.65.65,0,0,0-.29.11.46.46,0,0,0-.18.21,1,1,0,0,0,0,.34,1.6,1.6,0,0,0,.09.53,2.11,2.11,0,0,0,.26.52,3.48,3.48,0,0,0,.41.52,4.1,4.1,0,0,0,.52.5l-.67.75a1.51,1.51,0,0,1-.26-.18,3.73,3.73,0,0,1-.36-.32l-.4-.45a5.35,5.35,0,0,1-.36-.56,5.6,5.6,0,0,1-.26-.68,2.93,2.93,0,0,1-.1-.78,1.75,1.75,0,0,1,.13-.75,1.06,1.06,0,0,1,.38-.46,1.67,1.67,0,0,1,.57-.23,4.49,4.49,0,0,1,.73-.06H94.6v-1H90.67v-1h6Z" transform="translate(0 0)"/><path class="cls-3" d="M99.3,35.17h-.92v5.35h-1.1V35.17h-.93v-1h3Z" transform="translate(0 0)"/><path class="cls-3" d="M105.28,35.17h-.92v5.35h-1.18v-3h-1.83V38a1.82,1.82,0,0,1,0,.33.32.32,0,0,1-.12.18.33.33,0,0,1-.22.06.85.85,0,0,1-.35-.08,1.29,1.29,0,0,1-.32-.19A1.72,1.72,0,0,1,100,38a1.46,1.46,0,0,1-.22-.33,1.51,1.51,0,0,1-.14-.35,1.12,1.12,0,0,1,0-.32.43.43,0,0,1,.05-.25.27.27,0,0,1,.13-.13.41.41,0,0,1,.22,0h3.18V35.17H99v-1h6.3Zm7.92,0h-.93v5.35h-1.1V38.9a1.88,1.88,0,0,1-1,.32h-.26a1.18,1.18,0,0,1-.37-.09,1.87,1.87,0,0,1-.4-.2,1.37,1.37,0,0,1-.38-.38,2.17,2.17,0,0,1-.27-.6,3.19,3.19,0,0,1-.11-.87v-1.9h-.94v-1h5.82Zm-2,0h-1.75v2a2.33,2.33,0,0,0,.06.53,1.23,1.23,0,0,0,.17.32.56.56,0,0,0,.24.16.76.76,0,0,0,.3,0,1,1,0,0,0,.57-.16,1.39,1.39,0,0,0,.41-.46Z" transform="translate(0 0)"/><path class="cls-3" d="M111.3,34.35l-.12-.23-.4-.7a3.94,3.94,0,0,0-.31-.48,1.81,1.81,0,0,0-.25-.3.63.63,0,0,0-.23-.16.67.67,0,0,0-.24-.07H108.6v-.95H110a1.62,1.62,0,0,1,.43.12,1.41,1.41,0,0,1,.37.27,3.59,3.59,0,0,1,.37.5l.46.8.62,1.2Zm6.46,5.75a2.71,2.71,0,0,1-.8.35,3.2,3.2,0,0,1-.87.12,2.65,2.65,0,0,1-1-.19,2.38,2.38,0,0,1-.8-.53,2.71,2.71,0,0,1-.5-.79,2.63,2.63,0,0,1-.17-1,2,2,0,0,1,.15-.84,1.67,1.67,0,0,1,.42-.6,1.81,1.81,0,0,1,.65-.36,2.62,2.62,0,0,1,.83-.13h.63v-1h-3.4v-1h5.78v1h-1.33v2h-1.5a2,2,0,0,0-.48.06.84.84,0,0,0-.36.19.75.75,0,0,0-.23.32,1.68,1.68,0,0,0-.07.5,1.3,1.3,0,0,0,.09.55,1.16,1.16,0,0,0,.27.44,1.56,1.56,0,0,0,.4.27,1.54,1.54,0,0,0,.52.09,3.38,3.38,0,0,0,.45,0,3.68,3.68,0,0,0,.47-.15,2.28,2.28,0,0,0,.45-.2,3.3,3.3,0,0,0,.41-.23Z" transform="translate(0 0)"/><path class="cls-3" d="M117.23,42.75l-1.14-1-1.13,1-.62-.75,1.75-1.48,1.78,1.55Zm2.2-8.4-.12-.23-.4-.7q-.16-.29-.3-.48a1.81,1.81,0,0,0-.25-.3,1.19,1.19,0,0,0-.23-.16.72.72,0,0,0-.25-.07h-1.15v-.95h1.36a1.62,1.62,0,0,1,.43.12,1.36,1.36,0,0,1,.36.27,3.59,3.59,0,0,1,.37.5l.46.8.62,1.2Zm1.92.83h-.93v5.35h-1.1V35.18h-.93v-1h3Z" transform="translate(0 0)"/><path class="cls-3" d="M124,35.18h-.92v5.36H122V35.18h-.93v-1h1a2.29,2.29,0,0,1-.23-1,1.73,1.73,0,0,1,.12-.64,1.33,1.33,0,0,1,.38-.53,1.78,1.78,0,0,1,.65-.35,3.07,3.07,0,0,1,1-.13,4.14,4.14,0,0,1,1.26.19,4.82,4.82,0,0,1,1.12.54,5.71,5.71,0,0,1,1,.84,9.75,9.75,0,0,1,.92,1.1h-1l-.35-.34-.44-.38-.5-.37a4.23,4.23,0,0,0-.6-.32,3.35,3.35,0,0,0-.63-.22,2.52,2.52,0,0,0-.67-.09,1.81,1.81,0,0,0-.52.07,1.3,1.3,0,0,0-.37.19A.86.86,0,0,0,123,33a.94.94,0,0,0-.07.37,1.13,1.13,0,0,0,.06.36,1.68,1.68,0,0,0,.16.39h1Z" transform="translate(0 0)"/><path class="cls-3" d="M128.62,40.53v-3.7h-.2a.63.63,0,0,0-.52.25.85.85,0,0,0-.13.25,1.41,1.41,0,0,0,0,.29v.25h-1a1,1,0,0,0-.06-.4,1.93,1.93,0,0,0-.11-.34.72.72,0,0,0-.18-.25.41.41,0,0,0-.26-.09.43.43,0,0,0-.22.06.5.5,0,0,0-.15.17.62.62,0,0,0-.09.26,2.85,2.85,0,0,0,.16,1.12,2.43,2.43,0,0,0,.43.63,3.26,3.26,0,0,0,.62.49,5,5,0,0,0,.72.39l-.5.84-.42-.2a3.77,3.77,0,0,1-.54-.34,5.08,5.08,0,0,1-.57-.47,3.73,3.73,0,0,1-.52-.6,3.06,3.06,0,0,1-.37-.72,2.45,2.45,0,0,1-.15-.85,2.51,2.51,0,0,1,.11-.72,2,2,0,0,1,.32-.59,1.46,1.46,0,0,1,.49-.4,1.34,1.34,0,0,1,.65-.14,1.54,1.54,0,0,1,.43.06,1.07,1.07,0,0,1,.32.16,1.51,1.51,0,0,1,.23.21l.15.2a1.09,1.09,0,0,1,.21-.27.92.92,0,0,1,.25-.19,1,1,0,0,1,.29-.11h.61v-.6h-4.9v-1h6.93v1h-.92v5.35Z" transform="translate(0 0)"/><path class="cls-3" d="M130.34,35.17v-1h6.07v1h-.92v5.35h-1.1V39l-.22.14-.25.13-.3.08a1.21,1.21,0,0,1-.38,0,1.91,1.91,0,0,1-.94-.22,2.21,2.21,0,0,1-.69-.56,2.8,2.8,0,0,1-.44-.79,4,4,0,0,1-.23-.89,1.83,1.83,0,0,0,.46-.12.86.86,0,0,0,.29-.21.63.63,0,0,0,.16-.26.81.81,0,0,0,0-.31,1,1,0,0,0-.07-.38,1.72,1.72,0,0,0-.21-.43Zm2.66,1a1.29,1.29,0,0,1-.21.72,1.36,1.36,0,0,1-.61.5,1.06,1.06,0,0,0,.15.42,1.16,1.16,0,0,0,.25.29.87.87,0,0,0,.3.16,1,1,0,0,0,.35.06,1.26,1.26,0,0,0,.68-.2,1.5,1.5,0,0,0,.48-.55v-2.4h-1.7a2.38,2.38,0,0,1,.24.51,1.59,1.59,0,0,1,.07.48Z" transform="translate(0 0)"/><path class="cls-3" d="M142.64,35.18h-.93v5.35h-1.1v-2.2h-1.9v.78a.49.49,0,0,1,0,.17.41.41,0,0,1-.1.13.28.28,0,0,1-.18,0,.63.63,0,0,1-.33-.09,2.35,2.35,0,0,1-.37-.24,2.9,2.9,0,0,1-.36-.34c-.11-.13-.21-.27-.3-.4a3,3,0,0,1-.21-.4.81.81,0,0,1-.08-.34v-.1a.15.15,0,0,1,.06-.09.23.23,0,0,1,.12-.06h.68v-2.2h-1.48v-1h6.5Zm-3.93,0v2.2h1.9v-2.2Z" transform="translate(0 0)"/><path class="cls-6" d="M59.5,21.66V138.34h93.33V21.66ZM151,136.46H61.36V23.53H151ZM73.14,94.3l2.23-.08a31.05,31.05,0,0,1,30,23.25,32,32,0,0,1,.76,4,32.76,32.76,0,0,1,.71-3.81A31,31,0,0,1,137,94.23l2.22.08,1.86.2.12-2.83a35,35,0,1,0-70,0l.1,2.83,1.83-.2Zm33-35.78a33.2,33.2,0,0,1,32.7,27.78h-.5a33.14,33.14,0,0,0-32.2,25.31A33.13,33.13,0,0,0,74,86.3h-.5a33.2,33.2,0,0,1,32.67-27.77Zm-1.6,66.24A29.18,29.18,0,0,0,75.37,96.1l-2,.07a11.5,11.5,0,0,0-1.86.2,35,35,0,0,0,33,30.27v-1.87ZM75,102.9a23.49,23.49,0,0,1,4.8-.5,23.11,23.11,0,0,1,23.08,22.23A33.23,33.23,0,0,1,75,102.9Zm64-6.73c-.67,0-1.34-.07-2-.07a29.17,29.17,0,0,0-29.16,28.66v1.87a35,35,0,0,0,33-30.27l-1.86-.2Zm-29.53,28.47a23.11,23.11,0,0,1,27.86-21.72,33.22,33.22,0,0,1-27.87,21.72Z" transform="translate(0 0)"/></svg>