<svg xmlns="http://www.w3.org/2000/svg" xmlns:xlink="http://www.w3.org/1999/xlink" viewBox="0 0 799.31 160"><defs><linearGradient id="A" y1="80" x2="787.23" y2="80" gradientUnits="userSpaceOnUse"><stop offset="0" stop-color="#53528a"/><stop offset="1" stop-color="#415799"/></linearGradient><path id="B" d="M192.63 89.34h-3.4v-3.08h3.4zm-3.4 1.53h3.4v12.77h-3.4z"/><path id="C" d="M353.2 102.08a7.05 7.05 0 0 1-9.82 0 8 8 0 0 1 0-9.6 7 7 0 0 1 9.82 0 7.92 7.92 0 0 1 0 9.6zm-2.67-1.85a5.92 5.92 0 0 0 0-5.91 2.65 2.65 0 0 0-2.25-1 2.68 2.68 0 0 0-2.26 1 5.92 5.92 0 0 0 0 5.91 2.66 2.66 0 0 0 2.26 1 2.62 2.62 0 0 0 2.25-1z"/><path id="D" d="M447.87,102.08a7.05,7.05,0,0,1-9.82,0,7.92,7.92,0,0,1,0-9.6,7,7,0,0,1,9.82,0,8,8,0,0,1,0,9.6Zm-2.68-1.85a5.92,5.92,0,0,0,0-5.91,3,3,0,0,0-4.5,0,5.92,5.92,0,0,0,0,5.91,3,3,0,0,0,4.5,0Z"/></defs><path d="M12.08 0v160H799.3L650.2 0H12.08z" fill="#fff"/><path d="M0 0v160h787.23L638.13 0H0z" fill="url(#A)"/><g fill="#fff"><path d="M172.1 103.64V86.37h3.58V93h6.72v-6.63h3.6v17.27h-3.58v-7.7h-6.72v7.7z"/><use xlink:href="#B"/><path d="M206.16 91.6a4.22 4.22 0 0 1 1.25 3.4v8.6H204v-7.73a3.56 3.56 0 0 0-.27-1.55 1.87 1.87 0 0 0-1.86-1 2.31 2.31 0 0 0-2.31 1.44 5 5 0 0 0-.33 2v6.9h-3.34V90.9h3.24v1.86a5.67 5.67 0 0 1 1.21-1.42 4.24 4.24 0 0 1 2.6-.77 4.91 4.91 0 0 1 3.22 1.04zm11.14-.53a4.13 4.13 0 0 1 1.47 1.41v-6.1h3.38v17.25h-3.24v-1.77a4.68 4.68 0 0 1-1.63 1.65 4.51 4.51 0 0 1-2.27.48 4.76 4.76 0 0 1-3.77-1.81 7 7 0 0 1-1.53-4.65 8 8 0 0 1 1.5-5.14 4.92 4.92 0 0 1 4-1.88 4.11 4.11 0 0 1 2.09.55zm.82 9.1a4.66 4.66 0 0 0 .74-2.73 4.18 4.18 0 0 0-1.18-3.35 2.55 2.55 0 0 0-1.69-.61 2.34 2.34 0 0 0-2.15 1.11 5.93 5.93 0 0 0 0 5.57 2.37 2.37 0 0 0 2.12 1.07 2.47 2.47 0 0 0 2.16-1.06zm10.38-9.3v7.7a4.11 4.11 0 0 0 .25 1.64 1.8 1.8 0 0 0 1.79 1 2.33 2.33 0 0 0 2.33-1.38 5 5 0 0 0 .33-2v-6.96h3.38v12.77h-3.24v-1.8l-.24.36a2.38 2.38 0 0 1-.44.51 4.62 4.62 0 0 1-1.51 1 5.23 5.23 0 0 1-1.72.26 3.82 3.82 0 0 1-3.81-2 7.91 7.91 0 0 1-.54-3.31v-7.7zm13.93 8.7a2.18 2.18 0 0 0 .46 1.27 3.12 3.12 0 0 0 2.31.67 3.45 3.45 0 0 0 1.57-.3.93.93 0 0 0 .58-.88.94.94 0 0 0-.47-.85 19 19 0 0 0-3.49-1 7.25 7.25 0 0 1-3.07-1.35 2.92 2.92 0 0 1-.89-2.29 4 4 0 0 1 1.39-3 5.63 5.63 0 0 1 3.92-1.27 7.15 7.15 0 0 1 3.9 1 4 4 0 0 1 1.73 3.3H247a1.88 1.88 0 0 0-.36-1 2.28 2.28 0 0 0-1.88-.68 2.69 2.69 0 0 0-1.56.34 1 1 0 0 0-.46.79.88.88 0 0 0 .49.84 21.92 21.92 0 0 0 3.49.92 6.37 6.37 0 0 1 3 1.42 3.21 3.21 0 0 1 1 2.4 3.89 3.89 0 0 1-1.42 3.1 6.65 6.65 0 0 1-4.37 1.2 6.58 6.58 0 0 1-4.46-1.27 4.14 4.14 0 0 1-1.47-3.36zm9.44-6.2V91h1.78v-3.58H257V91h2v2.38h-2v6.75a1.53 1.53 0 0 0 .2 1 2.19 2.19 0 0 0 1.22.19h.65v2.5l-1.58.06c-1.58.05-2.66-.22-3.23-.82a2.45 2.45 0 0 1-.57-1.77v-7.93zm14.37 2.5a5.76 5.76 0 0 0 1.33-.29 1 1 0 0 0 .72-1 1.13 1.13 0 0 0-.55-1.09 3.5 3.5 0 0 0-1.62-.29 2.13 2.13 0 0 0-1.7.58 2.41 2.41 0 0 0-.48 1.17h-3.22a5 5 0 0 1 .94-2.75q1.33-1.7 4.57-1.7a8.2 8.2 0 0 1 3.74.83 3.21 3.21 0 0 1 1.64 3.14v7.34a1.81 1.81 0 0 0 .2.89 1.15 1.15 0 0 0 .49.39v.5h-3.63a3.9 3.9 0 0 1-.21-.73c0-.22-.07-.48-.1-.77a6.68 6.68 0 0 1-1.6 1.28 4.87 4.87 0 0 1-2.45.62 4.23 4.23 0 0 1-2.88-1 3.53 3.53 0 0 1-1.14-2.81 3.63 3.63 0 0 1 1.83-3.41 8.13 8.13 0 0 1 2.95-.82zm2 1.56a3.56 3.56 0 0 1-.65.32 5.47 5.47 0 0 1-.9.23l-.76.14a5.09 5.09 0 0 0-1.53.46 1.51 1.51 0 0 0-.79 1.42 1.47 1.47 0 0 0 .48 1.23 1.79 1.79 0 0 0 1.17.38 3.5 3.5 0 0 0 2-.63 2.65 2.65 0 0 0 1-2.31zm16.6-5.83a4.25 4.25 0 0 1 1.25 3.4v8.6h-3.42v-7.73a3.56 3.56 0 0 0-.27-1.55 1.89 1.89 0 0 0-1.86-1 2.32 2.32 0 0 0-2.32 1.44 5.16 5.16 0 0 0-.32 2v6.9h-3.34V90.9h3.23v1.86a5.89 5.89 0 0 1 1.22-1.42 4.22 4.22 0 0 1 2.6-.77 4.93 4.93 0 0 1 3.23 1.04zm22.9 4.56a6.56 6.56 0 0 1-4.33 1.27h-3.6v6.2h-3.58V86.37h7.4a6 6 0 0 1 4.09 1.33 5.21 5.21 0 0 1 1.53 4.14c0 2.04-.5 3.48-1.52 4.32zM305 89.94a2.89 2.89 0 0 0-1.92-.57h-3.25v5.08H303a2.71 2.71 0 0 0 1.92-.62 2.52 2.52 0 0 0 .69-2 2.36 2.36 0 0 0-.61-1.89zm15.18 1.2a5.07 5.07 0 0 1 2.21 1.87 6.39 6.39 0 0 1 1 2.65 15.79 15.79 0 0 1 .11 2.53h-9.3a3.07 3.07 0 0 0 1.33 2.7 3.41 3.41 0 0 0 1.84.48 2.86 2.86 0 0 0 1.86-.59 2.76 2.76 0 0 0 .69-.88h3.4a4.18 4.18 0 0 1-1.23 2.31 6.23 6.23 0 0 1-4.81 1.86 7 7 0 0 1-4.5-1.57q-1.95-1.57-1.95-5.1a6.93 6.93 0 0 1 1.76-5.09 6.18 6.18 0 0 1 4.57-1.77 7.24 7.24 0 0 1 3.02.61zm-5 2.88a3.5 3.5 0 0 0-.89 2h5.75a2.79 2.79 0 0 0-.89-2 2.91 2.91 0 0 0-2-.69 2.62 2.62 0 0 0-1.96.68zm8.72-.65V91h1.78v-3.58H329V91h2.08v2.38H329v6.75a1.53 1.53 0 0 0 .2 1 2.19 2.19 0 0 0 1.22.19h.66v2.5l-1.6.06c-1.57.05-2.65-.22-3.23-.82a2.44 2.44 0 0 1-.56-1.77v-7.93zm16.4-2.8h.28V94c-.2 0-.4 0-.56-.05h-.4a2.79 2.79 0 0 0-2.71 1.31 5.22 5.22 0 0 0-.38 2.27v6.1h-3.37V90.87h3.2v2.22a7.16 7.16 0 0 1 1.35-1.74 3.63 3.63 0 0 1 2.44-.79z"/><use xlink:href="#C"/><path d="M360.6 103.64h-3.34V86.37h3.34zm11.6-12.5a5.12 5.12 0 0 1 2.2 1.87 6.39 6.39 0 0 1 1 2.65 17.07 17.07 0 0 1 .11 2.53h-9.3a3.08 3.08 0 0 0 1.34 2.7 3.38 3.38 0 0 0 1.84.48 2.81 2.81 0 0 0 1.85-.59 2.76 2.76 0 0 0 .69-.88h3.4a4.14 4.14 0 0 1-1.24 2.31 6.19 6.19 0 0 1-4.8 1.86 7 7 0 0 1-4.5-1.57q-1.95-1.57-1.95-5.1a6.93 6.93 0 0 1 1.76-5.09 6.15 6.15 0 0 1 4.57-1.77 7.24 7.24 0 0 1 3.02.61zm-5 2.88a3.44 3.44 0 0 0-.89 2h5.75a2.79 2.79 0 0 0-.89-2 2.91 2.91 0 0 0-2-.69 2.62 2.62 0 0 0-1.96.68zm13.34-3.14v7.7a4.08 4.08 0 0 0 .26 1.64 1.78 1.78 0 0 0 1.78 1 2.34 2.34 0 0 0 2.34-1.38 5.18 5.18 0 0 0 .32-2v-6.96h3.4v12.77h-3.25v-1.8l-.23.36a2.69 2.69 0 0 1-.44.51 4.65 4.65 0 0 1-1.52 1 5.21 5.21 0 0 1-1.71.26q-2.84 0-3.8-2a7.73 7.73 0 0 1-.55-3.31v-7.7zm27.26.03a3.65 3.65 0 0 1 1.49 1.15 3.74 3.74 0 0 1 .7 1.64 11.32 11.32 0 0 1 .11 1.89v8h-3.4V95.5a2.76 2.76 0 0 0-.23-1.2 1.68 1.68 0 0 0-1.65-.89 1.92 1.92 0 0 0-1.91 1.15 3.59 3.59 0 0 0-.27 1.46v7.6h-3.36V96a4.45 4.45 0 0 0-.23-1.65 1.64 1.64 0 0 0-1.66-.92 2 2 0 0 0-1.92.92 3.57 3.57 0 0 0-.27 1.65v7.7h-3.38V90.9h3.24v1.86a5.9 5.9 0 0 1 1.17-1.42 4.08 4.08 0 0 1 2.52-.74 4 4 0 0 1 2.37.64 3.72 3.72 0 0 1 1.1 1.53 4.24 4.24 0 0 1 1.63-1.65 5 5 0 0 1 2.3-.52 4.37 4.37 0 0 1 1.66.32zm14-2.73a7.11 7.11 0 0 1 5.31-2.17q4.32 0 6.3 2.86a6.21 6.21 0 0 1 1.18 3.22H431a4.86 4.86 0 0 0-.88-1.87 3.58 3.58 0 0 0-2.86-1.13 3.51 3.51 0 0 0-3 1.59 7.68 7.68 0 0 0-1.12 4.49 6.79 6.79 0 0 0 1.18 4.36 3.68 3.68 0 0 0 3 1.44 3.39 3.39 0 0 0 2.84-1.24 5.6 5.6 0 0 0 .89-2h3.6a7.75 7.75 0 0 1-2.38 4.59 6.89 6.89 0 0 1-4.88 1.77 7.35 7.35 0 0 1-5.8-2.39 9.63 9.63 0 0 1-2.11-6.59c-.07-2.97.73-5.3 2.33-6.93z"/><use xlink:href="#D"/><path d="M459 90.57h.3V94c-.2 0-.4 0-.57-.05h-.4a2.78 2.78 0 0 0-2.71 1.31 5.06 5.06 0 0 0-.39 2.27v6.1h-3.36V90.87H455v2.22a6.93 6.93 0 0 1 1.34-1.74 3.65 3.65 0 0 1 2.44-.79zm13 1.67a6.81 6.81 0 0 1 1.56 4.85 7.64 7.64 0 0 1-1.53 5.14 5 5 0 0 1-3.93 1.77 4.13 4.13 0 0 1-2.55-.76 4.79 4.79 0 0 1-1.08-1.23v6.66h-3.3v-17.8h3.2v1.88a5.39 5.39 0 0 1 1.16-1.31 4.23 4.23 0 0 1 2.66-.85 5.08 5.08 0 0 1 3.82 1.65zm-2.57 2.4a2.37 2.37 0 0 0-2.21-1.14 2.52 2.52 0 0 0-2.52 1.73 6.63 6.63 0 0 0-.35 2.32 3.72 3.72 0 0 0 1.19 3.13 2.77 2.77 0 0 0 1.68.52 2.44 2.44 0 0 0 2.15-1.08 5.64 5.64 0 0 0 .06-5.48z"/><use xlink:href="#D" x="38.66"/><path d="M497.63 90.57h.3V94c-.2 0-.4 0-.57-.05H497a2.78 2.78 0 0 0-2.71 1.31 5.06 5.06 0 0 0-.39 2.27v6.1h-3.4V90.87h3.2v2.22a6.93 6.93 0 0 1 1.31-1.74 3.65 3.65 0 0 1 2.44-.79zm7.3 5.3a5.88 5.88 0 0 0 1.34-.29 1 1 0 0 0 .72-1 1.14 1.14 0 0 0-.56-1.09 3.47 3.47 0 0 0-1.62-.29 2.14 2.14 0 0 0-1.7.58 2.51 2.51 0 0 0-.47 1.17h-3.22a4.87 4.87 0 0 1 .94-2.75c.88-1.13 2.4-1.7 4.56-1.7a8.21 8.21 0 0 1 3.75.83 3.2 3.2 0 0 1 1.63 3.14v7.34a2 2 0 0 0 .19.89 1.18 1.18 0 0 0 .5.39v.5h-3.64a3.9 3.9 0 0 1-.21-.73 7.13 7.13 0 0 1-.09-.77 6.88 6.88 0 0 1-1.6 1.28 4.91 4.91 0 0 1-2.45.63 4.23 4.23 0 0 1-2.88-1 3.52 3.52 0 0 1-1.13-2.81 3.63 3.63 0 0 1 1.83-3.41 8.07 8.07 0 0 1 3-.82zm2 1.56a3.82 3.82 0 0 1-.64.32 5.75 5.75 0 0 1-.9.23l-.76.14a5.28 5.28 0 0 0-1.54.46 1.52 1.52 0 0 0-.78 1.42 1.47 1.47 0 0 0 .48 1.23 1.79 1.79 0 0 0 1.17.38 3.52 3.52 0 0 0 2-.63 2.68 2.68 0 0 0 1-2.31zm4.97-4.07V91h1.78v-3.58h3.3V91h2.08v2.38H517v6.75a1.53 1.53 0 0 0 .2 1 2.22 2.22 0 0 0 1.22.19h.66v2.5l-1.58.06c-1.58.05-2.66-.22-3.24-.82a2.49 2.49 0 0 1-.56-1.77v-7.93z"/><use xlink:href="#B" x="332.02"/><use xlink:href="#C" x="185.33"/><path d="M552.84 91.6a4.22 4.22 0 0 1 1.26 3.4v8.6h-3.43v-7.73a3.74 3.74 0 0 0-.26-1.55 1.9 1.9 0 0 0-1.87-1 2.31 2.31 0 0 0-2.31 1.44 5 5 0 0 0-.33 2v6.9h-3.34V90.9h3.24v1.86a5.88 5.88 0 0 1 1.2-1.42 4.24 4.24 0 0 1 2.6-.77 4.91 4.91 0 0 1 3.24 1.04zm11.3-5.23h3.6v14.16h8.62v3.1h-12.23z"/><use xlink:href="#B" x="389.37"/><path d="M601.13 90.9a3.65 3.65 0 0 1 1.49 1.15 3.74 3.74 0 0 1 .73 1.64 11.11 11.11 0 0 1 .12 1.89v8H600V95.5a2.76 2.76 0 0 0-.23-1.2 1.68 1.68 0 0 0-1.65-.89 1.92 1.92 0 0 0-1.91 1.15A3.6 3.6 0 0 0 596 96v7.6h-3.4V96a4.45 4.45 0 0 0-.23-1.65 1.64 1.64 0 0 0-1.66-.92 2 2 0 0 0-1.92.92 3.57 3.57 0 0 0-.27 1.57v7.7h-3.38V90.9h3.24v1.86a5.68 5.68 0 0 1 1.18-1.42 4 4 0 0 1 2.51-.74 4 4 0 0 1 2.37.64 3.72 3.72 0 0 1 1.1 1.53 4.24 4.24 0 0 1 1.63-1.65 5 5 0 0 1 2.3-.52 4.37 4.37 0 0 1 1.66.32z"/><use xlink:href="#B" x="417.37"/><path d="M611.9 93.36V91h1.78v-3.58H617V91h2.07v2.38H617v6.75c0 .53.06.85.2 1a2.17 2.17 0 0 0 1.21.19h.66v2.5l-1.58.06c-1.58.05-2.66-.22-3.24-.82a2.49 2.49 0 0 1-.56-1.77v-7.93zm17.62-2.23a5.12 5.12 0 0 1 2.21 1.87 6.24 6.24 0 0 1 1 2.65 15.79 15.79 0 0 1 .11 2.53h-9.3a3.08 3.08 0 0 0 1.34 2.7 3.38 3.38 0 0 0 1.84.48 2.81 2.81 0 0 0 1.85-.59 2.76 2.76 0 0 0 .69-.88h3.4a4.14 4.14 0 0 1-1.24 2.31 6.22 6.22 0 0 1-4.81 1.86 6.92 6.92 0 0 1-4.49-1.57q-1.95-1.57-1.95-5.1A6.89 6.89 0 0 1 622 92.3a6.14 6.14 0 0 1 4.56-1.77 7.25 7.25 0 0 1 2.96.6zm-5 2.88a3.5 3.5 0 0 0-.89 2h5.76a2.79 2.79 0 0 0-.89-2 3 3 0 0 0-2-.69 2.64 2.64 0 0 0-1.98.68zm16.8-2.94a4 4 0 0 1 1.46 1.41v-6.1h3.4v17.25h-3.25v-1.77a4.6 4.6 0 0 1-1.63 1.65 4.51 4.51 0 0 1-2.29.48 4.78 4.78 0 0 1-3.77-1.81 7 7 0 0 1-1.53-4.65 8 8 0 0 1 1.51-5.14 4.89 4.89 0 0 1 4-1.88 4.15 4.15 0 0 1 2.11.55zm.82 9.1a4.66 4.66 0 0 0 .73-2.73 4.18 4.18 0 0 0-1.18-3.35 2.53 2.53 0 0 0-1.69-.61 2.35 2.35 0 0 0-2.15 1.11 5.19 5.19 0 0 0-.68 2.75 5.1 5.1 0 0 0 .69 2.82 2.37 2.37 0 0 0 2.12 1.07 2.49 2.49 0 0 0 2.16-1.06zM177.82 61.13h-2.34v13.6h-2.8v-13.6h-2.38V58.7h2.42a6 6 0 0 1-.6-2.47 4.21 4.21 0 0 1 .31-1.62 3.57 3.57 0 0 1 1-1.33 4.69 4.69 0 0 1 1.66-.9 7.93 7.93 0 0 1 2.43-.33 10.08 10.08 0 0 1 3.18.49 11.44 11.44 0 0 1 2.84 1.37 15.31 15.31 0 0 1 2.56 2.13 25.93 25.93 0 0 1 2.33 2.78h-2.58l-.87-.85-1.1-.95a14.78 14.78 0 0 0-1.32-.94 11.18 11.18 0 0 0-1.48-.82 8.78 8.78 0 0 0-1.61-.57 6.58 6.58 0 0 0-1.71-.22 4.65 4.65 0 0 0-1.32.17 2.6 2.6 0 0 0-.92.49 1.84 1.84 0 0 0-.54.73 2.58 2.58 0 0 0-.17.94 3.3 3.3 0 0 0 .13.92 4.74 4.74 0 0 0 .42 1h2.5z"/><path d="M185.38 71.44a4.07 4.07 0 0 0 1.17-.63 1 1 0 0 0 .37-.83 1.13 1.13 0 0 0-.13-.54 1.09 1.09 0 0 0-.39-.44 2 2 0 0 0-.71-.3 4.38 4.38 0 0 0-1-.1 5.52 5.52 0 0 0-1 .09 2.48 2.48 0 0 0-.86.33 1.79 1.79 0 0 0-.6.65 2 2 0 0 0-.23 1 3.09 3.09 0 0 0 .24 1.22 4.42 4.42 0 0 0 .66 1 5.27 5.27 0 0 0 .94.88 10.07 10.07 0 0 0 1.1.74l1.13.6 1 .43-1.07 2.35-1.67-.77a15.13 15.13 0 0 1-1.59-.88 11.56 11.56 0 0 1-1.4-1 7.33 7.33 0 0 1-1.09-1.23 5.64 5.64 0 0 1-.74-1.47 5.32 5.32 0 0 1-.27-1.73 4.85 4.85 0 0 1 .27-1.68 4.1 4.1 0 0 1 .76-1.28 8.1 8.1 0 0 1-.42-.7 6.12 6.12 0 0 1-.33-.75 5.26 5.26 0 0 1-.21-.75 2.92 2.92 0 0 1-.08-.71 2.57 2.57 0 0 1 .15-.87 1.81 1.81 0 0 1 .49-.74 2.32 2.32 0 0 1 .87-.52 3.9 3.9 0 0 1 1.31-.19h4.38v-1.48h-9.36V58.7h14.68v2.42h-2.5v3.72h-6.4a1.43 1.43 0 0 0-.29 0 1.11 1.11 0 0 0-.27.13.67.67 0 0 0-.2.26.92.92 0 0 0-.08.4 1.35 1.35 0 0 0 .07.46 1.76 1.76 0 0 0 .19.39 8 8 0 0 1 4.31-.14 4.9 4.9 0 0 1 1.59.7 3.61 3.61 0 0 1 1.1 1.2 3.65 3.65 0 0 1 .4 1.73 3.49 3.49 0 0 1-.29 1.48 3.58 3.58 0 0 1-.76 1.07 4.57 4.57 0 0 1-1.06.77 10.81 10.81 0 0 1-1.2.55z"/><path d="M201.07 61.13H191V58.7h10.07zm1.37 6H197v1.25a2.91 2.91 0 0 1-.12.82.78.78 0 0 1-.3.46.92.92 0 0 1-.57.15 2.27 2.27 0 0 1-.88-.18 3.63 3.63 0 0 1-.82-.49 5.23 5.23 0 0 1-.7-.71 5.43 5.43 0 0 1-.54-.84 4.15 4.15 0 0 1-.36-.89 2.92 2.92 0 0 1-.13-.84 1.36 1.36 0 0 1 .12-.63.72.72 0 0 1 .35-.34 1.44 1.44 0 0 1 .55-.13h8.88z"/><path d="M213.6 61.13h-3.28v5h-3.94a3.26 3.26 0 0 0-2.16.65 2.43 2.43 0 0 0-.76 1.95 3.81 3.81 0 0 0 .24 1.36 3.54 3.54 0 0 0 .66 1.13 3.25 3.25 0 0 0 1 .76 3.17 3.17 0 0 0 1.31.28 4.78 4.78 0 0 0 .57 0 1.14 1.14 0 0 0 .44-.15 4.63 4.63 0 0 1-.09-.92 4.2 4.2 0 0 1 .16-1.18 3.24 3.24 0 0 1 .47-1 2.37 2.37 0 0 1 .78-.7 2.1 2.1 0 0 1 1.07-.27 2 2 0 0 1 .78.15 1.79 1.79 0 0 1 .64.44 2.29 2.29 0 0 1 .44.73 3 3 0 0 1 .16 1 3.32 3.32 0 0 1-.14 1 4.17 4.17 0 0 1-.35.87 4.83 4.83 0 0 1-.5.77c-.2.24-.4.46-.6.67a8.38 8.38 0 0 0 1.83 2.08l-1.84 1.87a9.35 9.35 0 0 1-1.33-1.44 8.59 8.59 0 0 1-.92-1.57 4.44 4.44 0 0 1-.84.2 8.08 8.08 0 0 1-.85 0 5.31 5.31 0 0 1-1.54-.22 6.33 6.33 0 0 1-1.41-.61 6.16 6.16 0 0 1-1.22-1 6.75 6.75 0 0 1-1-1.24 6.47 6.47 0 0 1-.62-1.45 5.82 5.82 0 0 1-.23-1.62 5.48 5.48 0 0 1 .39-2.14 4.24 4.24 0 0 1 1.13-1.53 4.47 4.47 0 0 1 1.64-.93 6.4 6.4 0 0 1 2.11-.32h1.7v-2.62h-8.6V58.7h14.7z"/><path d="M226.67 61.13h-5.4a10 10 0 0 1 .64 1.65 6.27 6.27 0 0 1 .23 1.69 6.08 6.08 0 0 1 0 .61q0 .3-.1.6h4.9v2.4h-6.43a4.22 4.22 0 0 1-1.5.6 11.75 11.75 0 0 0 .7 1.25 13.63 13.63 0 0 0 .86 1.18c.32.4.68.77 1.06 1.15l1.27 1.15-1.77 2a19 19 0 0 1-1.49-1.49q-.72-.83-1.4-1.7l-1.3-1.82-1.14-1.8-1-1.66c-.33-.52-.5-1-.7-1.4l2.38-1.2a4.72 4.72 0 0 0 .86 1.52 1.33 1.33 0 0 0 .94.48.81.81 0 0 0 .49-.15 1.18 1.18 0 0 0 .35-.41 2.59 2.59 0 0 0 .2-.63 5.13 5.13 0 0 0 .06-.81 5.37 5.37 0 0 0-.25-1.65 5.71 5.71 0 0 0-.76-1.55h-5.5v-2.4h13.83zm12.05 0h-2.35v13.6h-2.8v-8.62h-3a5.55 5.55 0 0 0-1.07.09 1.94 1.94 0 0 0-.76.27 1.24 1.24 0 0 0-.43.55 2.14 2.14 0 0 0-.15.86 3.91 3.91 0 0 0 .24 1.34 6.16 6.16 0 0 0 .66 1.34 10.71 10.71 0 0 0 1 1.31 16.5 16.5 0 0 0 1.34 1.28l-1.7 1.9a5.88 5.88 0 0 1-.67-.46 12.21 12.21 0 0 1-.91-.82l-1-1.13a8.61 8.61 0 0 1-.91-1.44 8.79 8.79 0 0 1-.67-1.72 7.46 7.46 0 0 1-.26-2 4.7 4.7 0 0 1 .34-1.91 2.74 2.74 0 0 1 1-1.16 3.89 3.89 0 0 1 1.46-.58 10.62 10.62 0 0 1 1.86-.15h3.6v-2.56h-10V58.7h15.14z"/><path d="M245.48 61.13h-2.34v13.6h-2.8v-13.6H238V58.7h7.52z"/><path d="M260.72 61.13h-2.35v13.6h-3v-7.6h-4.65v1.25a3.38 3.38 0 0 1-.11.82.88.88 0 0 1-.3.46 1 1 0 0 1-.57.15 2.28 2.28 0 0 1-.89-.18 3.63 3.63 0 0 1-.82-.49 5.23 5.23 0 0 1-.7-.71 5.43 5.43 0 0 1-.54-.84 4.15 4.15 0 0 1-.36-.89 2.92 2.92 0 0 1-.13-.84 1.36 1.36 0 0 1 .12-.63.72.72 0 0 1 .35-.34 1.44 1.44 0 0 1 .55-.13h8.08v-3.6h-10.67V58.7h16zm20.08 0h-2.34v13.6h-2.8V70.6a4.87 4.87 0 0 1-2.65.81h-.66a4.67 4.67 0 0 1-.94-.22 5.05 5.05 0 0 1-1-.53 3.47 3.47 0 0 1-1-1 5.51 5.51 0 0 1-.7-1.52 7.85 7.85 0 0 1-.27-2.21v-4.8H266V58.7h14.78zm-5.14 0h-4.44v4.95a4.54 4.54 0 0 0 .16 1.34 2 2 0 0 0 .42.82 1.3 1.3 0 0 0 .61.41 2.37 2.37 0 0 0 .76.12 2.47 2.47 0 0 0 1.44-.41 3.94 3.94 0 0 0 1.05-1.15z"/><path d="M276 59l-.3-.58-1-1.8-.78-1.23a4.43 4.43 0 0 0-.64-.76 2.07 2.07 0 0 0-.58-.41 2 2 0 0 0-.63-.17h-2.92v-2.43h2l1.45.06a3.07 3.07 0 0 1 1.09.28 3.26 3.26 0 0 1 .92.7 7.73 7.73 0 0 1 .94 1.28L276.7 56l1.58 3zm16.42 14.68a7.84 7.84 0 0 1-2 .9 8.06 8.06 0 0 1-2.2.3 6.92 6.92 0 0 1-2.68-.49 6.07 6.07 0 0 1-2-1.35 5.94 5.94 0 0 1-1.27-2 6.81 6.81 0 0 1-.44-2.44 5.68 5.68 0 0 1 .38-2.14 4.22 4.22 0 0 1 1.07-1.53 4.78 4.78 0 0 1 1.64-.92 6.72 6.72 0 0 1 2.11-.31h1.6v-2.57h-8.5V58.7h14.7v2.42h-3.4v5h-3.83a4.58 4.58 0 0 0-1.22.15 2.31 2.31 0 0 0-.92.48 1.92 1.92 0 0 0-.58.83 3.24 3.24 0 0 0-.2 1.23 4.1 4.1 0 0 0 .24 1.44 3.28 3.28 0 0 0 .69 1.09 2.82 2.82 0 0 0 1 .7 3.52 3.52 0 0 0 1.32.24 5.23 5.23 0 0 0 1.15-.14 7.32 7.32 0 0 0 1.18-.37 10.83 10.83 0 0 0 1.15-.51c.38-.2.72-.4 1-.6z"/><path d="M291 80.37l-2.9-2.54-2.87 2.54-1.58-1.92 4.45-3.74 4.53 3.93zM296.66 59l-.3-.58-1-1.8-.77-1.23a4.94 4.94 0 0 0-.64-.76 2.07 2.07 0 0 0-.58-.41 2 2 0 0 0-.63-.17h-2.92v-2.43h2l1.46.06a3.12 3.12 0 0 1 1.09.28 3.26 3.26 0 0 1 .92.7 7.73 7.73 0 0 1 .94 1.28L297.4 56l1.58 3zm4.86 2.12h-2.34v13.6h-2.8v-13.6H294V58.7h7.5z"/><path d="M308.3 61.13H306v13.6h-2.8v-13.6h-2.38V58.7h2.42a6 6 0 0 1-.6-2.47 4.21 4.21 0 0 1 .31-1.62 3.57 3.57 0 0 1 1-1.33 4.66 4.66 0 0 1 1.67-.9 7.82 7.82 0 0 1 2.42-.33 10.08 10.08 0 0 1 3.18.49 11.68 11.68 0 0 1 2.78 1.37 15.66 15.66 0 0 1 2.55 2.13 25.93 25.93 0 0 1 2.33 2.78h-2.58l-.87-.85-1.1-.95a14.78 14.78 0 0 0-1.32-.94 11.18 11.18 0 0 0-1.48-.82 8.78 8.78 0 0 0-1.61-.57 6.5 6.5 0 0 0-1.7-.22 4.78 4.78 0 0 0-1.33.17 2.6 2.6 0 0 0-.92.49 1.93 1.93 0 0 0-.54.73 2.58 2.58 0 0 0-.17.94 3.32 3.32 0 0 0 .14.92 4.67 4.67 0 0 0 .41 1h2.5z"/><path d="M320 74.73V65.3h-.52a1.66 1.66 0 0 0-1.33.63 2.08 2.08 0 0 0-.32.65 2.57 2.57 0 0 0-.11.72v.63h-2.5l-.17-1a4.23 4.23 0 0 0-.28-.87 1.8 1.8 0 0 0-.45-.61 1 1 0 0 0-.67-.24 1 1 0 0 0-.56.15 1.27 1.27 0 0 0-.38.44 2.14 2.14 0 0 0-.23.66 4.25 4.25 0 0 0-.07.82 4.78 4.78 0 0 0 .41 2 5.92 5.92 0 0 0 1.1 1.6 8.78 8.78 0 0 0 1.56 1.26 18 18 0 0 0 1.83 1l-1.25 2.1a8.43 8.43 0 0 1-1.06-.5 11.38 11.38 0 0 1-1.36-.85 12.78 12.78 0 0 1-1.45-1.2 9.18 9.18 0 0 1-1.32-1.52 8.08 8.08 0 0 1-.88-1.89 6.35 6.35 0 0 1-.37-2.15 6 6 0 0 1 .28-1.83 4.89 4.89 0 0 1 .8-1.5 3.85 3.85 0 0 1 1.26-1 3.58 3.58 0 0 1 1.65-.37 3.25 3.25 0 0 1 1.09.16 3.41 3.41 0 0 1 .81.41 2.94 2.94 0 0 1 .57.54 6.71 6.71 0 0 1 .4.53 2.72 2.72 0 0 1 .52-.68 2.49 2.49 0 0 1 .65-.48 2.76 2.76 0 0 1 .72-.28 3.82 3.82 0 0 1 .75-.08 2.75 2.75 0 0 1 .4 0l.42.06v-1.5h-12.4V58.7h17.6v2.42h-2.35v13.6z"/><path d="M324.38 61.13V58.7h15.43v2.42h-2.34v13.6h-2.8v-4a6.32 6.32 0 0 1-.54.36 4.36 4.36 0 0 1-.65.32 5.28 5.28 0 0 1-.79.23 5.44 5.44 0 0 1-.95.08 5.06 5.06 0 0 1-2.4-.54 5.49 5.49 0 0 1-1.74-1.43 7.11 7.11 0 0 1-1.12-2 10.32 10.32 0 0 1-.58-2.28 4.18 4.18 0 0 0 1.15-.3 2.37 2.37 0 0 0 .75-.52 1.85 1.85 0 0 0 .41-.68 2.48 2.48 0 0 0 .12-.77 2.85 2.85 0 0 0-.17-1 4.85 4.85 0 0 0-.55-1.09zm6.76 2.5a3.19 3.19 0 0 1-.54 1.84 3.58 3.58 0 0 1-1.6 1.25 3.81 3.81 0 0 0 .43 1.08 2.71 2.71 0 0 0 .63.74 2.32 2.32 0 0 0 .77.42 2.82 2.82 0 0 0 .87.13 3 3 0 0 0 1.74-.5 3.84 3.84 0 0 0 1.21-1.39v-6.08h-4.3a5.25 5.25 0 0 1 .59 1.29 4.22 4.22 0 0 1 .2 1.22z"/><path d="M355.6 61.13h-2.34v13.6h-2.8v-5.57h-4.82v2a1.43 1.43 0 0 1-.09.42.87.87 0 0 1-.24.32.69.69 0 0 1-.45.13 1.82 1.82 0 0 1-.86-.23 4.83 4.83 0 0 1-.94-.61 7.28 7.28 0 0 1-.91-.86 9.36 9.36 0 0 1-.76-1 5.18 5.18 0 0 1-.54-1 2.24 2.24 0 0 1-.21-.87.75.75 0 0 1 0-.26.46.46 0 0 1 .14-.23 1.27 1.27 0 0 1 .31-.16 2 2 0 0 1 .55-.06h1.18v-5.6h-3.76V58.7h16.53zm-10 0v5.62h4.82v-5.62zm28.4 9.2a6.71 6.71 0 0 0 1.18-.78 5.72 5.72 0 0 0 .85-.86 3.83 3.83 0 0 0 .5-.89 2.21 2.21 0 0 0 .09-1.44 1.63 1.63 0 0 0-.25-.57 1.58 1.58 0 0 0-.46-.43 1.29 1.29 0 0 0-.68-.17 1.72 1.72 0 0 0-.82.21 3 3 0 0 0-.74.56 5 5 0 0 0-.63.79 6.89 6.89 0 0 0-.49.93v7h-2.8V71.2l-.34.2a3.32 3.32 0 0 1-.5.25 6.81 6.81 0 0 1-.67.2 3.52 3.52 0 0 1-.83.09 4.31 4.31 0 0 1-1.82-.41 5.2 5.2 0 0 1-1.59-1.11 5.39 5.39 0 0 1-1-1.63 5 5 0 0 1-.4-2 4.7 4.7 0 0 1 .3-1.67 4.22 4.22 0 0 1 .84-1.4 4.14 4.14 0 0 1 1.35-1 4.49 4.49 0 0 1 1.81-.35 4.1 4.1 0 0 1 1.39.23 5.7 5.7 0 0 1 1.49.81v-2.3h-8.84v-2.4h20.67v2.42h-9v2.54a3.64 3.64 0 0 1 .78-.56 3.77 3.77 0 0 1 .78-.34 5.7 5.7 0 0 1 .73-.16 4.8 4.8 0 0 1 .62 0 3.69 3.69 0 0 1 1.69.38 4 4 0 0 1 1.26 1 4.48 4.48 0 0 1 .79 1.38 4.77 4.77 0 0 1 .27 1.58 4.94 4.94 0 0 1-.29 1.65 6 6 0 0 1-.83 1.55 7.67 7.67 0 0 1-1.3 1.39 10.66 10.66 0 0 1-1.7 1.18zm-4.2-4.24l-.46-.44a3.15 3.15 0 0 0-.54-.4 2.59 2.59 0 0 0-.63-.29 2.27 2.27 0 0 0-.75-.11 2 2 0 0 0-1.51.63 1.82 1.82 0 0 0-.38.68 2.41 2.41 0 0 0-.13.81 2.6 2.6 0 0 0 .16.93 2.26 2.26 0 0 0 .47.75 2.11 2.11 0 0 0 .73.5 2.25 2.25 0 0 0 1 .19 2 2 0 0 0 1-.23 1.79 1.79 0 0 0 .64-.58 2.48 2.48 0 0 0 .34-.8 4.43 4.43 0 0 0 .09-.87z"/><path d="M381.4 51.74c0 .12.07.28.13.48a7 7 0 0 0 .24.67 5.9 5.9 0 0 0 .39.74 3 3 0 0 0 .56.68 2.89 2.89 0 0 0 .78.5 2.56 2.56 0 0 0 1 .2 2.48 2.48 0 0 0 1-.19 2.84 2.84 0 0 0 .77-.47 3.21 3.21 0 0 0 .57-.65 4.93 4.93 0 0 0 .41-.73 6.11 6.11 0 0 0 .27-.69l.16-.55 2.3.8-.3 1a7.68 7.68 0 0 1-.48 1.07 6.54 6.54 0 0 1-.7 1 4.93 4.93 0 0 1-1 .89 4.55 4.55 0 0 1-1.31.63 5.32 5.32 0 0 1-1.66.24 5.73 5.73 0 0 1-2-.35 4.79 4.79 0 0 1-1.6-1 5.36 5.36 0 0 1-1.17-1.52 8 8 0 0 1-.74-2zm7 9.4H386v13.6h-2.8v-13.6h-2.38V58.7h7.52z"/><path d="M402.38 61.13H400v13.6h-2.8V70.6h-.05a4.81 4.81 0 0 1-2.64.81h-.67a4.75 4.75 0 0 1-.93-.22 4.81 4.81 0 0 1-1-.53 3.47 3.47 0 0 1-.95-1 5 5 0 0 1-.7-1.52 7.82 7.82 0 0 1-.28-2.21v-4.8h-2.38V58.7h14.78zm-5.14 0h-4.44v4.95a5 5 0 0 0 .15 1.34 2.33 2.33 0 0 0 .42.82 1.38 1.38 0 0 0 .62.41 2.36 2.36 0 0 0 .75.12 2.43 2.43 0 0 0 1.44-.41 3.83 3.83 0 0 0 1.06-1.15z"/><path d="M403.66 53.6a3 3 0 0 1 1.15-1.7 3.44 3.44 0 0 1 2.06-.58 4.36 4.36 0 0 1 1.85.4 4.21 4.21 0 0 1 1.52 1.27l-1.8 1.6a2.29 2.29 0 0 0-.74-.67 1.76 1.76 0 0 0-.85-.21 1.56 1.56 0 0 0-.64.12 1.1 1.1 0 0 0-.42.35 1.51 1.51 0 0 0-.24.53 2.69 2.69 0 0 0-.08.65 4.62 4.62 0 0 0 .11 1 6.87 6.87 0 0 0 .26 1q.17.48.36.93l.4.77h-2.3l-.3-.58-1-1.78a14.38 14.38 0 0 0-.78-1.23 5 5 0 0 0-.64-.77 2.13 2.13 0 0 0-.58-.41 1.85 1.85 0 0 0-.61-.17h-2.93v-2.5h3.37a3.53 3.53 0 0 1 1 .24 2.72 2.72 0 0 1 .87.6 6.1 6.1 0 0 1 .88 1.1zm5.5 7.52h-2.34v13.6H404v-13.6h-2.37V58.7h7.52z"/><path d="M420.85 61.13h-3.6a11 11 0 0 1 .65 1.65 5.9 5.9 0 0 1 .24 1.69 5 5 0 0 1-.21 1.47 3.77 3.77 0 0 1-.65 1.24 3.69 3.69 0 0 1-1.12.94 5 5 0 0 1-1.63.56l.92 1.25 1 1.18 1.1 1.15 1.26 1.15-1.77 2a17.3 17.3 0 0 1-1.67-1.41c-.53-.53-1-1.1-1.5-1.67s-.9-1.17-1.33-1.76l-1.14-1.74-.94-1.62-.7-1.38 2.37-1.2a3.76 3.76 0 0 0 .79 1.36 1.25 1.25 0 0 0 .88.4 1.26 1.26 0 0 0 .57-.14 1.31 1.31 0 0 0 .47-.41 2.21 2.21 0 0 0 .33-.67 3.09 3.09 0 0 0 .12-.91 5.2 5.2 0 0 0-.25-1.54 5.61 5.61 0 0 0-.76-1.53h-5.88V58.7h12.45z"/><path d="M413.93 59l-.3-.58-1-1.8-.77-1.23a4.43 4.43 0 0 0-.64-.76 2.07 2.07 0 0 0-.58-.41 2 2 0 0 0-.63-.17h-2.92v-2.43h2l1.46.06a3.12 3.12 0 0 1 1.09.28 3.26 3.26 0 0 1 .92.7 7.73 7.73 0 0 1 .94 1.28l1.17 2.06 1.58 3zm9.17 2.13h-3V58.7h19.43v2.42h-2.34v13.6h-2.8v-13.6h-3.14a3.74 3.74 0 0 1 .67 1.32 4.87 4.87 0 0 1 0 3.05 6 6 0 0 1-.7 1.42 6.75 6.75 0 0 1-1.09 1.26 8.08 8.08 0 0 1-1.4 1 10.84 10.84 0 0 1 1.07.83l1.13 1.1 1.07 1.22.94 1.2-2 1.58-.92-1.16-1.13-1.28-1.28-1.25a14.75 14.75 0 0 0-1.36-1.09 4.86 4.86 0 0 1-1.74.32 3.59 3.59 0 0 1-1.19-.18 2.79 2.79 0 0 1-.87-.49 2.13 2.13 0 0 1-.53-.68 1.86 1.86 0 0 1-.17-.75 1.42 1.42 0 0 1 .14-.64 1.62 1.62 0 0 1 .41-.54 1.9 1.9 0 0 1 .69-.38 2.93 2.93 0 0 1 1-.15 5.13 5.13 0 0 1 1.32.19 5.59 5.59 0 0 1 1.25.55 3.37 3.37 0 0 0 .37-.14 4.33 4.33 0 0 0 .57-.32 5.41 5.41 0 0 0 .65-.5 4.55 4.55 0 0 0 .61-.69 3.81 3.81 0 0 0 .46-.9 3.67 3.67 0 0 0 .17-1.13 3.6 3.6 0 0 0-.15-1 2.9 2.9 0 0 0-.44-.9 2.27 2.27 0 0 0-.73-.61 1.94 1.94 0 0 0-1-.24 1.74 1.74 0 0 0-.69.12 1.33 1.33 0 0 0-.44.31 1.13 1.13 0 0 0-.23.43 1.59 1.59 0 0 0-.07.48 1.22 1.22 0 0 0 .47 1 2.28 2.28 0 0 0 1.39.36v2.43h-.22a5.42 5.42 0 0 1-1.86-.29 4.06 4.06 0 0 1-1.4-.79 3.57 3.57 0 0 1-.89-1.16 3.47 3.47 0 0 1-.31-1.43 4.22 4.22 0 0 1 .32-1.55z"/><path d="M454.75 61.13h-2.34v13.6h-3v-7.6h-4.65v1.25a3.88 3.88 0 0 1-.12.82.88.88 0 0 1-.3.46 1 1 0 0 1-.57.15 2.32 2.32 0 0 1-.89-.18 3.37 3.37 0 0 1-.81-.49 4.28 4.28 0 0 1-.7-.71 5.51 5.51 0 0 1-.55-.84 4.74 4.74 0 0 1-.36-.89 2.92 2.92 0 0 1-.13-.84 1.36 1.36 0 0 1 .12-.63.77.77 0 0 1 .35-.34 1.48 1.48 0 0 1 .55-.13h8.08v-3.6h-10.67V58.7h16zm12.85 0h-2.35v13.6h-2.8v-13.6h-2.37V58.7h2.4a6 6 0 0 1-.6-2.47 4.21 4.21 0 0 1 .31-1.62 3.57 3.57 0 0 1 1-1.33 4.74 4.74 0 0 1 1.67-.9 7.87 7.87 0 0 1 2.42-.33 10.1 10.1 0 0 1 3.19.49 11.62 11.62 0 0 1 2.84 1.37 15.25 15.25 0 0 1 2.55 2.13 27.22 27.22 0 0 1 2.34 2.78h-2.58l-.92-.83-1.1-.95a14.78 14.78 0 0 0-1.32-.94 11.06 11.06 0 0 0-1.47-.82 9.34 9.34 0 0 0-1.61-.57 6.58 6.58 0 0 0-1.71-.22 4.65 4.65 0 0 0-1.32.17 2.65 2.65 0 0 0-.93.49 1.81 1.81 0 0 0-.53.73 2.39 2.39 0 0 0-.18.94 3.32 3.32 0 0 0 .14.92 5.27 5.27 0 0 0 .41 1h2.52z"/><path d="M479.28 74.73V65.3h-.5a1.67 1.67 0 0 0-.79.18 1.48 1.48 0 0 0-.54.45 2.1 2.1 0 0 0-.33.65 2.55 2.55 0 0 0-.1.72 1.62 1.62 0 0 0 0 .31v.32h-2.5c0-.33-.1-.66-.17-1a4.23 4.23 0 0 0-.28-.87 1.8 1.8 0 0 0-.45-.61 1.07 1.07 0 0 0-1.22-.09 1.19 1.19 0 0 0-.39.44 2.44 2.44 0 0 0-.23.66 5.22 5.22 0 0 0-.07.82 4.63 4.63 0 0 0 .42 2 5.67 5.67 0 0 0 1.09 1.6 8.5 8.5 0 0 0 1.57 1.26 16.84 16.84 0 0 0 1.82 1l-1.24 2.1a8.45 8.45 0 0 1-1.07-.5 11.38 11.38 0 0 1-1.36-.85 13.72 13.72 0 0 1-1.45-1.2 9.18 9.18 0 0 1-1.32-1.52 8.5 8.5 0 0 1-1-1.85 6.34 6.34 0 0 1-.36-2.15 5.75 5.75 0 0 1 .28-1.83 4.5 4.5 0 0 1 .8-1.5 3.72 3.72 0 0 1 1.25-1 3.58 3.58 0 0 1 1.65-.37 3.25 3.25 0 0 1 1.09.16 3.41 3.41 0 0 1 .81.41 2.68 2.68 0 0 1 .57.54 6.71 6.71 0 0 1 .4.53h.05a3 3 0 0 1 .52-.68 2.66 2.66 0 0 1 .65-.48 2.69 2.69 0 0 1 .73-.28 3.82 3.82 0 0 1 .75-.08 2.55 2.55 0 0 1 .39 0c.14 0 .28 0 .42.06v-1.5h-12.34V58.7h17.6v2.42h-2.34v13.6z"/><path d="M491.2 61.13h-2.35v13.6h-2.8v-13.6h-2.37V58.7h2.4a6 6 0 0 1-.6-2.47 4.4 4.4 0 0 1 .31-1.62 3.57 3.57 0 0 1 1-1.33 4.74 4.74 0 0 1 1.67-.9 7.87 7.87 0 0 1 2.42-.33 10.1 10.1 0 0 1 3.19.49 11.62 11.62 0 0 1 2.84 1.37 15.25 15.25 0 0 1 2.55 2.13 27.22 27.22 0 0 1 2.34 2.78h-2.58l-.88-.85-1.1-.95a14.78 14.78 0 0 0-1.32-.94 11.06 11.06 0 0 0-1.47-.82 9.34 9.34 0 0 0-1.61-.57 6.58 6.58 0 0 0-1.71-.22 4.65 4.65 0 0 0-1.32.17 2.65 2.65 0 0 0-.93.49 1.81 1.81 0 0 0-.53.73 2.39 2.39 0 0 0-.18.94 3.32 3.32 0 0 0 .14.92 5.27 5.27 0 0 0 .41 1h2.52z"/><path d="M507 61.13h-2.35v13.6h-2.8v-5.57H497v2a1.18 1.18 0 0 1-.1.42.7.7 0 0 1-.24.32.67.67 0 0 1-.45.13 1.88 1.88 0 0 1-.86-.23 4.49 4.49 0 0 1-.93-.61 6.65 6.65 0 0 1-.91-.86 9.49 9.49 0 0 1-.77-1 6.56 6.56 0 0 1-.54-1 2.4 2.4 0 0 1-.2-.87 1.09 1.09 0 0 1 0-.26.42.42 0 0 1 .15-.23 1.11 1.11 0 0 1 .31-.16 1.91 1.91 0 0 1 .54-.06h1.18v-5.6h-3.76V58.7H507zm-10 0v5.62h4.82v-5.62z"/><path d="M518.58 73.68a7.7 7.7 0 0 1-2 .9 8 8 0 0 1-2.2.3 7 7 0 0 1-2.68-.49 5.91 5.91 0 0 1-3.29-3.34 6.81 6.81 0 0 1-.44-2.44 5.68 5.68 0 0 1 .38-2.14 4.22 4.22 0 0 1 1.07-1.53A4.74 4.74 0 0 1 511 64a6.62 6.62 0 0 1 2.1-.31h1.6v-2.56h-8.5V58.7h14.7v2.42h-3.38v5h-3.8a4.58 4.58 0 0 0-1.22.15 2.31 2.31 0 0 0-.92.48 1.92 1.92 0 0 0-.58.83 3.24 3.24 0 0 0-.2 1.23 3.89 3.89 0 0 0 .25 1.44 3.1 3.1 0 0 0 .68 1.09 2.82 2.82 0 0 0 1 .7 3.61 3.61 0 0 0 1.33.24 5.22 5.22 0 0 0 1.14-.14 7.76 7.76 0 0 0 1.19-.37l1.15-.5a8.26 8.26 0 0 0 1-.59z"/><path d="M515 59l-.3-.58-1-1.8-.77-1.23a5.58 5.58 0 0 0-.64-.76 2.1 2.1 0 0 0-.59-.41 1.91 1.91 0 0 0-.62-.17h-2.93v-2.43h2l1.45.06a3.07 3.07 0 0 1 1.09.28 3.12 3.12 0 0 1 .92.7 7.71 7.71 0 0 1 1 1.28l1.16 2.06 1.58 3zm22.24 2.13h-3.38v3.64h-5.4a1.32 1.32 0 0 0-.75.16.64.64 0 0 0-.2.52 1.55 1.55 0 0 0 .06.4 1.09 1.09 0 0 0 .22.39 1.33 1.33 0 0 0 .44.31 1.69 1.69 0 0 0 .72.13h3a3.52 3.52 0 0 1 1.5.28 2.62 2.62 0 0 1 1 .74 3.14 3.14 0 0 1 .53 1.12 5.37 5.37 0 0 1 .16 1.35 5.46 5.46 0 0 1-.34 1.94 4.4 4.4 0 0 1-1 1.6 4.87 4.87 0 0 1-1.7 1.11 6.45 6.45 0 0 1-2.38.4 7.59 7.59 0 0 1-2.76-.51 8.71 8.71 0 0 1-2.41-1.41 9.73 9.73 0 0 1-1.93-2.15 10.28 10.28 0 0 1-1.29-2.74l2.4-1a9.25 9.25 0 0 0 .95 2 8.49 8.49 0 0 0 1.31 1.65 6.66 6.66 0 0 0 1.7 1.16 4.75 4.75 0 0 0 2 .43 3.25 3.25 0 0 0 1.12-.18 2.18 2.18 0 0 0 .81-.48 2 2 0 0 0 .5-.75 2.59 2.59 0 0 0 .17-1 1.86 1.86 0 0 0-.08-.63.78.78 0 0 0-.25-.39 1 1 0 0 0-.45-.19 3.83 3.83 0 0 0-.63 0h-3a2.57 2.57 0 0 1-1.43-.39 3.66 3.66 0 0 1-1-1 4.61 4.61 0 0 1-.58-1.32 5.69 5.69 0 0 1-.18-1.38 3.14 3.14 0 0 1 .19-1.18 1.83 1.83 0 0 1 .55-.75 2.12 2.12 0 0 1 .84-.4 4.49 4.49 0 0 1 1.07-.12h3.75v-1.36h-10.93V58.7h17.07zM208 76.55a7.1 7.1 0 0 1 1.66-.69 6.56 6.56 0 0 1 1.73-.24 5.08 5.08 0 0 1 1.42.2 3.74 3.74 0 0 1 1.2.59 2.83 2.83 0 0 1 .82 1 3 3 0 0 1 .31 1.41 3.09 3.09 0 0 1-.43 1.66 3.55 3.55 0 0 1-1.17 1.14 5.27 5.27 0 0 1-1.68.66 9.1 9.1 0 0 1-2 .21 10.63 10.63 0 0 1-2.61-.3 11.86 11.86 0 0 1-2.16-.76 10.18 10.18 0 0 1-1.7-1 13.21 13.21 0 0 1-1.24-1L204 77.2a14.63 14.63 0 0 0 1.29 1.23 8.27 8.27 0 0 0 1.34.9 6.81 6.81 0 0 0 1.49.55 7.59 7.59 0 0 0 1.71.19 6.15 6.15 0 0 0 .87-.06 2.43 2.43 0 0 0 .75-.2 1.36 1.36 0 0 0 .51-.4 1.06 1.06 0 0 0 .2-.66 1 1 0 0 0-.1-.48.93.93 0 0 0-.26-.33 1 1 0 0 0-.39-.19 1.88 1.88 0 0 0-.49-.06 2.93 2.93 0 0 0-.58.06 3.41 3.41 0 0 0-.57.16l-.5.2a2.78 2.78 0 0 0-.37.22zM57.63 19.8h97.07v120.4H57.63z"/></g><g fill="#eb2227"><path d="M101.07 67.17H99.5V71h1.57v3.83h-5.42V71h1.57v-3.82h-8.55V71h1.57v11.48h-1.57v3.83h8.55v-3.83h-1.57v-3.82h5.42v3.82H99.5v3.83h8.55v-3.83h-1.57V71h1.57v-3.82h-6.98zm19 0h-10.4V71h1.4v11.48h-1.4v3.82h8.56v-3.83h-1.75v-3.82h3.6a5.73 5.73 0 1 0 0-11.46zm-1 7.65h-2.63V71h2.63a1.92 1.92 0 0 1 0 3.83z" fill-rule="evenodd"/><path d="M65.33 29.25H147V45H65.33z"/></g><g fill="#fff"><path d="M72.66 35.17h-.92v5.36h-1.1v-5.36h-.93v-1h1a2.38 2.38 0 0 1-.24-1 1.69 1.69 0 0 1 .12-.64 1.52 1.52 0 0 1 .38-.53 1.88 1.88 0 0 1 .66-.35 3 3 0 0 1 1-.13 4 4 0 0 1 1.26.19 4.75 4.75 0 0 1 1.11.54 5.63 5.63 0 0 1 1 .84 11.23 11.23 0 0 1 .92 1.09h-1l-.34-.33-.57-.3-.52-.37a5.39 5.39 0 0 0-.58-.32 3.35 3.35 0 0 0-.63-.22 2.59 2.59 0 0 0-.68-.09 1.64 1.64 0 0 0-.52.07 1 1 0 0 0-.36.19.75.75 0 0 0-.21.29.87.87 0 0 0-.07.37 1.49 1.49 0 0 0 0 .36 2.1 2.1 0 0 0 .17.39h1z"/><path d="M75.63 39.23a1.57 1.57 0 0 0 .46-.25.41.41 0 0 0 .15-.33.54.54 0 0 0 0-.21.43.43 0 0 0-.16-.17.85.85 0 0 0-.27-.12 1.68 1.68 0 0 0-.41 0 2.56 2.56 0 0 0-.39 0 1.15 1.15 0 0 0-.34.13.75.75 0 0 0-.24.26.83.83 0 0 0-.09.41 1.29 1.29 0 0 0 .1.48 2 2 0 0 0 .26.41 3.11 3.11 0 0 0 .37.35l.43.3.45.23.4.17-.42.9q-.33-.13-.66-.3l-.62-.35a3.74 3.74 0 0 1-.55-.41 3 3 0 0 1-.45-.49 2.19 2.19 0 0 1-.29-.57 2.15 2.15 0 0 1-.1-.68 1.91 1.91 0 0 1 .1-.66 1.44 1.44 0 0 1 .3-.51 2.54 2.54 0 0 1-.16-.28 1.51 1.51 0 0 1-.13-.29 1.9 1.9 0 0 1-.09-.29 1.5 1.5 0 0 1 0-.29 1 1 0 0 1 .06-.34.7.7 0 0 1 .19-.29 1.07 1.07 0 0 1 .35-.2 1.52 1.52 0 0 1 .51-.08h1.73v-.56h-3.77v-1h5.78v1h-1v1.46h-2.62a.24.24 0 0 0-.1.05.21.21 0 0 0-.08.1.35.35 0 0 0 0 .16.47.47 0 0 0 .1.33 2.89 2.89 0 0 1 .94-.15 3 3 0 0 1 .75.09 2 2 0 0 1 .63.28 1.33 1.33 0 0 1 .59 1.16 1.5 1.5 0 0 1-.11.58 1.57 1.57 0 0 1-.72.72 4 4 0 0 1-.47.22z"/><path d="M81.8 35.17h-4v-1h4zm.54 2.36H80.2v.5a1 1 0 0 1 0 .33.33.33 0 0 1-.11.18.39.39 0 0 1-.23.06.89.89 0 0 1-.35-.08 1.18 1.18 0 0 1-.32-.19 1.44 1.44 0 0 1-.27-.28 1.46 1.46 0 0 1-.22-.33 1.7 1.7 0 0 1-.14-.35 1.39 1.39 0 0 1 0-.33.58.58 0 0 1 0-.25.29.29 0 0 1 .14-.13.43.43 0 0 1 .21 0h3.5z"/><path d="M84.64 40.43a4.33 4.33 0 0 0 .36.62l.2.22a1.87 1.87 0 0 1 .49-.07h.23l.34-.34a3.48 3.48 0 0 1-.72-.82 3 3 0 0 0 .23-.27 1.21 1.21 0 0 0 .2-.3 2 2 0 0 0 .14-.34 1.58 1.58 0 0 0 .05-.38 1.14 1.14 0 0 0-.06-.39.92.92 0 0 0-.17-.29.85.85 0 0 0-.25-.17.9.9 0 0 0-1 .32 1.64 1.64 0 0 0-.19.4 1.78 1.78 0 0 0-.06.47 1.47 1.47 0 0 0 0 .36.48.48 0 0 1-.18.06H84a1.27 1.27 0 0 1-.52-.11 1.17 1.17 0 0 1-.4-.3 1.39 1.39 0 0 1-.26-.44 1.62 1.62 0 0 1-.1-.54.91.91 0 0 1 .31-.76 1.26 1.26 0 0 1 .84-.26h1.56v-2h1.3v-1H81v1h3.4v1h-.67a2.72 2.72 0 0 0-.83.13 1.67 1.67 0 0 0-.65.37 1.58 1.58 0 0 0-.42.61 2.35 2.35 0 0 0-.06 1.47 2.31 2.31 0 0 0 .25.58 2.19 2.19 0 0 0 .37.48 2.43 2.43 0 0 0 .48.38 2.78 2.78 0 0 0 .56.24 2.1 2.1 0 0 0 .61.09 1.84 1.84 0 0 0 .33 0 1.3 1.3 0 0 0 .28-.02z"/><path d="M84.66 40.86a2.81 2.81 0 0 1 .59-.24 2.2 2.2 0 0 1 .61-.09 2.09 2.09 0 0 1 .51.07 1.38 1.38 0 0 1 .42.21 1.05 1.05 0 0 1 .3.36 1.12 1.12 0 0 1 .11.5 1 1 0 0 1-.16.59 1.21 1.21 0 0 1-.41.4 1.89 1.89 0 0 1-.6.24 3.29 3.29 0 0 1-.71.07 3.82 3.82 0 0 1-.92-.1 5.73 5.73 0 0 1-.77-.27 3.93 3.93 0 0 1-.61-.36l-.44-.38.65-.77a6.13 6.13 0 0 0 .46.44 3.08 3.08 0 0 0 .48.32 2.39 2.39 0 0 0 .53.19 2.32 2.32 0 0 0 .61.07h.3a.66.66 0 0 0 .26-.07.45.45 0 0 0 .19-.14.42.42 0 0 0 0-.41.34.34 0 0 0-.09-.12.35.35 0 0 0-.14-.06.47.47 0 0 0-.17 0 .75.75 0 0 0-.21 0l-.2.05-.18.08-.08.06zm7.24-5.7h-2.14a3.83 3.83 0 0 1 .26.65 2.39 2.39 0 0 1 .09.66 1.66 1.66 0 0 1 0 .24 2 2 0 0 1 0 .24H92v.94h-2.56a1.66 1.66 0 0 1-.59.24 4.67 4.67 0 0 0 .27.49 5 5 0 0 0 .34.46 6 6 0 0 0 .42.46c.15.15.32.3.5.45l-.7.77a6.35 6.35 0 0 1-.58-.58l-.56-.68-.5-.7-.45-.7-.37-.65-.28-.55.93-.48a2 2 0 0 0 .35.6.52.52 0 0 0 .37.19.33.33 0 0 0 .19-.06.45.45 0 0 0 .13-.14.85.85 0 0 0 .08-.24 1.66 1.66 0 0 0 0-.32 2.32 2.32 0 0 0-.1-.65 2.65 2.65 0 0 0-.3-.61h-2.14v-1h5.45zm4.74 0h-.93v5.36h-1.1v-3.4h-1.17a2.5 2.5 0 0 0-.42 0 .59.59 0 0 0-.29.11.46.46 0 0 0-.18.21 1.06 1.06 0 0 0-.05.34 1.64 1.64 0 0 0 .09.53 2.3 2.3 0 0 0 .26.52 3.22 3.22 0 0 0 .41.52 5 5 0 0 0 .52.5l-.67.75a2.57 2.57 0 0 1-.26-.18 4.64 4.64 0 0 1-.36-.32l-.4-.45a4.48 4.48 0 0 1-.36-.56 4.57 4.57 0 0 1-.26-.68 2.78 2.78 0 0 1-.1-.78 1.77 1.77 0 0 1 .13-.75 1.09 1.09 0 0 1 .38-.46 1.62 1.62 0 0 1 .57-.23 4.15 4.15 0 0 1 .73-.06h1.42v-1h-3.93v-1h6z"/><path d="M99.3 35.17h-.92v5.35h-1.1v-5.35h-.93v-1h3z"/><path d="M105.28 35.17h-.92v5.35h-1.18v-3h-1.83v.5a1.44 1.44 0 0 1 0 .33.29.29 0 0 1-.12.18.34.34 0 0 1-.22.06.89.89 0 0 1-.35-.08 1.18 1.18 0 0 1-.32-.19A1.44 1.44 0 0 1 100 38a1.46 1.46 0 0 1-.22-.33 1.7 1.7 0 0 1-.14-.35 1 1 0 0 1-.04-.32.47.47 0 0 1 .05-.25.27.27 0 0 1 .13-.13.48.48 0 0 1 .22 0h3.18v-1.45H99v-1h6.3zm7.92.01h-.93v5.35h-1.1V38.9a1.92 1.92 0 0 1-1 .32h-.26a1.52 1.52 0 0 1-.37-.09 1.66 1.66 0 0 1-.4-.2 1.37 1.37 0 0 1-.38-.38 2.09 2.09 0 0 1-.27-.6 3.12 3.12 0 0 1-.11-.87v-1.9h-.94v-1h5.82zm-2 0h-1.75v2a2 2 0 0 0 .06.53 1.07 1.07 0 0 0 .17.32.54.54 0 0 0 .24.16 1 1 0 0 0 .3 0 1.06 1.06 0 0 0 .57-.16 1.55 1.55 0 0 0 .41-.46z"/><path d="M111.3 34.35l-.12-.23-.4-.7a4.49 4.49 0 0 0-.31-.48 1.64 1.64 0 0 0-.25-.3.69.69 0 0 0-.23-.16.67.67 0 0 0-.24-.07h-1.15v-.95h1.35a1.35 1.35 0 0 1 .43.12 1.29 1.29 0 0 1 .37.27 4.34 4.34 0 0 1 .37.5l.46.8.62 1.2zm6.46 5.75a2.83 2.83 0 0 1-.8.35 3.15 3.15 0 0 1-.87.12 2.69 2.69 0 0 1-1-.19 2.48 2.48 0 0 1-.8-.53 2.59 2.59 0 0 1-.5-.79 2.77 2.77 0 0 1-.17-1 2.17 2.17 0 0 1 .15-.84 1.63 1.63 0 0 1 .42-.6 1.79 1.79 0 0 1 .65-.36 2.45 2.45 0 0 1 .83-.13h.63v-1h-3.4v-1h5.78v1h-1.33v2h-1.5a1.75 1.75 0 0 0-.48.06.89.89 0 0 0-.36.19.75.75 0 0 0-.23.32 1.51 1.51 0 0 0-.07.5 1.35 1.35 0 0 0 .09.55 1.16 1.16 0 0 0 .27.44 1.41 1.41 0 0 0 .4.27 1.5 1.5 0 0 0 .52.09 2.3 2.3 0 0 0 .45 0 3.68 3.68 0 0 0 .47-.15 2.28 2.28 0 0 0 .45-.2 3.15 3.15 0 0 0 .41-.23z"/><path d="M117.23 42.75l-1.14-1-1.13 1-.62-.75 1.75-1.48 1.78 1.55zm2.2-8.4l-.12-.23-.4-.7q-.17-.28-.3-.48a2.18 2.18 0 0 0-.25-.3 1 1 0 0 0-.23-.16.72.72 0 0 0-.25-.07h-1.15v-.95h1.36a1.43 1.43 0 0 1 .43.12 1.41 1.41 0 0 1 .36.27 3.41 3.41 0 0 1 .37.5l.46.8.62 1.2zm1.92.83h-.93v5.35h-1.1v-5.35h-.93v-1h3z"/><path d="M124 35.18h-.92v5.36H122v-5.36h-.93v-1h1a2.32 2.32 0 0 1-.23-1 1.69 1.69 0 0 1 .12-.64 1.41 1.41 0 0 1 .38-.53 1.82 1.82 0 0 1 .65-.35 3 3 0 0 1 .95-.13 4 4 0 0 1 1.26.19 5 5 0 0 1 1.12.54 6 6 0 0 1 1 .84 9.23 9.23 0 0 1 .92 1.1h-1l-.35-.34-.44-.38-.5-.37c-.18-.12-.38-.22-.6-.32a3.35 3.35 0 0 0-.63-.22 2.52 2.52 0 0 0-.67-.09 1.92 1.92 0 0 0-.52.07 1.17 1.17 0 0 0-.37.19.86.86 0 0 0-.21.29 1.06 1.06 0 0 0-.07.37 1.13 1.13 0 0 0 .06.36 2 2 0 0 0 .16.39h1z"/><path d="M128.62 40.53v-3.7h-.2a.62.62 0 0 0-.52.25.85.85 0 0 0-.13.25 1 1 0 0 0 0 .29.49.49 0 0 0 0 .12v.13h-1c0-.13 0-.26-.06-.4a2.27 2.27 0 0 0-.11-.34.8.8 0 0 0-.18-.25.39.39 0 0 0-.26-.09.38.38 0 0 0-.22.06.5.5 0 0 0-.15.17.58.58 0 0 0-.09.26 1.69 1.69 0 0 0 0 .33 1.86 1.86 0 0 0 .16.79 2.43 2.43 0 0 0 .43.63 3.35 3.35 0 0 0 .62.49 5 5 0 0 0 .72.39l-.5.84-.42-.2a4.28 4.28 0 0 1-.54-.34 4.72 4.72 0 0 1-.57-.47 4.31 4.31 0 0 1-.52-.6 3.06 3.06 0 0 1-.37-.72 2.41 2.41 0 0 1-.15-.85 2.36 2.36 0 0 1 .11-.72 1.86 1.86 0 0 1 .32-.59 1.57 1.57 0 0 1 .49-.4 1.41 1.41 0 0 1 .65-.14 1.35 1.35 0 0 1 .43.06 1.07 1.07 0 0 1 .32.16 1.55 1.55 0 0 1 .23.21l.15.2a1 1 0 0 1 .21-.27.92.92 0 0 1 .25-.19 1 1 0 0 1 .29-.11 1.43 1.43 0 0 1 .29 0h.32v-.6h-4.9v-1h6.93v1h-.92v5.35z"/><path d="M130.34 35.17v-1h6.07v1h-.92v5.35h-1.1V39l-.22.14-.25.13-.3.08a1.53 1.53 0 0 1-.38 0 1.89 1.89 0 0 1-.94-.22 2.21 2.21 0 0 1-.69-.56 2.88 2.88 0 0 1-.44-.79 4 4 0 0 1-.23-.89 1.81 1.81 0 0 0 .46-.12.94.94 0 0 0 .29-.21.66.66 0 0 0 .16-.26.81.81 0 0 0 0-.31 1.06 1.06 0 0 0-.07-.38 1.55 1.55 0 0 0-.21-.43zm2.66 1a1.27 1.27 0 0 1-.21.72 1.39 1.39 0 0 1-.61.5 1.22 1.22 0 0 0 .15.42 1.19 1.19 0 0 0 .25.29.87.87 0 0 0 .3.16 1 1 0 0 0 .35.06 1.19 1.19 0 0 0 .68-.2 1.53 1.53 0 0 0 .48-.55v-2.4h-1.7a2 2 0 0 1 .24.51 1.69 1.69 0 0 1 .07.48z"/><path d="M142.64 35.18h-.93v5.35h-1.1v-2.2h-1.9v.78a.85.85 0 0 1 0 .17.41.41 0 0 1-.1.13.3.3 0 0 1-.18 0 .75.75 0 0 1-.33-.09 1.94 1.94 0 0 1-.37-.24 2.85 2.85 0 0 1-.36-.34q-.17-.2-.3-.4a2.21 2.21 0 0 1-.21-.4.76.76 0 0 1-.08-.34.34.34 0 0 1 0-.1.18.18 0 0 1 .06-.09.23.23 0 0 1 .12-.06.58.58 0 0 1 .21 0h.47v-2.2h-1.48v-1h6.5zm-3.93 0v2.2h1.9v-2.2z"/></g><path d="M59.5 21.66v116.68h93.33V21.66zm91.5 114.8H61.36V23.53H151zM73.14 94.3l2.23-.08a31.05 31.05 0 0 1 30 23.25 32.17 32.17 0 0 1 .76 4 31.63 31.63 0 0 1 .71-3.81A31 31 0 0 1 137 94.23l2.22.08 1.86.2.12-2.83a35 35 0 1 0-70 0l.1 2.83 1.83-.2zm33-35.78a33.2 33.2 0 0 1 32.7 27.78h-.5a33.14 33.14 0 0 0-32.2 25.31A33.13 33.13 0 0 0 74 86.3h-.5a33.19 33.19 0 0 1 32.67-27.77zm-1.6 66.24A29.18 29.18 0 0 0 75.37 96.1l-2 .07c-.63 0-1.25.1-1.86.2a35 35 0 0 0 33 30.27v-1.87zM75 102.9a23.68 23.68 0 0 1 4.8-.5 23.11 23.11 0 0 1 23.08 22.23A33.23 33.23 0 0 1 75 102.9zm64-6.73c-.67 0-1.34-.07-2-.07a29.17 29.17 0 0 0-29.16 28.66v1.87a35 35 0 0 0 33-30.27l-1.86-.2zm-29.53 28.47a23.1 23.1 0 0 1 27.86-21.72 33.21 33.21 0 0 1-27.87 21.72z" fill="#1e4384"/></svg>