<?xml version="1.0" encoding="utf-8"?>
<!-- Generator: Adobe Illustrator 23.0.6, SVG Export Plug-In . SVG Version: 6.00 Build 0)  -->
<svg version="1.1" id="Layer_1" xmlns="http://www.w3.org/2000/svg" xmlns:xlink="http://www.w3.org/1999/xlink" x="0px" y="0px"
	 viewBox="0 0 799.3 160" style="enable-background:new 0 0 799.3 160;" xml:space="preserve">
<style type="text/css">
	.st0{fill:#FFFFFF;}
	.st1{fill:url(#SVGID_1_);}
	.st2{fill-rule:evenodd;clip-rule:evenodd;fill:#EB2227;}
	.st3{fill:#EB2227;}
	.st4{fill:#1E4384;}
</style>
<title>Asset 5</title>
<polygon class="st0" points="12.1,0 12.1,160 799.3,160 650.2,0 "/>
<linearGradient id="SVGID_1_" gradientUnits="userSpaceOnUse" x1="0" y1="79.89" x2="787.23" y2="79.89" gradientTransform="matrix(1 0 0 -1 0 159.89)">
	<stop  offset="0" style="stop-color:#53528A"/>
	<stop  offset="1" style="stop-color:#6B71DC"/>
</linearGradient>
<polygon class="st1" points="0,0 0,160 787.2,160 638.1,0 "/>
<path class="st0" d="M172.1,103.6V86.4h3.6V93h6.7v-6.6h3.6v17.3h-3.6v-7.7h-6.7v7.7H172.1z"/>
<path class="st0" d="M192.6,89.3h-3.4v-3.1h3.4V89.3z M189.2,90.9h3.4v12.8h-3.4V90.9z"/>
<path class="st0" d="M206.2,91.6c0.9,0.9,1.4,2.1,1.2,3.4v8.6H204v-7.7c0-0.5-0.1-1.1-0.3-1.6c-0.4-0.7-1.1-1.1-1.9-1
	c-1-0.1-1.9,0.5-2.3,1.4c-0.2,0.6-0.4,1.3-0.3,2v6.9h-3.3V90.9h3.2v1.9c0.3-0.5,0.7-1,1.2-1.4c0.8-0.5,1.7-0.8,2.6-0.8
	C204.1,90.5,205.2,90.9,206.2,91.6z"/>
<path class="st0" d="M217.3,91.1c0.6,0.3,1.1,0.8,1.5,1.4v-6.1h3.4v17.2h-3.2v-1.8c-0.4,0.7-1,1.2-1.6,1.7c-0.7,0.4-1.5,0.5-2.3,0.5
	c-1.5,0-2.9-0.7-3.8-1.8c-1.1-1.3-1.6-3-1.5-4.7c-0.1-1.8,0.4-3.6,1.5-5.1c1-1.2,2.4-1.9,4-1.9C215.9,90.5,216.7,90.7,217.3,91.1z
	 M218.1,100.2c0.5-0.8,0.8-1.8,0.7-2.7c0.1-1.2-0.3-2.5-1.2-3.3c-0.5-0.4-1.1-0.6-1.7-0.6c-0.9-0.1-1.7,0.4-2.1,1.1
	c-0.9,1.7-0.9,3.8,0,5.6c0.5,0.7,1.3,1.1,2.1,1.1C216.8,101.3,217.6,100.9,218.1,100.2z"/>
<path class="st0" d="M228.5,90.9v7.7c0,0.6,0.1,1.1,0.2,1.6c0.3,0.7,1,1.1,1.8,1c1,0.1,1.9-0.5,2.3-1.4c0.2-0.6,0.4-1.3,0.3-2v-7
	h3.4v12.8h-3.2v-1.8l-0.2,0.4c-0.1,0.2-0.3,0.4-0.4,0.5c-0.4,0.4-0.9,0.8-1.5,1c-0.6,0.2-1.1,0.3-1.7,0.3c-1.6,0.2-3.1-0.6-3.8-2
	c-0.4-1.1-0.6-2.2-0.5-3.3v-7.7L228.5,90.9z"/>
<path class="st0" d="M242.4,99.6c0,0.5,0.2,0.9,0.5,1.3c0.6,0.5,1.5,0.8,2.3,0.7c0.5,0,1.1-0.1,1.6-0.3c0.4-0.1,0.6-0.5,0.6-0.9
	c0-0.3-0.2-0.7-0.5-0.8c-1.1-0.4-2.3-0.8-3.5-1c-1.1-0.2-2.2-0.7-3.1-1.3c-0.6-0.6-0.9-1.4-0.9-2.3c0-1.2,0.5-2.2,1.4-3
	c1.1-0.9,2.5-1.4,3.9-1.3c1.4,0,2.7,0.3,3.9,1c1.1,0.7,1.7,2,1.7,3.3H247c0-0.4-0.1-0.7-0.4-1c-0.5-0.5-1.2-0.8-1.9-0.7
	c-0.5,0-1.1,0.1-1.6,0.3c-0.3,0.2-0.4,0.5-0.5,0.8c0,0.4,0.2,0.7,0.5,0.8c1.1,0.4,2.3,0.7,3.5,0.9c1.1,0.2,2.1,0.7,3,1.4
	c0.7,0.6,1,1.5,1,2.4c0,1.2-0.5,2.3-1.4,3.1c-1.3,0.9-2.8,1.3-4.4,1.2c-1.6,0.1-3.2-0.3-4.5-1.3c-1-0.8-1.5-2.1-1.5-3.4H242.4z"/>
<path class="st0" d="M251.9,93.4V91h1.8v-3.6h3.4V91h2v2.4h-2v6.8c0,0.3,0,0.7,0.2,1c0.4,0.2,0.8,0.2,1.2,0.2h0.3h0.3v2.5l-1.6,0.1
	c-1.6,0.1-2.7-0.2-3.2-0.8c-0.4-0.5-0.6-1.1-0.6-1.8v-7.9H251.9z"/>
<path class="st0" d="M266.2,95.9c0.5,0,0.9-0.1,1.3-0.3c0.4-0.1,0.7-0.5,0.7-1c0-0.4-0.2-0.9-0.5-1.1c-0.5-0.2-1.1-0.3-1.6-0.3
	c-0.6-0.1-1.2,0.1-1.7,0.6c-0.3,0.3-0.4,0.7-0.5,1.2h-3.2c0-1,0.4-1.9,0.9-2.8c0.9-1.1,2.4-1.7,4.6-1.7c1.3,0,2.6,0.3,3.7,0.8
	c1.1,0.6,1.8,1.9,1.6,3.1v5.9c0,0.4,0,0.9,0,1.5c0,0.3,0.1,0.6,0.2,0.9c0.1,0.2,0.3,0.3,0.5,0.4v0.5h-3.6c-0.1-0.2-0.2-0.5-0.2-0.7
	c0-0.2-0.1-0.5-0.1-0.8c-0.5,0.5-1,0.9-1.6,1.3c-0.7,0.4-1.6,0.6-2.5,0.6c-1.1,0-2.1-0.3-2.9-1c-0.8-0.7-1.2-1.7-1.1-2.8
	c-0.1-1.4,0.6-2.7,1.8-3.4c0.9-0.5,1.9-0.7,3-0.8L266.2,95.9z M268.2,97.4c-0.2,0.1-0.4,0.2-0.6,0.3c-0.3,0.1-0.6,0.2-0.9,0.2
	l-0.8,0.1c-0.5,0.1-1,0.2-1.5,0.5c-0.5,0.3-0.8,0.8-0.8,1.4c0,0.5,0.1,0.9,0.5,1.2c0.3,0.3,0.7,0.4,1.2,0.4c0.7,0,1.4-0.2,2-0.6
	c0.7-0.6,1.1-1.4,1-2.3L268.2,97.4z"/>
<path class="st0" d="M284.8,91.6c0.9,0.9,1.4,2.1,1.2,3.4v8.6h-3.4v-7.7c0-0.5-0.1-1.1-0.3-1.6c-0.4-0.7-1.1-1.1-1.9-1
	c-1-0.1-1.9,0.5-2.3,1.4c-0.2,0.6-0.3,1.3-0.3,2v6.9h-3.3V90.9h3.2v1.9c0.3-0.5,0.7-1,1.2-1.4c0.8-0.5,1.7-0.8,2.6-0.8
	C282.8,90.5,283.9,90.9,284.8,91.6z"/>
<path class="st0" d="M307.7,96.2c-1.2,0.9-2.8,1.4-4.3,1.3h-3.6v6.2h-3.6V86.4h7.4c1.5-0.1,2.9,0.4,4.1,1.3c1.1,1.1,1.7,2.6,1.5,4.1
	C309.2,93.9,308.7,95.3,307.7,96.2z M305,89.9c-0.6-0.4-1.2-0.6-1.9-0.6h-3.2v5.1h3.2c0.7,0,1.4-0.2,1.9-0.6c0.5-0.5,0.8-1.3,0.7-2
	C305.7,91.1,305.5,90.4,305,89.9z"/>
<path class="st0" d="M320.2,91.1c0.9,0.4,1.7,1,2.2,1.9c0.5,0.8,0.9,1.7,1,2.7c0.1,0.8,0.1,1.7,0.1,2.5h-9.3
	c-0.1,1.1,0.4,2.1,1.3,2.7c0.6,0.3,1.2,0.5,1.8,0.5c0.7,0,1.3-0.2,1.9-0.6c0.3-0.2,0.5-0.5,0.7-0.9h3.4c-0.2,0.9-0.6,1.7-1.2,2.3
	c-1.3,1.3-3,2-4.8,1.9c-1.6,0-3.2-0.5-4.5-1.6c-1.3-1-2-2.7-2-5.1c-0.1-1.9,0.5-3.7,1.8-5.1c1.2-1.2,2.9-1.8,4.6-1.8
	C318.2,90.5,319.2,90.7,320.2,91.1z M315.2,94c-0.5,0.6-0.8,1.3-0.9,2h5.8c0-0.8-0.3-1.5-0.9-2c-0.6-0.5-1.3-0.7-2-0.7
	C316.4,93.3,315.7,93.5,315.2,94L315.2,94z"/>
<path class="st0" d="M323.9,93.4V91h1.8v-3.6h3.3V91h2.1v2.4H329v6.8c0,0.3,0,0.7,0.2,1c0.4,0.2,0.8,0.2,1.2,0.2h0.3h0.3v2.5
	l-1.6,0.1c-1.6,0.1-2.6-0.2-3.2-0.8c-0.4-0.5-0.6-1.1-0.6-1.8v-7.9H323.9z"/>
<path class="st0" d="M340.3,90.6h0.3V94c-0.2,0-0.4,0-0.6-0.1h-0.4c-1.1-0.1-2.1,0.4-2.7,1.3c-0.3,0.7-0.4,1.5-0.4,2.3v6.1h-3.4
	V90.9h3.2v2.2c0.4-0.6,0.8-1.2,1.4-1.7c0.7-0.6,1.6-0.8,2.4-0.8L340.3,90.6z"/>
<path class="st0" d="M353.2,102.1c-2.7,2.7-7.1,2.7-9.8,0c-2.1-2.8-2.1-6.8,0-9.6c2.7-2.7,7.1-2.7,9.8,0
	C355.4,95.3,355.4,99.2,353.2,102.1z M350.5,100.2c1.1-1.8,1.1-4.1,0-5.9c-0.5-0.7-1.4-1.1-2.2-1c-0.9-0.1-1.7,0.3-2.3,1
	c-1.1,1.8-1.1,4.1,0,5.9c0.5,0.7,1.4,1.1,2.3,1C349.1,101.3,350,100.9,350.5,100.2z"/>
<path class="st0" d="M360.6,103.6h-3.3V86.4h3.3V103.6z"/>
<path class="st0" d="M372.2,91.1c0.9,0.4,1.7,1,2.2,1.9c0.5,0.8,0.9,1.7,1,2.7c0.1,0.8,0.1,1.7,0.1,2.5h-9.3
	c-0.1,1.1,0.5,2.1,1.3,2.7c0.6,0.3,1.2,0.5,1.8,0.5c0.7,0,1.3-0.2,1.9-0.6c0.3-0.2,0.5-0.5,0.7-0.9h3.4c-0.2,0.9-0.6,1.7-1.2,2.3
	c-1.3,1.3-3,2-4.8,1.9c-1.6,0-3.2-0.5-4.5-1.6c-1.3-1-2-2.7-2-5.1c-0.1-1.9,0.5-3.7,1.8-5.1c1.2-1.2,2.9-1.8,4.6-1.8
	C370.2,90.5,371.2,90.7,372.2,91.1z M367.2,94c-0.5,0.6-0.8,1.3-0.9,2h5.8c0-0.8-0.3-1.5-0.9-2c-0.6-0.5-1.3-0.7-2-0.7
	C368.4,93.3,367.7,93.5,367.2,94L367.2,94z"/>
<path class="st0" d="M380.5,90.9v7.7c0,0.6,0.1,1.1,0.3,1.6c0.3,0.7,1,1.1,1.8,1c1,0.1,1.9-0.5,2.3-1.4c0.2-0.6,0.3-1.3,0.3-2v-7
	h3.4v12.8h-3.2v-1.8c0,0-0.1,0.2-0.2,0.4c-0.1,0.2-0.3,0.4-0.4,0.5c-0.4,0.4-1,0.8-1.5,1c-0.6,0.2-1.1,0.3-1.7,0.3
	c-1.9,0-3.2-0.7-3.8-2c-0.4-1-0.6-2.2-0.5-3.3v-7.7L380.5,90.9z"/>
<path class="st0" d="M407.8,90.9c0.6,0.2,1.1,0.6,1.5,1.2c0.4,0.5,0.6,1,0.7,1.6c0.1,0.6,0.1,1.3,0.1,1.9v8h-3.4v-8.1
	c0-0.4-0.1-0.8-0.2-1.2c-0.3-0.6-1-1-1.6-0.9c-0.8-0.1-1.6,0.4-1.9,1.2c-0.2,0.5-0.3,1-0.3,1.5v7.6h-3.4V96c0-0.6-0.1-1.1-0.2-1.7
	c-0.3-0.6-1-1-1.7-0.9c-0.8-0.1-1.5,0.3-1.9,0.9c-0.2,0.5-0.3,1.1-0.3,1.7v7.7h-3.4V90.9h3.2v1.9c0.3-0.5,0.7-1,1.2-1.4
	c0.7-0.5,1.6-0.8,2.5-0.7c0.8,0,1.7,0.2,2.4,0.6c0.5,0.4,0.9,0.9,1.1,1.5c0.4-0.7,0.9-1.3,1.6-1.7c0.7-0.4,1.5-0.5,2.3-0.5
	C406.7,90.6,407.3,90.7,407.8,90.9z"/>
<path class="st0" d="M421.8,88.2c1.4-1.4,3.3-2.2,5.3-2.2c2.9,0,5,1,6.3,2.9c0.7,0.9,1.1,2.1,1.2,3.2H431c-0.2-0.7-0.5-1.3-0.9-1.9
	c-0.7-0.8-1.8-1.2-2.9-1.1c-1.2,0-2.3,0.6-3,1.6c-0.8,1.3-1.2,2.9-1.1,4.5c-0.1,1.5,0.3,3.1,1.2,4.4c0.7,0.9,1.8,1.5,3,1.4
	c1.1,0.1,2.1-0.4,2.8-1.2c0.4-0.6,0.7-1.3,0.9-2h3.6c-0.2,1.8-1.1,3.4-2.4,4.6c-1.3,1.2-3.1,1.8-4.9,1.8c-2.2,0.1-4.3-0.8-5.8-2.4
	c-1.5-1.9-2.2-4.2-2.1-6.6C419.4,92.1,420.2,89.8,421.8,88.2z"/>
<path class="st0" d="M447.9,102.1c-2.7,2.7-7.1,2.7-9.8,0c-2.2-2.8-2.2-6.8,0-9.6c2.7-2.7,7.1-2.7,9.8,0
	C450,95.3,450,99.2,447.9,102.1z M445.2,100.2c1.1-1.8,1.1-4.1,0-5.9c-1.1-1.2-3-1.4-4.2-0.3c-0.1,0.1-0.2,0.2-0.3,0.3
	c-1.1,1.8-1.1,4.1,0,5.9c1.1,1.2,3,1.4,4.2,0.3C445,100.4,445.1,100.3,445.2,100.2z"/>
<path class="st0" d="M459,90.6h0.3V94c-0.2,0-0.4,0-0.6-0.1h-0.4c-1.1-0.1-2.1,0.4-2.7,1.3c-0.3,0.7-0.4,1.5-0.4,2.3v6.1h-3.4V90.9
	h3.1v2.2c0.4-0.6,0.8-1.2,1.3-1.7c0.7-0.5,1.6-0.8,2.4-0.8L459,90.6z"/>
<path class="st0" d="M472,92.2c1.1,1.4,1.7,3.1,1.6,4.8c0.1,1.8-0.4,3.7-1.5,5.1c-1,1.2-2.4,1.8-3.9,1.8c-0.9,0-1.8-0.2-2.5-0.8
	c-0.4-0.3-0.8-0.8-1.1-1.2v6.7h-3.3V90.9h3.2v1.9c0.3-0.5,0.7-0.9,1.2-1.3c0.8-0.6,1.7-0.9,2.7-0.8C469.6,90.6,471,91.2,472,92.2z
	 M469.4,94.6c-0.5-0.8-1.3-1.2-2.2-1.1c-1.1-0.1-2.2,0.7-2.5,1.7c-0.3,0.7-0.4,1.5-0.4,2.3c-0.1,1.2,0.3,2.3,1.2,3.1
	c0.5,0.4,1.1,0.5,1.7,0.5c0.9,0,1.7-0.4,2.1-1.1C470.3,98.4,470.4,96.4,469.4,94.6z"/>
<path class="st0" d="M486.5,102.1c-2.7,2.7-7.1,2.7-9.8,0c-2.2-2.8-2.2-6.8,0-9.6c2.7-2.7,7.1-2.7,9.8,0
	C488.7,95.3,488.7,99.2,486.5,102.1z M483.9,100.2c1.1-1.8,1.1-4.1,0-5.9c-1.1-1.2-3-1.4-4.2-0.3c-0.1,0.1-0.2,0.2-0.3,0.3
	c-1.1,1.8-1.1,4.1,0,5.9c1.1,1.2,3,1.4,4.2,0.3C483.7,100.4,483.8,100.3,483.9,100.2z"/>
<path class="st0" d="M497.6,90.6h0.3V94c-0.2,0-0.4,0-0.6-0.1H497c-1.1-0.1-2.1,0.4-2.7,1.3c-0.3,0.7-0.4,1.5-0.4,2.3v6.1h-3.4V90.9
	h3.2v2.2c0.3-0.6,0.8-1.2,1.3-1.7c0.7-0.5,1.6-0.8,2.4-0.8L497.6,90.6z"/>
<path class="st0" d="M504.9,95.9c0.5,0,0.9-0.1,1.3-0.3c0.4-0.1,0.7-0.5,0.7-1c0-0.4-0.2-0.9-0.6-1.1c-0.5-0.2-1.1-0.3-1.6-0.3
	c-0.6-0.1-1.2,0.1-1.7,0.6c-0.3,0.3-0.4,0.7-0.5,1.2h-3.2c0-1,0.4-2,0.9-2.8c0.9-1.1,2.4-1.7,4.6-1.7c1.3,0,2.6,0.3,3.8,0.8
	c1.1,0.6,1.8,1.9,1.6,3.1v5.9c0,0.4,0,0.9,0,1.5c0,0.3,0.1,0.6,0.2,0.9c0.1,0.2,0.3,0.3,0.5,0.4v0.5h-3.6c-0.1-0.2-0.2-0.5-0.2-0.7
	c0-0.3-0.1-0.5-0.1-0.8c-0.5,0.5-1,0.9-1.6,1.3c-0.7,0.4-1.6,0.6-2.4,0.6c-1.1,0-2.1-0.3-2.9-1c-0.8-0.7-1.2-1.8-1.1-2.8
	c-0.1-1.4,0.6-2.7,1.8-3.4c0.9-0.5,2-0.7,3-0.8L504.9,95.9z M506.9,97.4c-0.2,0.1-0.4,0.2-0.6,0.3c-0.3,0.1-0.6,0.2-0.9,0.2
	l-0.8,0.1c-0.5,0.1-1.1,0.2-1.5,0.5c-0.5,0.3-0.8,0.8-0.8,1.4c0,0.5,0.1,0.9,0.5,1.2c0.3,0.3,0.7,0.4,1.2,0.4c0.7,0,1.4-0.2,2-0.6
	c0.7-0.6,1.1-1.4,1-2.3L506.9,97.4z"/>
<path class="st0" d="M511.9,93.4V91h1.8v-3.6h3.3V91h2.1v2.4H517v6.8c0,0.3,0,0.7,0.2,1c0.4,0.2,0.8,0.2,1.2,0.2h0.3h0.3v2.5
	l-1.6,0.1c-1.6,0.1-2.7-0.2-3.2-0.8c-0.4-0.5-0.6-1.1-0.6-1.8v-7.9H511.9z"/>
<path class="st0" d="M524.7,89.3h-3.4v-3.1h3.4V89.3z M521.3,90.9h3.4v12.8h-3.4V90.9z"/>
<path class="st0" d="M538.5,102.1c-2.7,2.7-7.1,2.7-9.8,0c-2.1-2.8-2.1-6.8,0-9.6c2.7-2.7,7.1-2.7,9.8,0
	C540.7,95.3,540.7,99.2,538.5,102.1z M535.9,100.2c1.1-1.8,1.1-4.1,0-5.9c-0.5-0.7-1.4-1.1-2.2-1c-0.9-0.1-1.7,0.3-2.3,1
	c-1.1,1.8-1.1,4.1,0,5.9c0.5,0.7,1.4,1.1,2.3,1C534.5,101.3,535.3,100.9,535.9,100.2L535.9,100.2z"/>
<path class="st0" d="M552.8,91.6c0.9,0.9,1.4,2.1,1.3,3.4v8.6h-3.4v-7.7c0-0.5-0.1-1.1-0.3-1.6c-0.4-0.7-1.1-1.1-1.9-1
	c-1-0.1-1.9,0.5-2.3,1.4c-0.2,0.6-0.4,1.3-0.3,2v6.9h-3.3V90.9h3.2v1.9c0.3-0.5,0.7-1,1.2-1.4c0.8-0.5,1.7-0.8,2.6-0.8
	C550.8,90.5,551.9,90.9,552.8,91.6z"/>
<path class="st0" d="M564.1,86.4h3.6v14.2h8.6v3.1h-12.2V86.4z"/>
<path class="st0" d="M582,89.3h-3.4v-3.1h3.4V89.3z M578.6,90.9h3.4v12.8h-3.4V90.9z"/>
<path class="st0" d="M601.1,90.9c0.6,0.2,1.1,0.6,1.5,1.2c0.4,0.5,0.6,1,0.7,1.6c0.1,0.6,0.1,1.3,0.1,1.9v8H600v-8.1
	c0-0.4-0.1-0.8-0.2-1.2c-0.3-0.6-1-1-1.7-0.9c-0.8-0.1-1.6,0.4-1.9,1.2C596,95,596,95.5,596,96v7.6h-3.4V96c0-0.6-0.1-1.1-0.2-1.7
	c-0.3-0.6-1-1-1.7-0.9c-0.8-0.1-1.5,0.3-1.9,0.9c-0.2,0.5-0.3,1-0.3,1.6v7.7h-3.4V90.9h3.2v1.9c0.3-0.5,0.7-1,1.2-1.4
	c0.7-0.5,1.6-0.8,2.5-0.7c0.8,0,1.7,0.2,2.4,0.6c0.5,0.4,0.9,0.9,1.1,1.5c0.4-0.7,0.9-1.3,1.6-1.7c0.7-0.4,1.5-0.5,2.3-0.5
	C600,90.6,600.6,90.7,601.1,90.9z"/>
<path class="st0" d="M610,89.3h-3.4v-3.1h3.4V89.3z M606.6,90.9h3.4v12.8h-3.4V90.9z"/>
<path class="st0" d="M611.9,93.4V91h1.8v-3.6h3.3V91h2.1v2.4H617v6.8c0,0.5,0.1,0.8,0.2,1c0.4,0.2,0.8,0.2,1.2,0.2h0.3h0.3v2.5
	l-1.6,0.1c-1.6,0.1-2.7-0.2-3.2-0.8c-0.4-0.5-0.6-1.1-0.6-1.8v-7.9H611.9z"/>
<path class="st0" d="M629.5,91.1c0.9,0.4,1.7,1,2.2,1.9c0.5,0.8,0.9,1.7,1,2.7c0.1,0.8,0.1,1.7,0.1,2.5h-9.3
	c-0.1,1.1,0.5,2.1,1.3,2.7c0.6,0.3,1.2,0.5,1.8,0.5c0.7,0,1.3-0.2,1.8-0.6c0.3-0.2,0.5-0.5,0.7-0.9h3.4c-0.2,0.9-0.6,1.7-1.2,2.3
	c-1.3,1.3-3,2-4.8,1.9c-1.6,0-3.2-0.5-4.5-1.6c-1.3-1-2-2.7-2-5.1c-0.1-1.9,0.5-3.7,1.8-5.1c1.2-1.2,2.9-1.8,4.6-1.8
	C627.6,90.5,628.6,90.7,629.5,91.1z M624.5,94c-0.5,0.6-0.8,1.3-0.9,2h5.8c0-0.8-0.3-1.5-0.9-2c-0.6-0.5-1.3-0.7-2-0.7
	C625.8,93.3,625.1,93.5,624.5,94L624.5,94z"/>
<path class="st0" d="M641.3,91.1c0.6,0.3,1.1,0.8,1.5,1.4v-6.1h3.4v17.2h-3.2v-1.8c-0.4,0.7-1,1.2-1.6,1.7c-0.7,0.4-1.5,0.5-2.3,0.5
	c-1.5,0-2.9-0.7-3.8-1.8c-1.1-1.3-1.6-3-1.5-4.7c-0.1-1.8,0.4-3.7,1.5-5.1c1-1.2,2.4-1.9,4-1.9C639.9,90.5,640.7,90.7,641.3,91.1z
	 M642.1,100.2c0.5-0.8,0.8-1.8,0.7-2.7c0.1-1.2-0.3-2.5-1.2-3.3c-0.5-0.4-1.1-0.6-1.7-0.6c-0.9-0.1-1.7,0.4-2.2,1.1
	c-0.5,0.8-0.7,1.8-0.7,2.8c0,1,0.2,2,0.7,2.8c0.5,0.7,1.3,1.1,2.1,1.1C640.8,101.3,641.6,100.9,642.1,100.2z"/>
<path class="st0" d="M177.8,61.1h-2.3v13.6h-2.8V61.1h-2.4v-2.4h2.4c-0.4-0.8-0.6-1.6-0.6-2.5c0-0.6,0.1-1.1,0.3-1.6
	c0.2-0.5,0.6-1,1-1.3c0.5-0.4,1.1-0.7,1.7-0.9c0.8-0.2,1.6-0.3,2.4-0.3c1.1,0,2.2,0.2,3.2,0.5c1,0.3,2,0.8,2.8,1.4
	c0.9,0.6,1.8,1.3,2.6,2.1c0.8,0.9,1.6,1.8,2.3,2.8h-2.6L185,58c-0.3-0.3-0.7-0.6-1.1-1c-0.4-0.3-0.9-0.7-1.3-0.9
	c-0.5-0.3-1-0.6-1.5-0.8c-0.5-0.2-1.1-0.4-1.6-0.6c-0.6-0.1-1.1-0.2-1.7-0.2c-0.4,0-0.9,0.1-1.3,0.2c-0.3,0.1-0.6,0.3-0.9,0.5
	c-0.2,0.2-0.4,0.4-0.5,0.7c-0.1,0.3-0.2,0.6-0.2,0.9c0,0.3,0,0.6,0.1,0.9c0.1,0.3,0.2,0.7,0.4,1h2.5L177.8,61.1z"/>
<path class="st0" d="M185.4,71.4c0.4-0.1,0.8-0.4,1.2-0.6c0.2-0.2,0.4-0.5,0.4-0.8c0-0.2,0-0.4-0.1-0.5c-0.1-0.2-0.2-0.3-0.4-0.4
	c-0.2-0.1-0.5-0.2-0.7-0.3c-0.3-0.1-0.7-0.1-1-0.1c-0.3,0-0.7,0-1,0.1c-0.3,0.1-0.6,0.2-0.9,0.3c-0.3,0.2-0.5,0.4-0.6,0.7
	c-0.2,0.3-0.2,0.7-0.2,1c0,0.4,0.1,0.8,0.2,1.2c0.2,0.4,0.4,0.7,0.7,1c0.3,0.3,0.6,0.6,0.9,0.9c0.4,0.3,0.7,0.5,1.1,0.7
	c0.4,0.2,0.8,0.4,1.1,0.6s0.7,0.3,1,0.4l-1.1,2.4c-0.6-0.2-1.1-0.5-1.7-0.8c-0.5-0.3-1.1-0.6-1.6-0.9c-0.5-0.3-1-0.6-1.4-1
	c-0.4-0.4-0.8-0.8-1.1-1.2c-0.3-0.5-0.6-0.9-0.7-1.5c-0.2-0.6-0.3-1.1-0.3-1.7c0-0.6,0.1-1.1,0.3-1.7c0.2-0.5,0.4-0.9,0.8-1.3
	c-0.2-0.2-0.3-0.5-0.4-0.7c-0.1-0.2-0.2-0.5-0.3-0.8c-0.1-0.2-0.2-0.5-0.2-0.8c-0.1-0.2-0.1-0.5-0.1-0.7c0-0.3,0.1-0.6,0.1-0.9
	c0.1-0.3,0.3-0.5,0.5-0.7c0.2-0.2,0.5-0.4,0.9-0.5c0.4-0.1,0.9-0.2,1.3-0.2h4.4v-1.5h-9.4v-2.4h14.7v2.4h-2.5v3.7h-6.4
	c-0.1,0-0.2,0-0.3,0c-0.1,0-0.2,0.1-0.3,0.1c-0.1,0.1-0.2,0.2-0.2,0.3c-0.1,0.1-0.1,0.3-0.1,0.4c0,0.2,0,0.3,0.1,0.5
	c0,0.1,0.1,0.3,0.2,0.4c1.4-0.4,2.9-0.5,4.3-0.1c0.6,0.1,1.1,0.4,1.6,0.7c0.5,0.3,0.8,0.7,1.1,1.2c0.3,0.5,0.4,1.1,0.4,1.7
	c0,0.5-0.1,1-0.3,1.5c-0.2,0.4-0.4,0.8-0.8,1.1c-0.3,0.3-0.7,0.6-1.1,0.8c-0.4,0.2-0.8,0.4-1.2,0.6L185.4,71.4z"/>
<path class="st0" d="M201.1,61.1H191v-2.4h10.1V61.1z M202.4,67.1H197c0,0.5,0,0.9,0,1.2c0,0.3,0,0.6-0.1,0.8c0,0.2-0.1,0.3-0.3,0.5
	c-0.2,0.1-0.4,0.2-0.6,0.2c-0.3,0-0.6-0.1-0.9-0.2c-0.3-0.1-0.6-0.3-0.8-0.5c-0.3-0.2-0.5-0.5-0.7-0.7c-0.2-0.3-0.4-0.5-0.5-0.8
	c-0.2-0.3-0.3-0.6-0.4-0.9c-0.1-0.3-0.1-0.6-0.1-0.8c0-0.2,0-0.4,0.1-0.6c0.1-0.2,0.2-0.3,0.4-0.3c0.2-0.1,0.4-0.1,0.6-0.1
	c0.2,0,0.5,0,0.7,0h8.1L202.4,67.1z"/>
<path class="st0" d="M213.6,61.1h-3.3v5h-3.9c-0.8,0-1.5,0.2-2.2,0.7c-0.5,0.5-0.8,1.2-0.8,1.9c0,0.5,0.1,0.9,0.2,1.4
	c0.1,0.4,0.4,0.8,0.7,1.1c0.3,0.3,0.6,0.6,1,0.8c0.4,0.2,0.9,0.3,1.3,0.3c0.2,0,0.4,0,0.6,0c0.2,0,0.3-0.1,0.4-0.2
	c-0.1-0.3-0.1-0.6-0.1-0.9c0-0.4,0.1-0.8,0.2-1.2c0.1-0.4,0.3-0.7,0.5-1c0.2-0.3,0.5-0.5,0.8-0.7c0.3-0.2,0.7-0.3,1.1-0.3
	c0.3,0,0.5,0,0.8,0.2c0.2,0.1,0.5,0.2,0.6,0.4c0.2,0.2,0.3,0.5,0.4,0.7c0.1,0.3,0.2,0.7,0.2,1c0,0.3,0,0.7-0.1,1
	c-0.1,0.3-0.2,0.6-0.4,0.9c-0.1,0.3-0.3,0.5-0.5,0.8c-0.2,0.2-0.4,0.5-0.6,0.7c0.5,0.8,1.1,1.5,1.8,2.1l-1.8,1.9
	c-0.5-0.4-0.9-0.9-1.3-1.4c-0.4-0.5-0.7-1-0.9-1.6c-0.3,0.1-0.6,0.2-0.8,0.2c-0.3,0-0.6,0-0.9,0c-0.5,0-1-0.1-1.5-0.2
	c-0.5-0.1-1-0.4-1.4-0.6c-0.4-0.3-0.9-0.6-1.2-1c-0.4-0.4-0.7-0.8-1-1.2c-0.3-0.5-0.5-0.9-0.6-1.4c-0.2-0.5-0.2-1.1-0.2-1.6
	c0-0.7,0.1-1.5,0.4-2.1c0.3-0.6,0.6-1.1,1.1-1.5c0.5-0.4,1-0.7,1.6-0.9c0.7-0.2,1.4-0.3,2.1-0.3h1.7v-2.6h-8.6v-2.4h14.7V61.1z"/>
<path class="st0" d="M226.7,61.1h-5.4c0.3,0.5,0.5,1.1,0.6,1.7c0.2,0.6,0.2,1.1,0.2,1.7c0,0.2,0,0.4,0,0.6c0,0.2,0,0.4-0.1,0.6h4.9
	v2.4h-6.4c-0.5,0.3-1,0.5-1.5,0.6l0,0c0.2,0.4,0.4,0.8,0.7,1.2c0.3,0.4,0.6,0.8,0.9,1.2c0.3,0.4,0.7,0.8,1.1,1.2s0.8,0.8,1.3,1.2
	l-1.8,2c-0.5-0.5-1-1-1.5-1.5c-0.5-0.6-0.9-1.1-1.4-1.7c-0.4-0.6-0.9-1.2-1.3-1.8s-0.8-1.2-1.1-1.8s-0.7-1.1-1-1.7s-0.5-1-0.7-1.4
	l2.4-1.2c0.2,0.6,0.5,1.1,0.9,1.5c0.2,0.3,0.6,0.5,0.9,0.5c0.2,0,0.3,0,0.5-0.2c0.1-0.1,0.3-0.2,0.4-0.4c0.1-0.2,0.2-0.4,0.2-0.6
	c0-0.3,0.1-0.5,0.1-0.8c0-0.6-0.1-1.1-0.2-1.7c-0.2-0.6-0.4-1.1-0.8-1.5h-5.5v-2.4h13.8L226.7,61.1z M238.7,61.1h-2.4v13.6h-2.8
	v-8.6h-3c-0.4,0-0.7,0-1.1,0.1c-0.3,0-0.5,0.1-0.8,0.3c-0.2,0.1-0.3,0.3-0.4,0.6c-0.1,0.3-0.2,0.6-0.1,0.9c0,0.5,0.1,0.9,0.2,1.3
	c0.2,0.5,0.4,0.9,0.7,1.3c0.3,0.5,0.6,0.9,1,1.3c0.4,0.5,0.9,0.9,1.3,1.3l-1.7,1.9c-0.2-0.1-0.5-0.3-0.7-0.5
	c-0.3-0.3-0.6-0.5-0.9-0.8c-0.3-0.3-0.6-0.7-1-1.1c-0.4-0.4-0.7-0.9-0.9-1.4c-0.3-0.5-0.5-1.1-0.7-1.7c-0.2-0.7-0.3-1.3-0.3-2
	c0-0.7,0.1-1.3,0.3-1.9c0.2-0.5,0.6-0.9,1-1.2c0.4-0.3,0.9-0.5,1.5-0.6c0.6-0.1,1.2-0.2,1.9-0.2h3.6v-2.6h-10v-2.4h15.1L238.7,61.1z
	"/>
<path class="st0" d="M245.5,61.1h-2.3v13.6h-2.8V61.1H238v-2.4h7.5L245.5,61.1z"/>
<path class="st0" d="M260.7,61.1h-2.4v13.6h-3v-7.6h-4.6c0,0.5,0,0.9,0,1.2c0,0.3,0,0.6-0.1,0.8c0,0.2-0.2,0.3-0.3,0.5
	c-0.2,0.1-0.4,0.2-0.6,0.2c-0.3,0-0.6-0.1-0.9-0.2c-0.3-0.1-0.6-0.3-0.8-0.5c-0.3-0.2-0.5-0.5-0.7-0.7c-0.2-0.3-0.4-0.5-0.5-0.8
	c-0.2-0.3-0.3-0.6-0.4-0.9c-0.1-0.3-0.1-0.6-0.1-0.8c0-0.2,0-0.4,0.1-0.6c0.1-0.2,0.2-0.3,0.4-0.3c0.2-0.1,0.4-0.1,0.6-0.1
	c0.2,0,0.5,0,0.7,0h7.4v-3.6h-10.7v-2.5h16L260.7,61.1z"/>
<path class="st0" d="M280.8,61.1h-2.3v13.6h-2.8v-4.1l0,0c-0.8,0.5-1.7,0.8-2.6,0.8h-0.7c-0.3,0-0.6-0.1-0.9-0.2
	c-0.4-0.1-0.7-0.3-1-0.5c-0.4-0.3-0.7-0.6-1-1c-0.3-0.5-0.5-1-0.7-1.5c-0.2-0.7-0.3-1.5-0.3-2.2v-4.8H266v-2.4h14.8L280.8,61.1z
	 M275.7,61.1h-4.4v5c0,0.5,0,0.9,0.2,1.3c0.1,0.3,0.2,0.6,0.4,0.8c0.2,0.2,0.4,0.3,0.6,0.4c0.2,0.1,0.5,0.1,0.8,0.1
	c0.5,0,1-0.1,1.4-0.4c0.4-0.3,0.8-0.7,1-1.2V61.1z"/>
<path class="st0" d="M276,59l-0.3-0.6c-0.4-0.7-0.7-1.3-1-1.8s-0.5-0.9-0.8-1.2c-0.2-0.3-0.4-0.5-0.6-0.8c-0.2-0.2-0.4-0.3-0.6-0.4
	c-0.2-0.1-0.4-0.1-0.6-0.2c-0.2,0-0.5,0-0.7,0h-2.2v-2.4h2c0.6,0,1,0,1.5,0.1c0.4,0,0.7,0.1,1.1,0.3c0.3,0.2,0.7,0.4,0.9,0.7
	c0.4,0.4,0.7,0.8,0.9,1.3c0.3,0.5,0.7,1.2,1.2,2.1s1,1.8,1.6,3L276,59z"/>
<path class="st0" d="M292.4,73.7c-0.6,0.4-1.3,0.7-2,0.9c-0.7,0.2-1.5,0.3-2.2,0.3c-0.9,0-1.8-0.2-2.7-0.5c-0.8-0.3-1.4-0.8-2-1.3
	c-0.6-0.6-1-1.3-1.3-2c-0.3-0.8-0.4-1.6-0.4-2.4c0-0.7,0.1-1.5,0.4-2.1c0.2-0.6,0.6-1.1,1.1-1.5c0.5-0.4,1-0.7,1.6-0.9
	c0.7-0.2,1.4-0.3,2.1-0.3h1.6v-2.6h-8.5v-2.4h14.7v2.4h-3.4v5h-3.8c-0.4,0-0.8,0-1.2,0.2c-0.3,0.1-0.7,0.3-0.9,0.5
	c-0.3,0.2-0.5,0.5-0.6,0.8c-0.1,0.4-0.2,0.8-0.2,1.2c0,0.5,0.1,1,0.2,1.4c0.2,0.4,0.4,0.8,0.7,1.1c0.3,0.3,0.6,0.5,1,0.7
	c0.4,0.2,0.9,0.2,1.3,0.2c0.4,0,0.8-0.1,1.1-0.1c0.4-0.1,0.8-0.2,1.2-0.4c0.4-0.1,0.8-0.3,1.1-0.5c0.4-0.2,0.7-0.4,1-0.6L292.4,73.7
	z"/>
<path class="st0" d="M291,80.4l-2.9-2.5l-2.9,2.5l-1.6-1.9l4.5-3.7l4.5,3.9L291,80.4z"/>
<path class="st0" d="M296.7,59l-0.3-0.6c-0.4-0.7-0.7-1.3-1-1.8s-0.5-0.9-0.8-1.2c-0.2-0.3-0.4-0.5-0.6-0.8
	c-0.2-0.2-0.4-0.3-0.6-0.4c-0.2-0.1-0.4-0.1-0.6-0.2c-0.2,0-0.5,0-0.7,0h-2.2v-2.4h2c0.6,0,1,0,1.5,0.1c0.4,0,0.7,0.1,1.1,0.3
	c0.3,0.2,0.7,0.4,0.9,0.7c0.4,0.4,0.7,0.8,0.9,1.3c0.3,0.5,0.7,1.2,1.2,2.1s1,1.8,1.6,3L296.7,59z M301.5,61.1h-2.3v13.6h-2.8V61.1
	H294v-2.4h7.5L301.5,61.1z"/>
<path class="st0" d="M308.3,61.1H306v13.6h-2.8V61.1h-2.4v-2.4h2.4c-0.4-0.8-0.6-1.6-0.6-2.5c0-0.6,0.1-1.1,0.3-1.6
	c0.2-0.5,0.6-1,1-1.3c0.5-0.4,1.1-0.7,1.7-0.9c0.8-0.2,1.6-0.3,2.4-0.3c1.1,0,2.2,0.2,3.2,0.5c1,0.3,1.9,0.8,2.8,1.4
	c0.9,0.6,1.8,1.3,2.5,2.1c0.8,0.9,1.6,1.8,2.3,2.8h-2.6l-0.9-0.8c-0.3-0.3-0.7-0.6-1.1-1c-0.4-0.3-0.9-0.7-1.3-0.9
	c-0.5-0.3-1-0.6-1.5-0.8c-0.5-0.2-1.1-0.4-1.6-0.6c-0.6-0.1-1.1-0.2-1.7-0.2c-0.4,0-0.9,0.1-1.3,0.2c-0.3,0.1-0.6,0.3-0.9,0.5
	c-0.2,0.2-0.4,0.4-0.5,0.7c-0.1,0.3-0.2,0.6-0.2,0.9c0,0.3,0.1,0.6,0.1,0.9c0.1,0.3,0.2,0.7,0.4,1h2.5L308.3,61.1z"/>
<path class="st0" d="M320,74.7v-9.4h-0.2h-0.3c-0.5,0-1,0.2-1.3,0.6c-0.1,0.2-0.3,0.4-0.3,0.7c-0.1,0.2-0.1,0.5-0.1,0.7
	c0,0.1,0,0.2,0,0.3s0,0.2,0,0.3h-2.5c0-0.3-0.1-0.7-0.2-1c-0.1-0.3-0.2-0.6-0.3-0.9c-0.1-0.2-0.3-0.4-0.5-0.6
	c-0.2-0.2-0.4-0.2-0.7-0.2c-0.2,0-0.4,0-0.6,0.2c-0.2,0.1-0.3,0.3-0.4,0.4c-0.1,0.2-0.2,0.4-0.2,0.7c0,0.3-0.1,0.5-0.1,0.8
	c0,0.7,0.1,1.4,0.4,2c0.3,0.6,0.6,1.1,1.1,1.6c0.5,0.5,1,0.9,1.6,1.3c0.6,0.4,1.2,0.7,1.8,1l-1.2,2.1c-0.4-0.1-0.7-0.3-1.1-0.5
	c-0.5-0.3-0.9-0.5-1.4-0.8c-0.5-0.4-1-0.8-1.5-1.2c-0.5-0.5-0.9-1-1.3-1.5c-0.4-0.6-0.7-1.2-0.9-1.9c-0.2-0.7-0.4-1.4-0.4-2.2
	c0-0.6,0.1-1.2,0.3-1.8c0.2-0.5,0.4-1.1,0.8-1.5c0.3-0.4,0.8-0.8,1.3-1c0.5-0.3,1.1-0.4,1.6-0.4c0.4,0,0.7,0,1.1,0.2
	c0.3,0.1,0.6,0.2,0.8,0.4c0.2,0.2,0.4,0.3,0.6,0.5c0.2,0.2,0.3,0.4,0.4,0.5l0,0c0.1-0.3,0.3-0.5,0.5-0.7c0.2-0.2,0.4-0.4,0.6-0.5
	c0.2-0.1,0.5-0.2,0.7-0.3c0.2-0.1,0.5-0.1,0.8-0.1c0.1,0,0.3,0,0.4,0l0.4,0.1v-1.5h-12.4v-2.4h17.6v2.4h-2.4v13.6L320,74.7z"/>
<path class="st0" d="M324.4,61.1v-2.4h15.4v2.4h-2.3v13.6h-2.8v-4l0,0c-0.2,0.1-0.4,0.2-0.5,0.4c-0.2,0.1-0.4,0.2-0.6,0.3
	c-0.3,0.1-0.5,0.2-0.8,0.2c-0.3,0.1-0.6,0.1-1,0.1c-0.8,0-1.7-0.2-2.4-0.5c-0.7-0.4-1.3-0.8-1.7-1.4c-0.5-0.6-0.9-1.3-1.1-2
	c-0.3-0.7-0.5-1.5-0.6-2.3c0.4,0,0.8-0.1,1.1-0.3c0.3-0.1,0.5-0.3,0.8-0.5c0.2-0.2,0.3-0.4,0.4-0.7c0.1-0.2,0.1-0.5,0.1-0.8
	c0-0.3-0.1-0.7-0.2-1c-0.1-0.4-0.3-0.8-0.5-1.1L324.4,61.1z M331.1,63.6c0,0.7-0.2,1.3-0.5,1.8c-0.4,0.6-1,1-1.6,1.3
	c0.1,0.4,0.2,0.7,0.4,1.1c0.2,0.3,0.4,0.5,0.6,0.7c0.2,0.2,0.5,0.3,0.8,0.4c0.3,0.1,0.6,0.1,0.9,0.1c0.6,0,1.2-0.2,1.7-0.5
	c0.5-0.4,0.9-0.8,1.2-1.4v-6.1h-4.3c0.3,0.4,0.5,0.8,0.6,1.3C331.1,62.8,331.1,63.2,331.1,63.6z"/>
<path class="st0" d="M355.6,61.1h-2.3v13.6h-2.8v-5.6h-4.8v1.5c0,0.1,0,0.3,0,0.4c0,0.1,0,0.3-0.1,0.4c-0.1,0.1-0.1,0.2-0.2,0.3
	c-0.1,0.1-0.3,0.1-0.5,0.1c-0.3,0-0.6-0.1-0.9-0.2c-0.3-0.2-0.7-0.4-0.9-0.6c-0.3-0.3-0.6-0.5-0.9-0.9c-0.3-0.3-0.5-0.7-0.8-1
	c-0.2-0.3-0.4-0.6-0.5-1c-0.1-0.3-0.2-0.6-0.2-0.9c0-0.1,0-0.2,0-0.3c0-0.1,0.1-0.2,0.1-0.2c0.1-0.1,0.2-0.1,0.3-0.2
	c0.2,0,0.4-0.1,0.5-0.1h1.2v-5.6H339v-2.4h16.5L355.6,61.1z M345.6,61.1v5.6h4.8v-5.6H345.6z"/>
<path class="st0" d="M374,70.3c0.4-0.2,0.8-0.5,1.2-0.8c0.3-0.3,0.6-0.5,0.9-0.9c0.2-0.3,0.4-0.6,0.5-0.9c0.2-0.5,0.2-1,0.1-1.4
	c0-0.2-0.1-0.4-0.2-0.6c-0.1-0.2-0.3-0.3-0.5-0.4c-0.2-0.1-0.4-0.2-0.7-0.2c-0.3,0-0.6,0.1-0.8,0.2c-0.3,0.1-0.5,0.3-0.7,0.6
	c-0.2,0.2-0.4,0.5-0.6,0.8c-0.2,0.3-0.4,0.6-0.5,0.9v7h-2.8v-3.5l0,0l-0.3,0.2c-0.2,0.1-0.3,0.2-0.5,0.2c-0.2,0.1-0.4,0.1-0.7,0.2
	c-0.3,0.1-0.6,0.1-0.8,0.1c-0.6,0-1.3-0.1-1.8-0.4c-0.6-0.3-1.1-0.6-1.6-1.1c-0.4-0.5-0.8-1-1-1.6c-0.3-0.6-0.4-1.3-0.4-2
	c0-0.6,0.1-1.1,0.3-1.7c0.2-0.5,0.5-1,0.8-1.4c0.4-0.4,0.8-0.8,1.4-1c0.6-0.2,1.2-0.4,1.8-0.3c0.5,0,0.9,0.1,1.4,0.2
	c0.5,0.2,1,0.5,1.5,0.8l0,0v-2.3h-8.8v-2.4h20.7v2.4h-9v2.5l0,0c0.2-0.2,0.5-0.4,0.8-0.6c0.2-0.1,0.5-0.3,0.8-0.3
	c0.2-0.1,0.5-0.1,0.7-0.2c0.2,0,0.4,0,0.6,0c0.6,0,1.2,0.1,1.7,0.4c0.5,0.2,0.9,0.6,1.3,1c0.3,0.4,0.6,0.9,0.8,1.4
	c0.2,0.5,0.3,1,0.3,1.6c0,0.6-0.1,1.1-0.3,1.7c-0.2,0.6-0.5,1.1-0.8,1.6c-0.4,0.5-0.8,1-1.3,1.4c-0.5,0.4-1.1,0.8-1.7,1.2L374,70.3z
	 M369.8,66.1l-0.5-0.4c-0.2-0.2-0.3-0.3-0.5-0.4c-0.2-0.1-0.4-0.2-0.6-0.3c-0.2-0.1-0.5-0.1-0.8-0.1c-0.6,0-1.1,0.2-1.5,0.6
	c-0.2,0.2-0.3,0.4-0.4,0.7c-0.1,0.3-0.1,0.5-0.1,0.8c0,0.3,0.1,0.6,0.2,0.9c0.1,0.3,0.3,0.5,0.5,0.8c0.2,0.2,0.5,0.4,0.7,0.5
	c0.3,0.1,0.7,0.2,1,0.2c0.3,0,0.7-0.1,1-0.2c0.3-0.1,0.5-0.3,0.6-0.6c0.2-0.2,0.3-0.5,0.3-0.8c0.1-0.3,0.1-0.6,0.1-0.9L369.8,66.1z"
	/>
<path class="st0" d="M381.4,51.7c0,0.1,0.1,0.3,0.1,0.5c0.1,0.2,0.1,0.5,0.2,0.7c0.1,0.3,0.2,0.5,0.4,0.7c0.2,0.3,0.3,0.5,0.6,0.7
	c0.2,0.2,0.5,0.4,0.8,0.5c0.3,0.1,0.7,0.2,1,0.2c0.3,0,0.7-0.1,1-0.2c0.3-0.1,0.5-0.3,0.8-0.5c0.2-0.2,0.4-0.4,0.6-0.7
	c0.2-0.2,0.3-0.5,0.4-0.7c0.1-0.2,0.2-0.5,0.3-0.7c0.1-0.2,0.1-0.4,0.2-0.5l2.3,0.8c-0.1,0.3-0.2,0.6-0.3,1
	c-0.1,0.4-0.3,0.7-0.5,1.1c-0.2,0.4-0.4,0.7-0.7,1c-0.3,0.3-0.6,0.6-1,0.9c-0.4,0.3-0.8,0.5-1.3,0.6c-0.5,0.2-1.1,0.2-1.7,0.2
	c-0.7,0-1.4-0.1-2-0.3c-0.6-0.2-1.1-0.6-1.6-1c-0.5-0.4-0.9-0.9-1.2-1.5c-0.3-0.6-0.6-1.3-0.7-2L381.4,51.7z M388.4,61.1H386v13.6
	h-2.8V61.1h-2.4v-2.4h7.5L388.4,61.1z"/>
<path class="st0" d="M402.4,61.1H400v13.6h-2.8v-4.1h0c-0.8,0.5-1.7,0.8-2.6,0.8h-0.7c-0.3,0-0.6-0.1-0.9-0.2
	c-0.4-0.1-0.7-0.3-1-0.5c-0.4-0.3-0.7-0.6-1-1c-0.3-0.5-0.6-1-0.7-1.5c-0.2-0.7-0.3-1.5-0.3-2.2v-4.8h-2.4v-2.4h14.8V61.1z
	 M397.2,61.1h-4.4v5c0,0.5,0,0.9,0.1,1.3c0.1,0.3,0.2,0.6,0.4,0.8c0.2,0.2,0.4,0.3,0.6,0.4c0.2,0.1,0.5,0.1,0.8,0.1
	c0.5,0,1-0.1,1.4-0.4c0.4-0.3,0.8-0.7,1.1-1.2V61.1z"/>
<path class="st0" d="M403.7,53.6c0.2-0.7,0.6-1.3,1.1-1.7c0.6-0.4,1.3-0.6,2.1-0.6c0.6,0,1.3,0.1,1.9,0.4c0.6,0.3,1.1,0.7,1.5,1.3
	l-1.8,1.6c-0.2-0.3-0.4-0.5-0.7-0.7c-0.3-0.1-0.6-0.2-0.9-0.2c-0.2,0-0.4,0-0.6,0.1c-0.2,0.1-0.3,0.2-0.4,0.3
	c-0.1,0.2-0.2,0.3-0.2,0.5c-0.1,0.2-0.1,0.4-0.1,0.7c0,0.3,0,0.7,0.1,1c0.1,0.3,0.1,0.7,0.3,1c0.1,0.3,0.2,0.6,0.4,0.9
	c0.1,0.3,0.3,0.5,0.4,0.8h-2.3l-0.3-0.6c-0.4-0.7-0.7-1.3-1-1.8c-0.2-0.4-0.5-0.8-0.8-1.2c-0.2-0.3-0.4-0.5-0.6-0.8
	c-0.2-0.2-0.4-0.3-0.6-0.4c-0.2-0.1-0.4-0.1-0.6-0.2c-0.2,0-0.5,0-0.7,0h-2.2v-2.5h2c0.5,0,1,0,1.4,0c0.3,0,0.7,0.1,1,0.2
	c0.3,0.1,0.6,0.3,0.9,0.6c0.3,0.3,0.6,0.7,0.9,1.1L403.7,53.6z M409.1,61.1h-2.3v13.6H404V61.1h-2.4v-2.4h7.5V61.1z"/>
<path class="st0" d="M420.9,61.1h-3.6c0.3,0.5,0.5,1.1,0.6,1.7c0.2,0.5,0.2,1.1,0.2,1.7c0,0.5-0.1,1-0.2,1.5
	c-0.1,0.5-0.4,0.9-0.6,1.2c-0.3,0.4-0.7,0.7-1.1,0.9c-0.5,0.3-1.1,0.5-1.6,0.6l0,0c0.3,0.4,0.6,0.8,0.9,1.2s0.6,0.8,1,1.2
	s0.7,0.8,1.1,1.2s0.8,0.8,1.3,1.2l-1.8,2c-0.6-0.4-1.1-0.9-1.7-1.4c-0.5-0.5-1-1.1-1.5-1.7s-0.9-1.2-1.3-1.8s-0.8-1.2-1.1-1.7
	s-0.7-1.1-0.9-1.6s-0.5-1-0.7-1.4l2.4-1.2c0.2,0.5,0.4,1,0.8,1.4c0.2,0.2,0.5,0.4,0.9,0.4c0.2,0,0.4,0,0.6-0.1
	c0.2-0.1,0.3-0.2,0.5-0.4c0.1-0.2,0.3-0.4,0.3-0.7c0.1-0.3,0.1-0.6,0.1-0.9c0-0.5-0.1-1-0.2-1.5c-0.2-0.5-0.4-1.1-0.8-1.5h-5.9v-2.5
	h12.5V61.1z"/>
<path class="st0" d="M413.9,59l-0.3-0.6c-0.4-0.7-0.7-1.3-1-1.8s-0.5-0.9-0.8-1.2c-0.2-0.3-0.4-0.5-0.6-0.8
	c-0.2-0.2-0.4-0.3-0.6-0.4c-0.2-0.1-0.4-0.1-0.6-0.2c-0.2,0-0.5,0-0.7,0h-2.2v-2.4h2c0.6,0,1.1,0,1.5,0.1c0.4,0,0.7,0.1,1.1,0.3
	c0.3,0.2,0.7,0.4,0.9,0.7c0.4,0.4,0.7,0.8,0.9,1.3c0.3,0.5,0.7,1.2,1.2,2.1s1,1.8,1.6,3L413.9,59z"/>
<path class="st0" d="M423.1,61.1h-3v-2.4h19.4v2.4h-2.3v13.6h-2.8V61.1h-3.1l0,0c0.3,0.4,0.5,0.8,0.7,1.3c0.3,1,0.3,2.1,0,3
	c-0.2,0.5-0.4,1-0.7,1.4c-0.3,0.5-0.7,0.9-1.1,1.3c-0.4,0.4-0.9,0.7-1.4,1l0,0c0.4,0.3,0.7,0.5,1.1,0.8c0.4,0.3,0.8,0.7,1.1,1.1
	s0.7,0.8,1.1,1.2s0.7,0.8,0.9,1.2l-2,1.6c-0.3-0.3-0.6-0.7-0.9-1.2s-0.7-0.8-1.1-1.3s-0.8-0.8-1.3-1.2c-0.4-0.4-0.9-0.8-1.4-1.1
	c-0.6,0.2-1.1,0.3-1.7,0.3c-0.4,0-0.8-0.1-1.2-0.2c-0.3-0.1-0.6-0.3-0.9-0.5c-0.2-0.2-0.4-0.4-0.5-0.7c-0.1-0.2-0.2-0.5-0.2-0.8
	c0-0.2,0-0.4,0.1-0.6c0.1-0.2,0.2-0.4,0.4-0.5c0.2-0.2,0.4-0.3,0.7-0.4c0.3-0.1,0.7-0.2,1-0.2c0.4,0,0.9,0.1,1.3,0.2
	c0.4,0.1,0.9,0.3,1.2,0.6c0.1,0,0.2-0.1,0.4-0.1c0.2-0.1,0.4-0.2,0.6-0.3c0.2-0.1,0.4-0.3,0.6-0.5c0.2-0.2,0.4-0.4,0.6-0.7
	c0.2-0.3,0.3-0.6,0.5-0.9c0.1-0.4,0.2-0.7,0.2-1.1c0-0.3-0.1-0.7-0.1-1c-0.1-0.3-0.2-0.6-0.4-0.9c-0.2-0.3-0.4-0.5-0.7-0.6
	c-0.3-0.2-0.7-0.3-1-0.2c-0.2,0-0.5,0-0.7,0.1c-0.2,0.1-0.3,0.2-0.4,0.3c-0.1,0.1-0.2,0.3-0.2,0.4c0,0.2-0.1,0.3-0.1,0.5
	c0,0.4,0.2,0.8,0.5,1c0.4,0.3,0.9,0.4,1.4,0.4v2.4h-0.2c-0.6,0-1.3-0.1-1.9-0.3c-0.5-0.2-1-0.4-1.4-0.8c-0.4-0.3-0.7-0.7-0.9-1.2
	c-0.2-0.4-0.3-0.9-0.3-1.4C422.8,62.1,422.9,61.5,423.1,61.1L423.1,61.1z"/>
<path class="st0" d="M454.8,61.1h-2.3v13.6h-3v-7.6h-4.6c0,0.5,0,0.9,0,1.2c0,0.3-0.1,0.6-0.1,0.8c0,0.2-0.2,0.3-0.3,0.5
	c-0.2,0.1-0.4,0.2-0.6,0.2c-0.3,0-0.6-0.1-0.9-0.2c-0.3-0.1-0.6-0.3-0.8-0.5c-0.3-0.2-0.5-0.4-0.7-0.7c-0.2-0.3-0.4-0.5-0.5-0.8
	c-0.1-0.3-0.3-0.6-0.4-0.9c-0.1-0.3-0.1-0.6-0.1-0.8c0-0.2,0-0.4,0.1-0.6c0.1-0.1,0.2-0.3,0.4-0.3c0.2-0.1,0.4-0.1,0.5-0.1
	c0.2,0,0.5,0,0.7,0h7.4v-3.6h-10.7v-2.5h16L454.8,61.1z"/>
<path class="st0" d="M467.6,61.1h-2.4v13.6h-2.8V61.1h-2.4v-2.4h2.4c-0.4-0.8-0.6-1.6-0.6-2.5c0-0.6,0.1-1.1,0.3-1.6
	c0.2-0.5,0.6-1,1-1.3c0.5-0.4,1.1-0.7,1.7-0.9c0.8-0.2,1.6-0.3,2.4-0.3c1.1,0,2.2,0.2,3.2,0.5c1,0.3,2,0.8,2.8,1.4
	c0.9,0.6,1.8,1.3,2.5,2.1c0.8,0.9,1.6,1.8,2.3,2.8h-2.6l-0.9-0.8c-0.3-0.3-0.7-0.6-1.1-1c-0.4-0.3-0.9-0.7-1.3-0.9
	c-0.5-0.3-1-0.6-1.5-0.8c-0.5-0.2-1.1-0.4-1.6-0.6c-0.6-0.1-1.1-0.2-1.7-0.2c-0.4,0-0.9,0.1-1.3,0.2c-0.3,0.1-0.7,0.3-0.9,0.5
	c-0.2,0.2-0.4,0.4-0.5,0.7c-0.1,0.3-0.2,0.6-0.2,0.9c0,0.3,0.1,0.6,0.1,0.9c0.1,0.3,0.2,0.7,0.4,1h2.5L467.6,61.1z"/>
<path class="st0" d="M479.3,74.7v-9.4H479h-0.3c-0.3,0-0.5,0.1-0.8,0.2c-0.2,0.1-0.4,0.3-0.5,0.4c-0.1,0.2-0.3,0.4-0.3,0.7
	c-0.1,0.2-0.1,0.5-0.1,0.7c0,0.1,0,0.2,0,0.3c0,0.1,0,0.2,0,0.3h-2.5c0-0.3-0.1-0.7-0.2-1c-0.1-0.3-0.2-0.6-0.3-0.9
	c-0.1-0.2-0.3-0.4-0.5-0.6c-0.3-0.3-0.8-0.3-1.2-0.1c-0.2,0.1-0.3,0.3-0.4,0.4c-0.1,0.2-0.2,0.4-0.2,0.7c0,0.3-0.1,0.5-0.1,0.8
	c0,0.7,0.1,1.4,0.4,2c0.3,0.6,0.6,1.1,1.1,1.6c0.5,0.5,1,0.9,1.6,1.3c0.6,0.4,1.2,0.7,1.8,1l-1.2,2.1c-0.4-0.1-0.7-0.3-1.1-0.5
	c-0.5-0.3-0.9-0.5-1.4-0.8c-0.5-0.4-1-0.8-1.5-1.2c-0.5-0.5-0.9-1-1.3-1.5c-0.4-0.6-0.7-1.2-1-1.8c-0.2-0.7-0.4-1.4-0.4-2.2
	c0-0.6,0.1-1.2,0.3-1.8c0.2-0.5,0.4-1.1,0.8-1.5c0.3-0.4,0.8-0.8,1.2-1c0.5-0.3,1.1-0.4,1.6-0.4c0.4,0,0.7,0,1.1,0.2
	c0.3,0.1,0.6,0.2,0.8,0.4c0.2,0.2,0.4,0.3,0.6,0.5c0.2,0.2,0.3,0.4,0.4,0.5h0c0.1-0.3,0.3-0.5,0.5-0.7c0.2-0.2,0.4-0.4,0.6-0.5
	c0.2-0.1,0.5-0.2,0.7-0.3c0.2-0.1,0.5-0.1,0.8-0.1c0.1,0,0.3,0,0.4,0c0.1,0,0.3,0,0.4,0.1v-1.5h-12.3v-2.5h17.6v2.4h-2.3v13.6
	L479.3,74.7z"/>
<path class="st0" d="M491.2,61.1h-2.4v13.6h-2.8V61.1h-2.4v-2.4h2.4c-0.4-0.8-0.6-1.6-0.6-2.5c0-0.6,0.1-1.1,0.3-1.6
	c0.2-0.5,0.6-1,1-1.3c0.5-0.4,1.1-0.7,1.7-0.9c0.8-0.2,1.6-0.3,2.4-0.3c1.1,0,2.2,0.2,3.2,0.5c1,0.3,2,0.8,2.8,1.4
	c0.9,0.6,1.8,1.3,2.5,2.1c0.8,0.9,1.6,1.8,2.3,2.8h-2.6l-0.9-0.8c-0.3-0.3-0.7-0.6-1.1-1c-0.4-0.3-0.9-0.7-1.3-0.9
	c-0.5-0.3-1-0.6-1.5-0.8c-0.5-0.2-1.1-0.4-1.6-0.6c-0.6-0.1-1.1-0.2-1.7-0.2c-0.4,0-0.9,0.1-1.3,0.2c-0.3,0.1-0.7,0.3-0.9,0.5
	c-0.2,0.2-0.4,0.4-0.5,0.7c-0.1,0.3-0.2,0.6-0.2,0.9c0,0.3,0.1,0.6,0.1,0.9c0.1,0.3,0.2,0.7,0.4,1h2.5L491.2,61.1z"/>
<path class="st0" d="M507,61.1h-2.4v13.6h-2.8v-5.6H497v1.5c0,0.1,0,0.3,0,0.4c0,0.1,0,0.3-0.1,0.4c0,0.1-0.1,0.2-0.2,0.3
	c-0.1,0.1-0.3,0.1-0.5,0.1c-0.3,0-0.6-0.1-0.9-0.2c-0.3-0.2-0.6-0.4-0.9-0.6c-0.3-0.3-0.6-0.5-0.9-0.9c-0.3-0.3-0.5-0.6-0.8-1
	c-0.2-0.3-0.4-0.7-0.5-1c-0.1-0.3-0.2-0.6-0.2-0.9c0-0.1,0-0.2,0-0.3c0-0.1,0.1-0.2,0.1-0.2c0.1-0.1,0.2-0.1,0.3-0.2
	c0.2,0,0.4-0.1,0.5-0.1h1.2v-5.6h-3.8v-2.4H507V61.1z M497,61.1v5.6h4.8v-5.6H497z"/>
<path class="st0" d="M518.6,73.7c-0.6,0.4-1.3,0.7-2,0.9c-0.7,0.2-1.5,0.3-2.2,0.3c-0.9,0-1.8-0.2-2.7-0.5c-1.5-0.6-2.7-1.8-3.3-3.3
	c-0.3-0.8-0.4-1.6-0.4-2.4c0-0.7,0.1-1.5,0.4-2.1c0.2-0.6,0.6-1.1,1.1-1.5c0.5-0.4,1-0.7,1.6-0.9c0.7-0.2,1.4-0.3,2.1-0.3h1.6v-2.6
	h-8.5v-2.4h14.7v2.4h-3.4v5h-3.8c-0.4,0-0.8,0-1.2,0.2c-0.3,0.1-0.7,0.3-0.9,0.5c-0.3,0.2-0.5,0.5-0.6,0.8c-0.1,0.4-0.2,0.8-0.2,1.2
	c0,0.5,0.1,1,0.2,1.4c0.1,0.4,0.4,0.8,0.7,1.1c0.3,0.3,0.6,0.5,1,0.7c0.4,0.2,0.9,0.2,1.3,0.2c0.4,0,0.8-0.1,1.1-0.1
	c0.4-0.1,0.8-0.2,1.2-0.4c0.4-0.2,0.8-0.3,1.2-0.5s0.7-0.4,1-0.6L518.6,73.7z"/>
<path class="st0" d="M515,59l-0.3-0.6c-0.4-0.7-0.7-1.3-1-1.8s-0.5-0.9-0.8-1.2c-0.2-0.3-0.4-0.5-0.6-0.8c-0.2-0.2-0.4-0.3-0.6-0.4
	c-0.2-0.1-0.4-0.1-0.6-0.2c-0.2,0-0.5,0-0.7,0h-2.2v-2.4h2c0.6,0,1,0,1.5,0.1c0.4,0,0.7,0.1,1.1,0.3c0.3,0.2,0.7,0.4,0.9,0.7
	c0.4,0.4,0.7,0.8,1,1.3c0.3,0.5,0.7,1.2,1.2,2.1s1,1.8,1.6,3L515,59z"/>
<path class="st0" d="M537.2,61.1h-3.4v3.6h-5.4c-0.3,0-0.5,0-0.8,0.2c-0.1,0.1-0.2,0.3-0.2,0.5c0,0.1,0,0.3,0.1,0.4
	c0,0.1,0.1,0.3,0.2,0.4c0.1,0.1,0.3,0.2,0.4,0.3c0.2,0.1,0.5,0.1,0.7,0.1h3c0.5,0,1,0.1,1.5,0.3c0.4,0.2,0.7,0.4,1,0.7
	c0.2,0.3,0.4,0.7,0.5,1.1c0.1,0.4,0.2,0.9,0.2,1.3c0,0.7-0.1,1.3-0.3,1.9c-0.2,0.6-0.6,1.1-1,1.6c-0.5,0.5-1.1,0.9-1.7,1.1
	c-0.8,0.3-1.6,0.4-2.4,0.4c-0.9,0-1.9-0.2-2.8-0.5c-0.9-0.3-1.7-0.8-2.4-1.4c-0.7-0.6-1.4-1.3-1.9-2.2c-0.6-0.8-1-1.8-1.3-2.7l2.4-1
	c0.2,0.7,0.6,1.4,1,2c0.4,0.6,0.8,1.2,1.3,1.7c0.5,0.5,1.1,0.9,1.7,1.2c0.6,0.3,1.3,0.4,2,0.4c0.4,0,0.8-0.1,1.1-0.2
	c0.3-0.1,0.6-0.3,0.8-0.5c0.2-0.2,0.4-0.5,0.5-0.8c0.1-0.3,0.2-0.7,0.2-1c0-0.2,0-0.4-0.1-0.6c0-0.2-0.1-0.3-0.2-0.4
	c-0.1-0.1-0.3-0.2-0.5-0.2c-0.2,0-0.4,0-0.6,0h-3c-0.5,0-1-0.1-1.4-0.4c-0.4-0.3-0.7-0.6-1-1c-0.3-0.4-0.5-0.9-0.6-1.3
	c-0.1-0.5-0.2-0.9-0.2-1.4c0-0.4,0.1-0.8,0.2-1.2c0.1-0.3,0.3-0.6,0.5-0.8c0.2-0.2,0.5-0.3,0.8-0.4c0.4-0.1,0.7-0.1,1.1-0.1h3.8
	v-1.4h-10.9v-2.4h17.1V61.1z"/>
<path class="st0" d="M208,76.5c0.5-0.3,1.1-0.5,1.7-0.7c0.6-0.2,1.1-0.2,1.7-0.2c0.5,0,1,0.1,1.4,0.2c0.4,0.1,0.8,0.3,1.2,0.6
	c0.3,0.3,0.6,0.6,0.8,1c0.2,0.4,0.3,0.9,0.3,1.4c0,0.6-0.1,1.2-0.4,1.7c-0.3,0.5-0.7,0.9-1.2,1.1c-0.5,0.3-1.1,0.5-1.7,0.7
	c-0.7,0.1-1.3,0.2-2,0.2c-0.9,0-1.8-0.1-2.6-0.3c-0.7-0.2-1.5-0.4-2.2-0.8c-0.6-0.3-1.2-0.6-1.7-1c-0.4-0.3-0.8-0.6-1.2-1l1.8-2.2
	c0.4,0.4,0.8,0.8,1.3,1.2c0.4,0.3,0.9,0.6,1.3,0.9c0.5,0.2,1,0.4,1.5,0.6c0.6,0.1,1.1,0.2,1.7,0.2c0.3,0,0.6,0,0.9-0.1
	c0.3,0,0.5-0.1,0.8-0.2c0.2-0.1,0.4-0.2,0.5-0.4c0.1-0.2,0.2-0.4,0.2-0.7c0-0.2,0-0.3-0.1-0.5c-0.1-0.1-0.1-0.2-0.3-0.3
	c-0.1-0.1-0.2-0.2-0.4-0.2c-0.2,0-0.3-0.1-0.5-0.1c-0.2,0-0.4,0-0.6,0.1c-0.2,0-0.4,0.1-0.6,0.2l-0.5,0.2c-0.1,0.1-0.3,0.1-0.4,0.2
	L208,76.5z"/>
<rect x="57.6" y="19.8" class="st0" width="97.1" height="120.4"/>
<polygon class="st2" points="101.1,67.2 99.5,67.2 99.5,71 101.1,71 101.1,74.8 95.7,74.8 95.7,71 97.2,71 97.2,67.2 95.7,67.2 
	90.2,67.2 88.7,67.2 88.7,71 90.2,71 90.2,82.5 88.7,82.5 88.7,86.3 90.2,86.3 95.7,86.3 97.2,86.3 97.2,82.5 95.7,82.5 95.7,78.6 
	101.1,78.6 101.1,82.5 99.5,82.5 99.5,86.3 101.1,86.3 106.5,86.3 108.1,86.3 108.1,82.5 106.5,82.5 106.5,71 108.1,71 108.1,67.2 
	106.5,67.2 "/>
<path class="st2" d="M120.1,67.2h-10.4V71h1.4v3.8l0,0v3.8l0,0v3.8h-1.4v3.8h8.6v-3.8h-1.8v-3.8h3.6l0,0c3.2,0,5.7-2.6,5.7-5.7
	S123.2,67.2,120.1,67.2C120.1,67.2,120.1,67.2,120.1,67.2L120.1,67.2z M119.1,74.8h-2.6V71h2.6c1.1,0.1,1.9,1,1.8,2.1
	C120.8,74,120,74.8,119.1,74.8L119.1,74.8z"/>
<rect x="65.3" y="29.2" class="st3" width="81.7" height="15.8"/>
<path class="st0" d="M72.7,35.2h-0.9v5.4h-1.1v-5.4h-0.9v-1h1c-0.2-0.3-0.2-0.7-0.2-1c0-0.2,0-0.4,0.1-0.6c0.1-0.2,0.2-0.4,0.4-0.5
	c0.2-0.2,0.4-0.3,0.7-0.4c0.3-0.1,0.7-0.1,1-0.1c0.4,0,0.9,0.1,1.3,0.2c0.4,0.1,0.8,0.3,1.1,0.5c0.4,0.2,0.7,0.5,1,0.8
	c0.3,0.3,0.6,0.7,0.9,1.1h-1l-0.3-0.3L75,33.5c-0.2-0.1-0.3-0.2-0.5-0.4c-0.2-0.1-0.4-0.2-0.6-0.3c-0.2-0.1-0.4-0.2-0.6-0.2
	c-0.2-0.1-0.5-0.1-0.7-0.1c-0.2,0-0.4,0-0.5,0.1c-0.1,0-0.3,0.1-0.4,0.2c-0.1,0.1-0.2,0.2-0.2,0.3c-0.1,0.1-0.1,0.2-0.1,0.4
	c0,0.1,0,0.2,0,0.4c0,0.1,0.1,0.3,0.2,0.4h1L72.7,35.2z"/>
<path class="st0" d="M75.6,39.2c0.2-0.1,0.3-0.1,0.5-0.2c0.1-0.1,0.2-0.2,0.2-0.3c0-0.1,0-0.1,0-0.2c0-0.1-0.1-0.1-0.2-0.2
	c-0.1-0.1-0.2-0.1-0.3-0.1c-0.1,0-0.3,0-0.4,0c-0.1,0-0.3,0-0.4,0c-0.1,0-0.2,0.1-0.3,0.1c-0.1,0.1-0.2,0.2-0.2,0.3
	c-0.1,0.1-0.1,0.3-0.1,0.4c0,0.2,0,0.3,0.1,0.5c0.1,0.1,0.2,0.3,0.3,0.4c0.1,0.1,0.2,0.2,0.4,0.3c0.1,0.1,0.3,0.2,0.4,0.3l0.4,0.2
	l0.4,0.2l-0.4,0.9c-0.2-0.1-0.4-0.2-0.7-0.3c-0.2-0.1-0.4-0.2-0.6-0.3c-0.2-0.1-0.4-0.3-0.6-0.4c-0.2-0.1-0.3-0.3-0.4-0.5
	c-0.1-0.2-0.2-0.4-0.3-0.6c-0.1-0.2-0.1-0.4-0.1-0.7c0-0.2,0-0.4,0.1-0.7c0.1-0.2,0.2-0.4,0.3-0.5c-0.1-0.1-0.1-0.2-0.2-0.3
	c-0.1-0.1-0.1-0.2-0.1-0.3c0-0.1-0.1-0.2-0.1-0.3c0-0.1,0-0.2,0-0.3c0-0.1,0-0.2,0.1-0.3c0-0.1,0.1-0.2,0.2-0.3
	c0.1-0.1,0.2-0.2,0.3-0.2c0.2-0.1,0.3-0.1,0.5-0.1h1.7v-0.6h-3.8v-1h5.8v1h-1v1.5h-2.5h-0.1c0,0-0.1,0-0.1,0c0,0-0.1,0.1-0.1,0.1
	c0,0.1,0,0.1,0,0.2c0,0.1,0,0.2,0.1,0.3c0.3-0.1,0.6-0.2,0.9-0.2c0.3,0,0.5,0,0.8,0.1c0.2,0.1,0.4,0.2,0.6,0.3
	c0.4,0.3,0.6,0.7,0.6,1.2c0,0.2,0,0.4-0.1,0.6c-0.2,0.3-0.4,0.6-0.7,0.7c-0.2,0.1-0.3,0.2-0.5,0.2L75.6,39.2z"/>
<path class="st0" d="M81.8,35.2h-4v-1h4V35.2z M82.3,37.5h-2.2c0,0.2,0,0.4,0,0.5c0,0.1,0,0.2,0,0.3c0,0.1-0.1,0.1-0.1,0.2
	c-0.1,0-0.1,0.1-0.2,0.1c-0.1,0-0.2,0-0.3-0.1c-0.1,0-0.2-0.1-0.3-0.2c-0.1-0.1-0.2-0.2-0.3-0.3c-0.1-0.1-0.2-0.2-0.2-0.3
	c-0.1-0.1-0.1-0.2-0.1-0.3c0-0.1,0-0.2,0-0.3c0-0.1,0-0.2,0-0.2c0-0.1,0.1-0.1,0.1-0.1c0.1,0,0.1,0,0.2,0h3.5L82.3,37.5z"/>
<path class="st0" d="M84.6,40.4c0.1,0.2,0.2,0.4,0.4,0.6l0.2,0.2c0.2,0,0.3-0.1,0.5-0.1h0.2l0.3-0.3c-0.3-0.2-0.5-0.5-0.7-0.8
	c0.1-0.1,0.2-0.2,0.2-0.3c0.1-0.1,0.1-0.2,0.2-0.3c0.1-0.1,0.1-0.2,0.1-0.3c0-0.1,0-0.3,0.1-0.4c0-0.1,0-0.3-0.1-0.4
	c0-0.1-0.1-0.2-0.2-0.3c-0.1-0.1-0.2-0.1-0.2-0.2c-0.4-0.1-0.8,0-1,0.3c-0.1,0.1-0.1,0.3-0.2,0.4c0,0.2-0.1,0.3-0.1,0.5
	c0,0.1,0,0.2,0,0.4c-0.1,0-0.1,0.1-0.2,0.1H84c-0.2,0-0.4,0-0.5-0.1c-0.2-0.1-0.3-0.2-0.4-0.3c-0.1-0.1-0.2-0.3-0.3-0.4
	c-0.1-0.2-0.1-0.4-0.1-0.5c0-0.3,0.1-0.6,0.3-0.8c0.2-0.2,0.5-0.3,0.8-0.3h1.6v-2h1.3v-1H81v1h3.4v1h-0.7c-0.3,0-0.6,0-0.8,0.1
	c-0.2,0.1-0.5,0.2-0.7,0.4c-0.2,0.2-0.3,0.4-0.4,0.6c-0.2,0.5-0.2,1-0.1,1.5c0.1,0.2,0.1,0.4,0.2,0.6c0.1,0.2,0.2,0.3,0.4,0.5
	c0.1,0.1,0.3,0.3,0.5,0.4c0.2,0.1,0.4,0.2,0.6,0.2c0.2,0.1,0.4,0.1,0.6,0.1c0.1,0,0.2,0,0.3,0C84.5,40.5,84.5,40.4,84.6,40.4z"/>
<path class="st0" d="M84.7,40.9c0.2-0.1,0.4-0.2,0.6-0.2c0.2-0.1,0.4-0.1,0.6-0.1c0.2,0,0.3,0,0.5,0.1c0.2,0,0.3,0.1,0.4,0.2
	c0.1,0.1,0.2,0.2,0.3,0.4c0.1,0.2,0.1,0.3,0.1,0.5c0,0.2,0,0.4-0.2,0.6c-0.1,0.2-0.2,0.3-0.4,0.4c-0.2,0.1-0.4,0.2-0.6,0.2
	c-0.2,0-0.5,0.1-0.7,0.1c-0.3,0-0.6,0-0.9-0.1c-0.3-0.1-0.5-0.2-0.8-0.3c-0.2-0.1-0.4-0.2-0.6-0.4c-0.2-0.1-0.3-0.3-0.4-0.4l0.7-0.8
	c0.1,0.2,0.3,0.3,0.5,0.4c0.1,0.1,0.3,0.2,0.5,0.3c0.2,0.1,0.3,0.1,0.5,0.2c0.2,0.1,0.4,0.1,0.6,0.1h0.3c0.1,0,0.2,0,0.3-0.1
	c0.1,0,0.1-0.1,0.2-0.1c0.1-0.1,0.1-0.3,0-0.4c0,0-0.1-0.1-0.1-0.1c0,0-0.1-0.1-0.1-0.1c-0.1,0-0.1,0-0.2,0c-0.1,0-0.1,0-0.2,0
	l-0.2,0l-0.2,0.1L85,41.5L84.7,40.9z"/>
<path class="st0" d="M91.9,35.2h-2.1c0.1,0.2,0.2,0.4,0.3,0.7c0.1,0.2,0.1,0.4,0.1,0.7c0,0.1,0,0.2,0,0.2c0,0.1,0,0.2,0,0.2H92v0.9
	h-2.6c-0.2,0.1-0.4,0.2-0.6,0.2l0,0c0.1,0.2,0.2,0.3,0.3,0.5c0.1,0.2,0.2,0.3,0.3,0.5c0.1,0.2,0.3,0.3,0.4,0.5
	c0.2,0.2,0.3,0.3,0.5,0.5l-0.7,0.8c-0.2-0.2-0.4-0.4-0.6-0.6c-0.2-0.2-0.4-0.4-0.6-0.7S88.2,39,88,38.8s-0.3-0.5-0.4-0.7
	s-0.3-0.5-0.4-0.7l-0.3-0.5l0.9-0.5c0.1,0.2,0.2,0.4,0.3,0.6c0.1,0.1,0.2,0.2,0.4,0.2c0.1,0,0.1,0,0.2-0.1c0.1,0,0.1-0.1,0.1-0.1
	c0-0.1,0.1-0.2,0.1-0.2c0-0.1,0-0.2,0-0.3c0-0.2,0-0.4-0.1-0.7c-0.1-0.2-0.2-0.4-0.3-0.6h-2.1v-1h5.4V35.2z M96.6,35.2h-0.9v5.4
	h-1.1v-3.4h-1.2c-0.1,0-0.3,0-0.4,0c-0.1,0-0.2,0-0.3,0.1c-0.1,0-0.1,0.1-0.2,0.2c0,0.1-0.1,0.2-0.1,0.3c0,0.2,0,0.4,0.1,0.5
	c0.1,0.2,0.2,0.4,0.3,0.5c0.1,0.2,0.3,0.4,0.4,0.5c0.2,0.2,0.3,0.3,0.5,0.5l-0.7,0.8c-0.1-0.1-0.2-0.1-0.3-0.2
	c-0.1-0.1-0.2-0.2-0.4-0.3l-0.4-0.5c-0.1-0.2-0.3-0.4-0.4-0.6c-0.1-0.2-0.2-0.4-0.3-0.7c-0.1-0.3-0.1-0.5-0.1-0.8
	c0-0.3,0-0.5,0.1-0.8c0.1-0.2,0.2-0.3,0.4-0.5c0.2-0.1,0.4-0.2,0.6-0.2c0.2,0,0.5-0.1,0.7-0.1h1.4v-1h-3.9v-1h6L96.6,35.2z"/>
<path class="st0" d="M99.3,35.2h-0.9v5.3h-1.1v-5.3h-0.9v-1h3L99.3,35.2z"/>
<path class="st0" d="M105.3,35.2h-0.9v5.3h-1.2v-3h-1.8c0,0.2,0,0.4,0,0.5c0,0.1,0,0.2,0,0.3c0,0.1-0.1,0.1-0.1,0.2
	c-0.1,0-0.1,0.1-0.2,0.1c-0.1,0-0.2,0-0.3-0.1c-0.1,0-0.2-0.1-0.3-0.2c-0.1-0.1-0.2-0.2-0.3-0.3c-0.1-0.1-0.2-0.2-0.2-0.3
	c-0.1-0.1-0.1-0.2-0.1-0.3c0-0.1,0-0.2,0-0.3c0-0.1,0-0.2,0.1-0.2c0-0.1,0.1-0.1,0.1-0.1c0.1,0,0.1,0,0.2,0h3.2v-1.5H99v-1h6.3
	L105.3,35.2z"/>
<path class="st0" d="M113.2,35.2h-0.9v5.3h-1.1v-1.6l0,0c-0.3,0.2-0.6,0.3-1,0.3h-0.3c-0.1,0-0.3,0-0.4-0.1c-0.1,0-0.3-0.1-0.4-0.2
	c-0.2-0.1-0.3-0.2-0.4-0.4c-0.1-0.2-0.2-0.4-0.3-0.6c-0.1-0.3-0.1-0.6-0.1-0.9v-1.9h-0.9v-1h5.8L113.2,35.2z M111.2,35.2h-1.8v2
	c0,0.2,0,0.4,0.1,0.5c0,0.1,0.1,0.2,0.2,0.3c0.1,0.1,0.1,0.1,0.2,0.2c0.1,0,0.2,0,0.3,0c0.2,0,0.4-0.1,0.6-0.2
	c0.2-0.1,0.3-0.3,0.4-0.5V35.2z"/>
<path class="st0" d="M111.3,34.3l-0.1-0.2l-0.4-0.7c-0.1-0.2-0.2-0.3-0.3-0.5c-0.1-0.1-0.2-0.2-0.2-0.3c-0.1-0.1-0.1-0.1-0.2-0.2
	c-0.1,0-0.2-0.1-0.2-0.1h-1.2v-1h0.8h0.6c0.1,0,0.3,0.1,0.4,0.1c0.1,0.1,0.3,0.2,0.4,0.3c0.1,0.2,0.3,0.3,0.4,0.5l0.5,0.8l0.6,1.2
	L111.3,34.3z"/>
<path class="st0" d="M117.8,40.1c-0.2,0.2-0.5,0.3-0.8,0.3c-0.3,0.1-0.6,0.1-0.9,0.1c-0.3,0-0.7-0.1-1-0.2c-0.3-0.1-0.6-0.3-0.8-0.5
	c-0.2-0.2-0.4-0.5-0.5-0.8c-0.1-0.3-0.2-0.7-0.2-1c0-0.3,0-0.6,0.2-0.8c0.1-0.2,0.2-0.4,0.4-0.6c0.2-0.2,0.4-0.3,0.7-0.4
	c0.3-0.1,0.5-0.1,0.8-0.1h0.6v-1h-3.4v-1h5.8v1h-1.3v2h-1.5c-0.2,0-0.3,0-0.5,0.1c-0.1,0-0.3,0.1-0.4,0.2c-0.1,0.1-0.2,0.2-0.2,0.3
	c-0.1,0.2-0.1,0.3-0.1,0.5c0,0.2,0,0.4,0.1,0.5c0.1,0.2,0.1,0.3,0.3,0.4c0.1,0.1,0.3,0.2,0.4,0.3c0.2,0.1,0.3,0.1,0.5,0.1
	c0.1,0,0.3,0,0.4,0c0.2,0,0.3-0.1,0.5-0.2c0.2-0.1,0.3-0.1,0.4-0.2c0.1-0.1,0.3-0.1,0.4-0.2L117.8,40.1z"/>
<path class="st0" d="M117.2,42.7l-1.1-1l-1.1,1l-0.6-0.8l1.8-1.5l1.8,1.5L117.2,42.7z"/>
<path class="st0" d="M119.4,34.3l-0.1-0.2l-0.4-0.7c-0.1-0.2-0.2-0.3-0.3-0.5c-0.1-0.1-0.2-0.2-0.2-0.3c-0.1-0.1-0.1-0.1-0.2-0.2
	c-0.1,0-0.2-0.1-0.2-0.1h-1.2v-1h0.8h0.6c0.1,0,0.3,0.1,0.4,0.1c0.1,0.1,0.3,0.2,0.4,0.3c0.1,0.2,0.3,0.3,0.4,0.5
	c0.1,0.2,0.3,0.5,0.5,0.8l0.6,1.2L119.4,34.3z M121.4,35.2h-0.9v5.3h-1.1v-5.3h-0.9v-1h3L121.4,35.2z"/>
<path class="st0" d="M124,35.2h-0.9v5.4H122v-5.4h-0.9v-1h1c-0.2-0.3-0.2-0.7-0.2-1c0-0.2,0-0.4,0.1-0.6c0.1-0.2,0.2-0.4,0.4-0.5
	c0.2-0.2,0.4-0.3,0.7-0.4c0.3-0.1,0.6-0.1,0.9-0.1c0.4,0,0.9,0.1,1.3,0.2c0.4,0.1,0.8,0.3,1.1,0.5c0.4,0.2,0.7,0.5,1,0.8
	c0.3,0.3,0.6,0.7,0.9,1.1h-1l-0.3-0.3l-0.4-0.4c-0.2-0.1-0.3-0.2-0.5-0.4s-0.4-0.2-0.6-0.3c-0.2-0.1-0.4-0.2-0.6-0.2
	c-0.2-0.1-0.4-0.1-0.7-0.1c-0.2,0-0.4,0-0.5,0.1c-0.1,0-0.3,0.1-0.4,0.2c-0.1,0.1-0.2,0.2-0.2,0.3c0,0.1-0.1,0.2-0.1,0.4
	c0,0.1,0,0.2,0.1,0.4c0,0.1,0.1,0.3,0.2,0.4h1L124,35.2z"/>
<path class="st0" d="M128.6,40.5v-3.7h-0.2c-0.2,0-0.4,0.1-0.5,0.2c-0.1,0.1-0.1,0.2-0.1,0.2c0,0.1,0,0.2,0,0.3c0,0,0,0.1,0,0.1
	c0,0,0,0.1,0,0.1h-1c0-0.1,0-0.3-0.1-0.4c0-0.1-0.1-0.2-0.1-0.3c0-0.1-0.1-0.2-0.2-0.2c-0.1-0.1-0.2-0.1-0.3-0.1
	c-0.1,0-0.2,0-0.2,0.1c-0.1,0-0.1,0.1-0.2,0.2c-0.1,0.1-0.1,0.2-0.1,0.3c0,0.1,0,0.2,0,0.3c0,0.3,0,0.5,0.2,0.8
	c0.1,0.2,0.3,0.4,0.4,0.6c0.2,0.2,0.4,0.4,0.6,0.5c0.2,0.1,0.5,0.3,0.7,0.4l-0.5,0.8l-0.4-0.2c-0.2-0.1-0.4-0.2-0.5-0.3
	c-0.2-0.1-0.4-0.3-0.6-0.5c-0.2-0.2-0.4-0.4-0.5-0.6c-0.2-0.2-0.3-0.5-0.4-0.7c-0.1-0.3-0.2-0.6-0.2-0.8c0-0.2,0-0.5,0.1-0.7
	c0.1-0.2,0.2-0.4,0.3-0.6c0.1-0.2,0.3-0.3,0.5-0.4c0.2-0.1,0.4-0.1,0.7-0.1c0.1,0,0.3,0,0.4,0.1c0.1,0,0.2,0.1,0.3,0.2
	c0.1,0.1,0.2,0.1,0.2,0.2l0.2,0.2l0,0c0.1-0.1,0.1-0.2,0.2-0.3c0.1-0.1,0.2-0.1,0.2-0.2c0.1-0.1,0.2-0.1,0.3-0.1c0.1,0,0.2,0,0.3,0
	h0.2h0.2v-0.6h-4.9v-1h6.9v1h-0.9v5.3L128.6,40.5z"/>
<path class="st0" d="M130.3,35.2v-1h6.1v1h-0.9v5.3h-1.1V39l0,0l-0.2,0.1l-0.2,0.1l-0.3,0.1c-0.1,0-0.3,0-0.4,0
	c-0.3,0-0.7-0.1-0.9-0.2c-0.3-0.1-0.5-0.3-0.7-0.6c-0.2-0.2-0.3-0.5-0.4-0.8c-0.1-0.3-0.2-0.6-0.2-0.9c0.2,0,0.3-0.1,0.5-0.1
	c0.1-0.1,0.2-0.1,0.3-0.2c0.1-0.1,0.1-0.2,0.2-0.3c0-0.1,0-0.2,0-0.3c0-0.1,0-0.3-0.1-0.4c0-0.2-0.1-0.3-0.2-0.4L130.3,35.2z
	 M133,36.2c0,0.3-0.1,0.5-0.2,0.7c-0.2,0.2-0.4,0.4-0.6,0.5c0,0.1,0.1,0.3,0.1,0.4c0.1,0.1,0.2,0.2,0.2,0.3c0.1,0.1,0.2,0.1,0.3,0.2
	c0.1,0,0.2,0.1,0.4,0.1c0.2,0,0.5-0.1,0.7-0.2c0.2-0.1,0.4-0.3,0.5-0.5v-2.4h-1.7c0.1,0.2,0.2,0.3,0.2,0.5C133,35.8,133,36,133,36.2
	L133,36.2z"/>
<path class="st0" d="M142.6,35.2h-0.9v5.3h-1.1v-2.2h-1.9v0.8c0,0.1,0,0.1,0,0.2c0,0-0.1,0.1-0.1,0.1c-0.1,0-0.1,0-0.2,0
	c-0.1,0-0.2,0-0.3-0.1c-0.1-0.1-0.3-0.1-0.4-0.2c-0.1-0.1-0.3-0.2-0.4-0.3c-0.1-0.1-0.2-0.3-0.3-0.4c-0.1-0.1-0.2-0.3-0.2-0.4
	c-0.1-0.1-0.1-0.2-0.1-0.3c0,0,0-0.1,0-0.1c0,0,0-0.1,0.1-0.1c0,0,0.1-0.1,0.1-0.1c0.1,0,0.1,0,0.2,0h0.5v-2.2h-1.5v-1h6.5
	L142.6,35.2z M138.7,35.2v2.2h1.9v-2.2H138.7z"/>
<path class="st4" d="M59.5,21.7v116.7h93.3V21.7H59.5z M151,136.5H61.4V23.5H151V136.5z"/>
<path class="st4" d="M73.1,94.3c0.7,0,1.5-0.1,2.2-0.1c14.1,0,26.5,9.6,30,23.2c0.3,1.3,0.6,2.7,0.8,4c0.2-1.3,0.4-2.6,0.7-3.8
	c3.5-13.8,15.9-23.5,30.2-23.4c0.8,0,1.5,0,2.2,0.1s1.2,0.1,1.9,0.2c0.1-0.9,0.1-1.9,0.1-2.8c0-19.3-15.7-35-35-35s-35,15.7-35,35
	l0,0c0,1,0,1.9,0.1,2.8C71.9,94.4,72.5,94.4,73.1,94.3z M106.1,58.5c16.2,0,30.1,11.8,32.7,27.8h-0.5c-15.3,0-28.6,10.5-32.2,25.3
	l0,0C102.5,96.8,89.3,86.3,74,86.3h-0.5C76.1,70.3,90,58.6,106.1,58.5L106.1,58.5z"/>
<path class="st4" d="M104.5,124.8c-0.3-15.9-13.3-28.7-29.2-28.7c-0.7,0-1.4,0-2,0.1l0,0c-0.6,0-1.2,0.1-1.9,0.2
	c2.3,16.7,16.1,29.5,33,30.3c0-0.4,0-0.9,0-1.4L104.5,124.8L104.5,124.8z M75,102.9L75,102.9c1.6-0.3,3.2-0.5,4.8-0.5
	c12.4,0,22.6,9.8,23.1,22.2l0,0C90.2,123.3,79.4,114.9,75,102.9z"/>
<path class="st4" d="M139,96.2c-0.7,0-1.3-0.1-2-0.1c-15.9,0-28.9,12.8-29.2,28.7l0,0c0,0.2,0,0.3,0,0.5c0,0.4,0,0.9,0,1.4
	c16.9-0.8,30.7-13.5,33-30.3C140.2,96.3,139.6,96.2,139,96.2L139,96.2z M109.5,124.6L109.5,124.6c0.5-12.7,11.2-22.7,24-22.2
	c1.3,0,2.6,0.2,3.9,0.5l0,0C133,114.9,122.2,123.4,109.5,124.6L109.5,124.6z"/>
</svg>
